<?xml version="1.0" standalone="no"?>
<!DOCTYPE svg PUBLIC "-//W3C//DTD SVG 1.1//EN" "http://www.w3.org/Graphics/SVG/1.1/DTD/svg11.dtd" >
<svg xmlns="http://www.w3.org/2000/svg">
<metadata></metadata>
<defs>
<font id="MarydaleRegular" horiz-adv-x="636" >
<font-face units-per-em="1000" ascent="800" descent="-200" />
<missing-glyph horiz-adv-x="390" />
<glyph unicode="&#xd;" horiz-adv-x="390" />
<glyph unicode=" "  horiz-adv-x="390" />
<glyph unicode="&#x09;" horiz-adv-x="390" />
<glyph unicode="&#xa0;" horiz-adv-x="390" />
<glyph unicode="!" horiz-adv-x="249" d="M135 193l9 -55q-2 -30 -21 -30q-3 0 -6 1q-30 6 -30 55q0 10 1 24l35 401q1 63 8 133q11 12 28 12q28 0 28 -67q0 -128 -40 -374q-15 -90 -12 -100zM131 -82q1 -45 -25 -47q-12 -1 -20 16q-8 14 -8 37t13 26q39 1 40 -32z" />
<glyph unicode="&#x22;" horiz-adv-x="237" d="M238 669q-17 -26 -63 -136q-5 -14 -6 -36q-2 -49 -25 -38q-16 8 -16 39t7 62.5t27 75.5q27 62 51 62q11 0 19 -8.5t6 -20.5zM141 714q-31 -74 -45 -158q2 -13 1 -46q-6 -32 -25 -32q-24 0 -24 46q0 24 7 60q21 69 43 155q8 51 35 44q14 -4 14 -28t-6 -41z" />
<glyph unicode="#" d="M244 140q0 -30 -33 -30t-33 26q0 6 6 19q9 19 9 119q-35 -9 -115 -20q-30 -1 -48 11t-18 25t6 18q12 8 36.5 6t49.5 -2t95 19l4 123q-101 -40 -125.5 -40t-38 12t-13.5 20.5t5 11.5q21 11 177 55q5 94 14 196q4 7 21 7t21.5 -14.5t-3.5 -168.5l86 24q3 142 15 153 q6 7 17 7q28 0 30 -25q3 -30 -5 -115q172 38 183 31q22 -13 22 -18t-8 -8q-148 -37 -205 -62q-1 -11 -3.5 -52t-5.5 -89q82 18 197 46q64 20 86.5 20t22.5 -3q0 -16 -162 -67q-43 -15 -148 -46q-5 -67 -1 -80.5t14.5 -31.5t10.5 -28.5t-9.5 -21t-19.5 -10.5q-25 0 -38 67 q-9 46 -7 91l-86 -28l-7 -106zM342 498l-85 -24l-7 -128l87 20z" />
<glyph unicode="$" d="M342 680l-4 52q0 15 19.5 16t25.5 -12q8 -17 8 -82q29 6 51 6q69 0 65 -45q-1 -9 -9 -16.5t-16 -7.5q-11 0 -14 15q-2 9 -25.5 9t-51.5 -6q-3 -60 -12 -250q218 -58 216 -157q-1 -76 -67 -136q-45 -41 -135 -84q-9 -4 -17 -7q3 -47 9 -64t6 -31q0 -36 -28 -36 q-13 0 -24.5 12t-11.5 23.5t2.5 19t-0.5 59.5q-34 -10 -55 -13q3 -139 9.5 -148.5t6.5 -25.5q0 -35 -33 -35q-22 0 -26 59.5t-6 145.5q-88 -3 -111 44q-6 14 -6 30.5t15 30.5t28.5 14t24 -5t10.5 -12.5t-18.5 -18.5t-18.5 -18q0 -4 4 -8q20 -21 71 -16q0 122 17 355 q-108 18 -148 35q-60 26 -63 75q-2 35 49 70t174 90q4 2 13 5q0 55 -3 80.5t-3 31.5q0 22 27 22q32 0 31 -73q0 -7 -0.5 -20.5t-0.5 -19.5q12 3 26 8q0 6 -1 39zM341 595q-13 -3 -26 -9q-5 -41 -11.5 -103t-11.5 -104q26 -4 38 -7q5 78 11 223zM262 564q-5 -2 -15 -7 q-166 -78 -160 -113q4 -21 50 -34q22 -7 108 -22q5 57 17 176zM538 203q0 64 -161 107q-7 -169 -4 -282q4 1 9 4q157 84 156 171zM326 8q-6 97 2 314q-13 2 -40 7q-13 -183 -15 -337q28 6 53 16z" />
<glyph unicode="%" d="M295 565q33 -18 33 -62.5t-37 -81t-80 -60t-79.5 -23.5t-58.5 24q-11 12 -11 37t21 61.5t37 44.5q1 1 15.5 21t44 36.5t60 16.5t55.5 -14zM575 665q-36 -18 -43 -23q-31 -24 -55 -75q-324 -682 -325 -772q-1 -48 -39 -48q-13 0 -17 6q-11 22 -11 35.5t10 26.5 q38 96 108 271.5t213 483.5q36 79 61 108t57 41q7 3 18.5 3t20.5 -13t9 -26.5t-7 -17.5zM371 -91q-62 0 -62 65q0 40 27 90q44 81 60 81q13 0 20 -24q46 -7 62 -55q4 -14 4 -29q0 -49 -45 -95q-32 -33 -66 -33zM267 521q-10 10 -26.5 10t-38 -13t-30.5 -27q-7 -20 -22 -46 q-7 3 -17 4q-20 -27 -20 -45t25 -18q39 0 89 42.5t50 67.5q0 15 -10 25zM434 49q-10 25 -21 25q-17 0 -46 -61q-12 -25 -12 -42q0 -24 21 -16t41 29.5t20 38.5t-3 26z" />
<glyph unicode="&#x26;" horiz-adv-x="486" d="M299 681l5 -65q0 -16 -24 -22q-21 -6 -33 109q-9 80 -9 67q0 26 35 23q16 -2 20 -25t6 -87zM471 216q6 -14 -58 -77t-139 -92q-99 -39 -180 5q-58 31 -58 106q0 47 31.5 90.5t61.5 67.5t83 58q-56 4 -82 28q-13 12 -13 27q0 52 124 121q45 25 77 25q44 0 44 -34 q0 -4 -4 -11t-9.5 -7t-13 4t-11.5 5q-14 3 -74.5 -34t-60.5 -56.5t43 -19.5q6 0 20 0.5t20 0.5q39 0 43 -23q1 -7 -63 -53t-98 -81q-57 -59 -57 -107q0 -19 8 -36q18 -39 83.5 -39t143.5 47q36 22 78 57t49.5 35t11.5 -7zM250 -23q1 -10 12.5 -111.5t11.5 -92.5 q0 -24 -26 -20q-16 2 -21.5 17.5t-21 120.5t-2.5 118t22 13q16 0 25 -45z" />
<glyph unicode="'" horiz-adv-x="169" d="M168 742q0 -16 -15.5 -78t-26 -101.5t-25.5 -38.5t-15 40t9 72t18 75t16.5 49t17.5 7q21 0 21 -25z" />
<glyph unicode="(" horiz-adv-x="336" d="M315 695q-88 -107 -132 -186q-108 -191 -108 -380q0 -25 2 -50q10 -128 48 -185q27 -38 61 -38q75 0 67 -51q-2 -12 -18.5 -20.5t-39.5 -4t-64.5 45.5t-56.5 68q-33 60 -45 174q-4 33 -4 67q0 149 67 310q51 123 122.5 221t86.5 95q30 -6 30 -30q0 -16 -16 -36z" />
<glyph unicode=")" horiz-adv-x="384" d="M23 748q0 30 27 30q77 0 164 -133q104 -157 128 -398q3 -28 3 -56q0 -152 -85 -279q-61 -92 -160 -164q-48 -30 -97 -60q-9 -9 -19 -18t-34 -9q-30 0 -30 30q0 12 6 20t35.5 14.5t31.5 8.5q41 25 81 50q86 64 140 147q74 115 74 254q0 24 -3 50q-22 231 -101 369 q-58 99 -113 113q-48 13 -48 31z" />
<glyph unicode="*" horiz-adv-x="492" d="M479 565q2 -24 -22 -24q-12 0 -19.5 8.5t-39 8.5t-122.5 -21l-16 -44q13 -36 37 -78q25 -16 25 -36q0 -18 -19 -18t-38 30q-3 4 -24 45q-33 -91 -33 -98q0 -45 -29 -42q-23 3 -23 19.5t10 24.5q11 13 48 159l-6 19q-85 -24 -105 -42.5t-37 -18.5q-21 0 -21 21q0 27 50 44 q28 10 98 32q-12 31 -32 81q-17 35 -17 43t6 9q10 4 11 4q12 0 28.5 -27t46.5 -97q45 131 56 137.5t28 6.5t19 -18q0 -12 -19.5 -51.5t-26.5 -59.5q73 12 113.5 10t49.5 -4q21 -6 23 -23z" />
<glyph unicode="+" d="M614 362q1 -8 -6.5 -16.5t-18 -8.5t-17.5 1q-17 6 -107 -18t-199 -61l3 -188q2 -11 -3 -26t-16 -15t-20.5 5.5t-14.5 33.5q0 110 -3 172q-152 -53 -159.5 -59t-18.5 4t-11 20t4.5 18t183.5 70l-4 134q0 13 5.5 30.5t12.5 20t13 2.5q25 0 25 -51q0 -31 1 -119 q88 30 140 43q167 42 190 35q8 0 15.5 -8.5t4.5 -18.5z" />
<glyph unicode="," horiz-adv-x="237" d="M47 -181l19 4q7 0 9 -5q7 -13 -19.5 -36.5t-63.5 -21.5q-10 1 -10 15q0 29 40.5 112t63.5 133q17 33 29 36q29 6 33 -21q2 -12 -50.5 -107t-53.5 -98.5t-1 -7t4 -3.5z" />
<glyph unicode="-" horiz-adv-x="471" d="M455 275q0 -14 -14.5 -19t-55.5 -5q-126 0 -215.5 -19t-115.5 -19t-28 16q-6 33 46 47q32 9 143 17t175.5 8t64.5 -26z" />
<glyph unicode="." horiz-adv-x="201" d="M138 21q0 -42 -39 -42q-36 0 -36 41q0 18 12.5 29.5t26.5 13.5t25 -10.5t11 -31.5z" />
<glyph unicode="/" horiz-adv-x="357" d="M392 687q-4 -22 -29.5 -49t-36.5 -51l-56 -104q-60 -123 -135 -314t-97 -280q-4 -15 -9.5 -52.5t-8.5 -55.5t-17 -18q-36 0 -36 30q0 9 28 125q31 113 91 260q134 334 217 482q34 62 56 62q38 0 33 -35z" />
<glyph unicode="0" d="M520 597q40 -22 71.5 -70t31.5 -109q0 -113 -115 -229q-83 -84 -180 -137t-173 -53q-52 0 -86 26q-63 49 -63 145t73.5 233t133.5 184q25 20 35 20t20 -4t15 -5q71 21 134 21t103 -22zM514 535q-38 34 -98.5 34t-117.5 -22t-86 -49q-48 -44 -48 -78q0 -16 15.5 -27.5 t28.5 -16.5l14 -4q0 -4 -16 -10q-36 -15 -73 19q-71 -129 -71 -218q0 -60 36 -88q26 -21 65 -21q103 0 278 144q56 47 90.5 106.5t34.5 122t-52 108.5z" />
<glyph unicode="1" d="M430 653q13 -5 14.5 -14.5t-34.5 -281t-31 -303.5q2 -7 6 -17.5t4 -23.5q-6 -30 -29 -30q-5 0 -19.5 4.5t-19 11t-4.5 22t3 23t2 12.5t23 191t42 312q-192 -213 -208.5 -214.5t-16.5 32.5q0 11 6.5 20.5t109.5 114.5q23 24 73 83.5t58 61t21 -3.5z" />
<glyph unicode="2" d="M557.5 123q15.5 -8 15.5 -34.5t-27 -31.5q-12 -2 -40 10q-14 3 -100 -15.5t-132 -36.5q-128 -50 -139 -50t-15 2q-23 16 -15 43q2 7 57 76q264 328 264 424q0 28 -18 44q-35 32 -85.5 32t-95 -20t-67.5 -49q-7 -13 -15 -26t-19 -13q-30 0 -30 23t30 56t78.5 57t123.5 24 t120 -49q31 -33 31 -78q0 -83 -126 -259q-48 -62 -154 -207q43 14 108.5 34.5t202.5 45.5q32 6 47.5 -2z" />
<glyph unicode="3" d="M547 121q-2 -109 -76 -216q-53 -77 -139 -148l-78 -60q-40 -36 -59 -36t-32.5 14t-13.5 28q0 22 28 29q5 1 22.5 0t25.5 6q41 34 83 68q77 68 121 136q62 93 62 182q-2 121 -227 150q-46 5 -92 11q-16 8 -26.5 22t-6.5 25q1 4 82 70t169 153q-241 -25 -264.5 -24.5 t-34 11t-10.5 25t21 24.5q40 -2 150 7.5t153 9.5t49.5 -10t6.5 -19q0 -37 -115 -140q-40 -34 -119 -107q94 -4 161 -26q160 -53 159 -185z" />
<glyph unicode="4" d="M556 332q-62 8 -137 2q-38 -289 -36 -303q11 -22 11 -44q0 -31 -26 -31q-8 0 -19 3q-34 11 -34 43q0 13 4.5 26t44.5 299q-37 -5 -144.5 -24t-126 -19t-23.5 2q-22 8 -22 30q0 8 5 14q29 28 57 55q83 85 151 228q39 82 52 98q6 6 15 6t19 -14t10 -27.5t-10.5 -30 t-96.5 -170.5q-33 -60 -105 -128q77 14 225 32q15 108 31 211q13 43 22 46q14 4 29 -13.5t10 -30.5q0 -11 -10 -54q-10 -44 -27 -158q73 -2 126 -13q25 -5 25 -19q0 -18 -20 -16z" />
<glyph unicode="5" d="M700 597q2 -19 -4.5 -23.5t-22 -4.5t-24 4t-18.5 4q-148 0 -245 -17q-42 -7 -98 -9t-70 4q-23 9 -23 28q0 4 3.5 11t66.5 7.5t114 8t145.5 11.5t103.5 5.5t24 1.5q45 0 48 -31zM89 82q0 26 35 26q18 0 25.5 -23.5t14.5 -27.5q22 -11 48 -11q72 0 141.5 70.5t76.5 147 t-78 110.5q-65 25 -172 25q-51 0 -95 -5q-14 -2 -25.5 9.5t-11.5 20t3 17t52 71.5t60.5 63t24 -13t10.5 -24.5t-31 -48t-31 -37.5q103 2 176 -14q176 -39 176 -164q0 -23 -6 -48q-23 -101 -107 -165t-161 -64t-110 47q-15 22 -15 38z" />
<glyph unicode="6" d="M532 256q0 -75 -70 -147q-123 -124 -222 -124q-35 0 -63 18q-54 35 -54 164.5t45.5 235t106 194t87.5 96.5q14 4 31.5 -8.5t17.5 -23.5t-5 -19t-15 -10t-14 -5q-26 -21 -77 -99.5t-98 -193.5q-26 -62 -26 -173q0 -48 7 -89q0 85 72 169q99 116 193 116q84 0 84 -101z M446 302q-68 0 -149 -101q-59 -74 -59 -128q0 -27 21 -27q24 0 68.5 27t77 58.5t52.5 71t20 67.5q0 32 -31 32z" />
<glyph unicode="7" d="M68 546q-35 0 -35 35q0 11 7 15q28 15 188.5 23.5t243.5 8.5t93 -11q3 -6 3 -18t-17 -27l-40 -14q-37 -19 -84 -94q-11 -14 -51 -89q77 6 110.5 6t37.5 -3q15 -13 15 -26q0 -17 -19.5 -17.5t-77.5 -4.5q-24 0 -86 -6q-13 -30 -58 -182q-28 -102 -28 -146q0 6 2 -13t2 -24 q0 -30 -33 -26q-15 2 -23.5 17.5t-4.5 24.5q1 24 32 179q18 78 49 170q-46 -10 -72 -10t-26 24q0 12 13.5 19.5t106.5 15.5q7 17 47 88q49 81 80 115q-44 0 -202 -11q-54 -5 -108 -12t-65 -7z" />
<glyph unicode="8" d="M194 -11q-166 0 -166 139q0 54 24 92q36 58 104 104q-97 17 -120 58q-12 23 -12 54q0 75 57 133q34 36 57 43l52 8q61 26 167 28.5t153 -60.5q18 -24 18 -51q0 -42 -43 -85q-8 -8 -80 -56q141 1 182 -58q28 -39 28 -78q0 -92 -148 -181.5t-273 -89.5zM466 561 q-32 41 -110.5 41t-131.5 -21q-108 -43 -100 -103q2 -17 10.5 -25t41.5 -29q-27 -8 -57 5q-22 10 -37 42q-6 -18 -6 -40.5t18 -34.5q43 -27 100 -27t138 41q144 73 144 125q0 14 -10 26zM546 302q-34 48 -135.5 48t-178.5 -39q-156 -79 -156 -178q0 -27 12 -52 q20 -40 99 -40q49 0 106.5 15t93.5 35q83 46 120 77q55 46 55 88q0 23 -16 46z" />
<glyph unicode="9" d="M570 368q0 -104 -49.5 -223t-124 -207.5t-143 -142t-82 -57t-20.5 -3.5q-25 0 -25 20q0 9 6 13q84 63 146 126q120 119 179 244q39 83 56 221q-18 -47 -135 -93.5t-177.5 -46.5t-100.5 26q-58 36 -58 109q0 91 82 163q103 91 220 91q71 0 126 -35q100 -64 100 -205z M506 430q3 27 -20.5 56t-49.5 42q-49 24 -97.5 24t-105 -30.5t-95 -74t-38.5 -89.5q0 -23 11 -44q21 -43 79 -43t166.5 43.5t149.5 115.5z" />
<glyph unicode=":" horiz-adv-x="231" d="M141 375q-4 -59 -31 -59q-11 0 -20.5 15.5t-9.5 34.5q0 52 33 54q14 1 22 -12t6 -33zM137 28q0 -19 -11 -35t-23 -14q-31 6 -31 44t31 46q34 8 34 -41z" />
<glyph unicode=";" horiz-adv-x="237" d="M157 375q-4 -59 -31 -59q-11 0 -20.5 15.5t-9.5 34.5q0 52 33 54q14 1 22 -12t6 -33zM47 -181l19 4q6 0 9 -5q7 -13 -19.5 -36.5t-63.5 -21.5q-10 1 -10 15q0 29 40.5 112t63.5 133q17 33 29 36q28 6 32 -21q2 -12 -50 -107.5t-53 -98.5t-1 -6.5t4 -3.5z" />
<glyph unicode="&#x3c;" d="M523 74q0 -7 -13.5 -7t-87 22.5t-118.5 30.5t-108 20.5t-83 37t-20 33.5t11 25t104.5 123.5t107.5 118.5t29 11q25 0 20 -22q-3 -11 -96.5 -123t-92.5 -123q1 -18 128 -50.5t144 -41.5q75 -39 75 -55z" />
<glyph unicode="=" d="M582 345q-1 -25 -52 -25t-106 -9q-192 -31 -260.5 -46t-75.5 -15t-13 1q-32 8 -32 20q0 8 7.5 19t43.5 13l54 3q201 38 398 65q17 2 27 -6.5t9 -19.5zM577 240q15 -8 15 -25q0 -14 -20 -17q-15 0 -35 -1t-147.5 -24t-202 -39.5t-90.5 -16.5t-22 8q-8 13 -8 25 q0 23 56 27.5t222 36.5t194.5 32t37.5 -6z" />
<glyph unicode="&#x3e;" d="M541 286q1 -21 -53 -59q-20 -13 -153.5 -96.5t-151 -99.5t-20.5 -28q-8 -35 -34 -35q-9 0 -21 5t-12 18t19 34q35 40 188.5 142.5t153.5 113.5q1 14 -48 36q-199 90 -254 118t-60 40q-2 5 -2 11q0 29 30 31q9 1 17.5 -8.5t9.5 -16.5q1 -10 120 -54.5t169 -68.5 q101 -49 102 -83z" />
<glyph unicode="?" horiz-adv-x="567" d="M174 79l3 25q-7 21 -28 56t-31.5 65t-8.5 78q131 55 224 125q151 114 151 199q0 17 -5 34q-12 40 -88 40t-162 -32t-100.5 -63t-37 -31t-27.5 17q-7 23 41.5 58.5t122.5 68.5t162 33q129 0 147 -78q4 -17 4 -35q0 -147 -275 -316l-96 -58q0 -34 30 -81q41 -63 41 -93 q0 -50 -39 -43q-28 5 -28 31zM239 -79.5q13 -9.5 13 -26.5t-11 -31.5t-25 -14.5q-36 0 -36 38t30 42q16 2 29 -7.5z" />
<glyph unicode="@" horiz-adv-x="579" d="M552 522q0 -99 -63 -180q-80 -103 -185 -122q-20 -24 -56 -57q-47 -28 -66 -28q-33 0 -33 53q0 40 17 80.5t52.5 66.5t63.5 26q10 0 16 -4q29 -18 29 -52q0 -20 -9 -40q55 28 93 65q91 87 82 199q-6 87 -69 87q-50 0 -117 -50.5t-107 -110.5q-86 -130 -86 -260 q0 -57 24 -100.5t76 -43.5q85 0 233 105q0 12 10 23t23.5 11t21 -12t7.5 -19q0 -15 -25 -31q-51 -35 -101 -69q-104 -61 -176 -61q-38 0 -68.5 18.5t-54.5 69t-24 120.5q0 124 81 260q53 88 133.5 148t143.5 60t98.5 -42.5t35.5 -109.5zM264 305q-66 -17 -69 -110q0 -5 8 -5 t30.5 17t34.5 36q-12 3 -12 18t4 26.5t4 17.5z" />
<glyph unicode="A" horiz-adv-x="609" d="M635 344q2 -35 -36 -35q-9 0 -15 3l-129 -38l67 -285q23 -19 23 -35.5t-20 -27.5q-5 -2 -15 -2t-24 12.5t-11 24.5l-71 296q-49 -14 -169 -52q-35 -13 -109 -40q-18 -35 -41 -102q-3 -17 -6 -32q-5 -23 -26.5 -23t-27.5 17q-7 23 38 132q-30 5 -30 33q0 7 2 15 q4 15 59 30l205 448q14 32 38 32q18 0 26 -38q3 -30 23 -121q10 -37 59 -237l140 42q14 6 26 6q22 0 24 -23zM393 302q-37 148 -77 274q-99 -187 -160 -331q39 7 123 27t114 30z" />
<glyph unicode="B" horiz-adv-x="633" d="M625 259q-1 -60 -58.5 -132t-112.5 -105.5t-93 -49t-54 -23t-34.5 -7.5t-27.5 18q-5 9 -5 21t13 24t27 15q34 4 82 12q63 21 134.5 92t71.5 140q0 39 -75 68.5t-196 29.5q-33 0 -86 -10.5t-83 -24.5v-109q0 -39 12 -88t12 -59t-5 -27q-3 -9 -23 -9q-41 0 -45 19 q-9 50 -9 61t2.5 27.5t-2.5 172.5l3 224q-36 4 -37 28q-1 29 34 55q3 37 25 43q8 2 14 2q17 0 24 -22q201 62 313 62q39 0 61 -8.5t22 -31t-16.5 -51t-32.5 -44.5q-61 -59 -109.5 -93.5t-91.5 -63.5q101 -1 174 -16q173 -36 172 -140zM440 658q-61 0 -175 -31.5t-131 -58.5 t-10 -175q54 27 172 97q175 116 175 156q0 12 -31 12z" />
<glyph unicode="C" horiz-adv-x="729" d="M479 695q33 0 33 -33q0 -24 -59 -36t-153 -89t-163 -175.5t-69 -170.5t55 -108q30 -20 82 -20q106 0 294 84q92 45 184 91q38 17 54.5 17t23.5 -13t7 -20q0 -30 -58 -36q-12 -2 -121 -52q-264 -123 -395 -123q-70 0 -109 31q-73 57 -73 146q0 131 138.5 285t275.5 209 q32 13 53 13z" />
<glyph unicode="D" horiz-adv-x="663" d="M679 465q1 -113 -186 -260q-90 -71 -319 -209q-5 -2 -15 -22t-30 -21q-4 0 -8 4t-6.5 3.5t-10.5 1.5q-18 18 -9 49q4 12 7 25q-15 202 -11 290t18 299l-75 -26q-13 -2 -26.5 9.5t-13.5 24.5t13 21q27 17 94.5 31.5t134.5 15.5q171 4 306.5 -66.5t136.5 -169.5zM619 461 q0 81 -123 139q-111 52 -229 51q-66 -1 -91 -10q-24 -201 -31 -366q-4 -102 17 -220q110 61 194 118q204 138 250 238q13 27 13 50z" />
<glyph unicode="E" horiz-adv-x="648" d="M741.5 248.5q-1.5 -1.5 -70 -19t-208.5 -78t-252 -119.5t-118 -57q-14 5 -29.5 26.5t-19 38t2.5 60.5t11 175t5 179t-1 53t-8.5 24.5t-7.5 30t14 18.5t27.5 8t25.5 -7l300 112q99 31 131 31t32 -22q0 -11 -12 -24.5t-32 -13.5t-30 7q-158 -46 -218 -77q-29 -15 -161 -69 q4 -78 0 -100q-1 -30 -8 -98q278 121 304.5 115.5t26.5 -21.5q0 -11 -9 -20t-22.5 -11t-43 -14t-110 -43t-148.5 -75q-11 -133 -9.5 -165t1.5 -45q114 62 330 146t266 84q9 0 15 -3q27 -9 27 -22q0 -3 -1.5 -4.5z" />
<glyph unicode="F" horiz-adv-x="582" d="M138 579q-1 60 31 60q28 0 33 -36q135 49 321 112q115 32 150 32q10 0 14 -3q15 -9 15 -24.5t-21 -23.5q-8 -3 -48.5 -4.5t-78.5 -13.5q-128 -42 -181.5 -60.5t-168.5 -70.5q-2 -40 -28 -211q122 59 211 83.5t135 24.5q26 0 26 -18q0 -25 -27 -34q-22 -2 -102 -18 q-128 -32 -251 -115q-11 -109 -11 -151t1 -51.5t4 -22.5t3 -19q0 -28 -33 -28q-15 0 -24 9q-3 3 -3 29l8 212q-22 11 -22 27.5t4.5 21.5t23.5 23q7 60 18 211q-113 -42 -126 -40q-26 5 -26 30q0 12 5.5 19.5t65 23.5t82.5 26z" />
<glyph unicode="G" horiz-adv-x="865" d="M841 502q7 2 7 -39t-19.5 -150t-19.5 -129t3.5 -25.5t16 -12.5t10.5 -18t-22.5 -47.5t-28.5 -38.5q-16 -4 -29 24q-6 13 -6 65.5t10 118.5l10 63q10 66 12 123l-63 -24q18 -23 13 -58q-11 -80 -96 -175t-199 -160.5t-204 -65.5q-105 0 -159 90q-48 78 -40 185 q10 141 116 263q79 89 183.5 149.5t127.5 59.5q36 -1 36 -27q0 -5 -1 -12l-92 -48q-108 -57 -180 -128q-104 -101 -130 -224q-5 -22 -5 -50q0 -82 35 -136q44 -72 134 -64q75 6 171.5 68.5t166.5 140.5t70 125q0 20 -14 30q-4 3 -14 3q-39 0 -175.5 -58.5t-138.5 -58.5 q-13 2 -25 12t-12 18t6 13q35 27 197 93t348 105z" />
<glyph unicode="H" horiz-adv-x="690" d="M685 439q3 0 -15 4t-31 4t-67 -10t-58 -11q-3 -181 -0.5 -273t20.5 -130q13 -18 13 -31q0 -16 -22 -22q-10 -3 -17 -3q-20 0 -27.5 18t-7.5 32l-9 97q-10 100 -10 131v170l-166 -33q-44 -8 -135 -28l-23 -194q-6 -49 -6 -111v-10q0 -38 -4 -47q-8 -12 -20.5 -12t-31.5 13 q-5 4 -5 35t13 133.5t14.5 114t6.5 71.5q-8 1 -17.5 7t-10.5 23q-2 22 33 34q7 154 1 196.5t1 55.5q7 10 28 10t26.5 -6.5t9.5 -42t4 -60.5q-4 -45 -11 -142q32 6 147 24q49 11 146 29q0 147 9 160q13 24 35 24q25 0 25 -31q0 -11 -4.5 -61t-3.5 -82q124 20 152.5 20 t32.5 -2q19 -12 19 -27.5t-10 -26t-24 -10.5z" />
<glyph unicode="I" horiz-adv-x="234" d="M165 684q14 -5 14 -41.5t-11.5 -124.5t-14 -118t-7.5 -173.5t-7 -164.5q18 -25 18 -42.5t-12 -26t-30 -8.5t-27 20q-4 11 -4 91t9 251.5t13.5 212t9.5 86.5q7 43 31 43q8 0 18 -5z" />
<glyph unicode="J" horiz-adv-x="573" d="M524 705q12 -21 6 -145.5t-16 -188.5q-28 -189 -95 -271q-103 -128 -252 -128q-43 0 -89 11l-45 11q-19 -1 -35 7t-16 24q0 6 2 12q8 22 24.5 22t94.5 -31q14 -5 49 -5q130 0 211 92q115 132 107 504q-2 71 0 77q8 22 27.5 22t26.5 -13z" />
<glyph unicode="K" horiz-adv-x="645" d="M128 87l2 -59q0 -32 -19 -48q-7 -7 -17 -7t-25 13q-6 7 -6 63t22 313q-1 -2 -11 1.5t-10 18t2.5 28.5t26.5 28q7 61 7 166q2 41 9 51q17 21 29 21q32 0 32 -38q0 -11 -3.5 -46.5t-5 -66t-5.5 -60.5q64 40 251.5 105.5t234.5 65.5q18 0 18 -21.5t-41 -41.5 q-13 -7 -35.5 -8t-39.5 -6q-271 -84 -387 -153q33 -66 181 -202q66 -60 148 -105q32 -17 96 -45.5t64 -40t-20 -11.5q-52 0 -142 42q-114 52 -203.5 135.5t-136.5 145.5z" />
<glyph unicode="L" horiz-adv-x="570" d="M593 200q-104 -35 -208 -69q-198 -69 -268 -116q-40 -27 -52 -27t-22 7q-19 11 -19 24t8.5 32t9.5 29q20 346 45 475q4 26 4.5 72.5t5.5 61.5q8 24 35 24q31 0 31 -64.5t-17 -120.5t-28.5 -150.5t-6.5 -127.5q1 -11 1 -26.5t-4 -63.5t-3 -75q222 89 413 134q20 5 40 5 q44 0 44 -15q0 -5 -9 -9z" />
<glyph unicode="M" horiz-adv-x="858" d="M806 -48q-44 -3 -44 35q0 7 2.5 31t1.5 37q-9 77 -27 219l-25 187q-6 50 -6 100q-270 -501 -271 -518.5t-15.5 -30.5t-31.5 -13q-37 0 -47 49.5t-44 163.5t-73 206q-25 71 -63 171q-87 -520 -85 -548t-10 -48t-32 -20q-36 0 -36 32q0 21 20 51q8 11 41 238t40 249.5 t7 60.5t8 45q1 0 24.5 26.5t32.5 22.5t48 -109.5t80 -219.5q55 -142 92 -284l286 536q9 15 19 28.5t33 11.5q28 -2 34 -47q0 -1 8.5 -143t33 -286.5t24.5 -174.5q0 -57 -25 -58z" />
<glyph unicode="N" horiz-adv-x="612" d="M522 407l-6 -133q0 -64 10 -140q10 -20 10 -37t-8 -27q2 -12 2 -24q0 -45 -30 -41t-30 45q0 14 3 28q-15 10 -53 34q-46 27 -174 228q-45 70 -95 186q-51 -346 -51 -442q0 -24 6.5 -31t6.5 -46q0 -60 -31 -60q-11 0 -25 9q-6 4 -6 62.5t12 201.5t18.5 182.5t9.5 147.5 t12.5 123t24.5 15t24 -14q21 -34 51.5 -124.5t63.5 -148.5q106 -187 162 -226q12 -9 40 -21q-6 312 0 391q1 17 1 34l-5 92q0 34 31 34q35 0 35 -115q0 -39 -4.5 -105.5t-4.5 -77.5z" />
<glyph unicode="O" horiz-adv-x="696" d="M702 389q-4 -68 -87.5 -162.5t-201.5 -163t-217 -68.5q-47 0 -84 17q-97 45 -97 171q0 147 111 308.5t216 163.5q72 2 100 -33q269 -51 260 -233zM643 391q4 120 -140 161q-60 16 -145 16q-3 -1 -24.5 -17t-38.5 -13.5t-25 12.5l-8 9q-84 -68 -137.5 -175.5t-53.5 -195 t52 -115.5q36 -20 83 -20q87 0 189 60t174 141.5t74 136.5z" />
<glyph unicode="P" horiz-adv-x="567" d="M119 113l6 -74q0 -45 -35 -45q-17 0 -24 12t-3 52q2 59 10 238q-6 13 -6 22t6 17q5 60 13 173q6 130 -3 154q-2 5 -2 15.5t12 24.5t25.5 14t24.5 -8.5t18.5 -9t130 11.5t198.5 12q115 0 135 -27q11 -15 11 -32q0 -75 -208 -193q-126 -72 -299 -145q-10 -140 -10 -212z M564 652q0 21 -70.5 21t-147.5 -8.5t-105.5 -14.5t-89.5 -10l-15 -251q124 50 213 95q214 107 215 168z" />
<glyph unicode="Q" horiz-adv-x="807" d="M468 73q42 -83 77 -83q12 0 32 -5q5 -8 -13 -34t-35.5 -26t-51.5 42.5t-53 77.5q-146 -85 -255 -85q-70 0 -111 39q-52 49 -52 142.5t50.5 202.5t113.5 170t151.5 116t99.5 55t17 -5t8 -6q54 30 114 32q86 1 161 -44q94 -58 96 -162q2 -145 -235 -339zM763 502 q0 64 -58 106.5t-129 42.5q-91 0 -126 -66q-59 -112 -59 -236.5t53 -227.5q93 60 159 120q159 144 160 261zM396 93q-111 243 -1 514q-97 -47 -166 -111q-165 -154 -165 -370q0 -108 112 -108q52 0 114 22.5t106 52.5z" />
<glyph unicode="R" horiz-adv-x="675" d="M732 27q0 -29 -30 -29t-44 16q-58 24 -115 49q-139 61 -266 144q-46 30 -152 117q-7 -74 -16 -251q-1 -12 6 -33.5t7 -34t-11.5 -23.5t-28 -11t-27.5 12q-4 4 -4 34.5t10.5 159.5t13.5 190l-8 16l9 6q14 150 11 177q-4 27 -4 37q0 37 30 46q8 2 14 2q24 0 33 -31 q176 78 279 78t109 -76q9 -119 -373 -269q26 -25 102 -83q139 -91 255.5 -143t142.5 -55.5t41.5 -15t15.5 -29.5zM489 615q0 24 -56.5 24t-140.5 -22.5t-105 -41.5q-6 -5 -14.5 -2.5t-11.5 11.5q-2 -41 -10 -77t-17 -105q20 3 81 23q274 115 274 190z" />
<glyph unicode="S" horiz-adv-x="621" d="M595 207q1 -63 -75 -125q-50 -41 -134 -82.5t-85 -44.5q-5 -32 -44 -32t-46 18q-3 8 -3 21t14.5 25t30.5 14q67 9 175.5 77.5t108.5 116.5q0 70 -132 108q-123 27 -246 55q-132 35 -132 97q0 70 78 133q64 51 156.5 84.5t143.5 32.5t74 -19q5 -4 19.5 -24.5t14.5 -26.5 t-10.5 -13t-22.5 -7t-29 16t-30 16q-82 1 -205.5 -57t-123.5 -119q0 -45 130 -77q233 -56 241 -59q131 -47 132 -128z" />
<glyph unicode="T" d="M786 645q0 -9 -27 -21.5t-43 -12.5q-7 0 -9.5 16t-10.5 16q-77 -3 -154 -7q-146 -11 -236 -45q-22 -266 -20.5 -337t1 -118t0.5 -65.5t6.5 -28t5.5 -22t-12 -27.5t-25.5 -15t-23 6.5t-9.5 177t7 241t3 173.5q-204 -45 -227.5 -37t-23.5 34q0 14 11.5 22.5t76.5 10 t159 29.5q4 1 12.5 14t21.5 15.5t24.5 -4.5t12.5 -7q22 9 192 22t211.5 13t43.5 -1q33 -13 33 -42z" />
<glyph unicode="U" horiz-adv-x="660" d="M615 614l-4 55q0 39 26 40q47 1 47 -34q0 5 -7 -50q-27 -207 -132 -393q-137 -241 -320 -238q-70 1 -121.5 124t-53.5 268t2 218q2 53 48 49q17 -2 21.5 -10.5t1 -55t-10.5 -250.5q-1 -97 42.5 -195t96.5 -93q112 12 203 139q71 97 114.5 230.5t46.5 195.5z" />
<glyph unicode="V" horiz-adv-x="622" d="M632 723q17 -9 17 -31t-14.5 -35t-32.5 -74.5t-50 -128.5q-103 -221 -213 -450q-10 -11 -29.5 -11t-28.5 5q-3 2 -67 189t-131 338q-3 8 -25 38t-22 45.5t12.5 30t26.5 14.5q26 0 55 -65q17 -38 53 -150.5t58.5 -167t72.5 -179.5q71 136 207 422q20 44 33 91.5t13 61 t14 35.5q15 26 36 26q7 0 15 -4z" />
<glyph unicode="W" horiz-adv-x="840" d="M506 641l-2 -84q0 -85 11 -182.5t25.5 -151t48.5 -153.5q84 119 175 436q16 57 29 120t21.5 78t38 12t29.5 -26.5t-19 -42.5q-5 -5 -41.5 -136.5t-90.5 -275.5q-91 -241 -141 -240q-30 1 -37 8t-19 55t-36 114.5t-35 154t-22 228.5q-97 -151 -139.5 -260t-73 -195.5 t-41 -92.5t-29 -6t-29.5 14q-7 10 -7 19l3 43q0 15 -13 125q-31 245 -68 384q-11 40 -11 47t12 19.5t24.5 12.5t27.5 -9.5t20 -67.5q13 -131 30.5 -229.5t33.5 -219.5q48 147 98.5 236.5t101 177.5t58.5 115q5 16 29.5 16t31 -10.5t6.5 -32.5z" />
<glyph unicode="X" horiz-adv-x="545" d="M520 686q5 -11 -78.5 -114t-144.5 -189q135 -290 153 -305q33 -27 33 -39.5t-10 -21.5t-17 -9q-16 0 -37.5 24t-34.5 49q-70 133 -124 250q-1 -2 -36 -52t-99 -142q-93 -141 -89 -180q1 -15 -12.5 -31.5t-28 -16.5t-23 14t-8.5 29t19 51.5t37 69.5q40 77 211 319 q-34 74 -53 112.5t-44 77.5q-13 18 -27.5 39t-14.5 38.5t24 27.5q9 4 17 4q24 0 42 -36q13 -33 24.5 -59.5t68.5 -151.5q99 137 168 221q32 43 53 43t31 -22z" />
<glyph unicode="Y" horiz-adv-x="526" d="M568 680q0 -10 -19.5 -22.5t-20.5 -15.5q-22 -44 -269 -257q6 -46 2 -155.5t8 -208.5q1 -5 7.5 -22t6.5 -29t-11.5 -19t-25 -7t-25 14t-8.5 30t-4 73t-9 120.5t-5 142.5q-11 5 -26 17q-13 42 -25 85q-27 82 -64 142q-13 21 -34.5 31.5t-21.5 25.5q0 23 23.5 23t46 -13 t34.5 -34q24 -42 80 -181q205 157 279 249q9 12 21 26.5t24 14.5t24 -10t12 -20z" />
<glyph unicode="Z" horiz-adv-x="690" d="M783 39q-14 0 -40 13q-17 4 -136 4t-226 -13t-207.5 -32.5t-123.5 -29.5t-38 -10q-39 0 -39 35q0 10 5 16q74 112 254 363q85 110 196 230q-246 -31 -293 -74q-29 -25 -42 -25t-21.5 11t-8.5 18q0 22 69 64q23 15 187.5 49.5t206.5 34.5q7 0 9 -2q24 -15 15 -44 q-38 -33 -75 -66q-148 -141 -323 -400q-73 -107 -85 -132q92 15 281 40q134 13 279.5 13t158.5 -12q21 -14 21 -27q0 -24 -24 -24z" />
<glyph unicode="[" horiz-adv-x="282" d="M280 -185q4 -12 -122 -55q-25 -9 -51.5 -19t-37 -10t-14.5 4q-24 28 -24 154q0 191 53 551q9 63 9 106.5t-5.5 75.5t-5.5 35.5t4 6.5q12 12 20 12t27 -3t37.5 -1.5t55 16t43.5 14.5t7 -8q0 -19 -59 -50q-18 -9 -65 -17q0 -54 -6 -108q-62 -509 -62 -639q0 -59 13 -80 q1 -2 10 -2t68.5 12.5t80.5 12.5t24 -8z" />
<glyph unicode="\" horiz-adv-x="318" d="M292 61q16 -32 16 -52q0 -24 -25 -24q-5 0 -12 1q-36 7 -203 528q-26 79 -48.5 149.5t-18.5 80.5q9 20 22 20t27.5 -6.5t31.5 -67.5q69 -253 77 -280q61 -208 133 -349z" />
<glyph unicode="]" horiz-adv-x="312" d="M248 709q2 -4 2 -20.5t-25 -364.5t-25 -444q0 -4 4.5 -8.5t4.5 -11.5t-2 -16q-5 -21 -80 -75.5t-101 -54.5q-14 0 -14 17t25 36t47 35q39 34 62 57q7 79 16 301t20 331t13 172q-24 -8 -114 -13q-28 -2 -28 19q0 27 20 30q34 -1 84 2q64 18 75.5 18t15.5 -10z" />
<glyph unicode="^" horiz-adv-x="330" d="M263 334q-20 0 -26 13q-13 29 -38 144t-29 131q-25 -49 -95 -217q-4 -12 -23 -12q-28 0 -28 26q0 11 6 23t66 147t72 140q5 2 10 2q24 0 40 -65q2 -7 26 -137q10 -50 29.5 -104t19.5 -66q0 -25 -30 -25z" />
<glyph unicode="_" horiz-adv-x="490" d="M500 -122h-500v47h500v-47z" />
<glyph unicode="`" horiz-adv-x="357" d="M325 474q0 -22 -19 -22q-5 0 -12 2q-24 8 -119.5 91t-127.5 128q-5 7 -5 18q0 20 23 20q8 0 17 -2.5t40 -38.5q36 -41 90 -92.5t72 -60.5l15 -1q10 0 18 -14t8 -28z" />
<glyph unicode="a" horiz-adv-x="369" d="M287 5q-4 -5 -15 -4t-17 7.5t-10 23.5q-75 -50 -133 -50q-37 0 -58 22t-21 65t37 92.5t85 56.5q74 10 109 -94q16 41 16 100.5t-33 119.5q-22 41 -67 41q-28 0 -53.5 -14.5t-27.5 -26.5q1 -5 -8 -5q-27 0 -29 23q-2 25 38 47.5t79.5 22.5t61.5 -14q89 -56 89 -201 q0 -68 -17.5 -137.5t-25.5 -74.5zM230 85q-29 90 -62 84q-44 -8 -66 -39.5t-22 -59.5t10 -34t24 -6q46 0 116 55z" />
<glyph unicode="b" horiz-adv-x="381" d="M111 603l-8 49q0 23 24 25q14 1 27 -21q13 -25 13 -60t-15 -99.5t-20 -92.5q192 2 240 -105q5 -11 5 -24q0 -62 -106 -168q-61 -54 -121 -108q-8 -10 -14.5 -18t-18.5 -6q-29 5 -29 32q0 6 1 11q-30 -1 -37 14.5t-0.5 136.5t12.5 165q-7 5 -16 27q-2 18 29 32 q34 129 34 210zM254 335q-47 16 -82 16t-50 -2q-8 -34 -20 -135q-1 -25 -1 -74.5t9 -103.5q210 150 210 234q0 43 -66 65z" />
<glyph unicode="c" horiz-adv-x="510" d="M258 335l-33 5q-28 0 -94.5 -85.5t-66.5 -142.5q0 -36 30 -55q18 -11 47 -11q79 0 231 79q72 41 145 82q4 2 11.5 2t14 -8.5t5 -16.5t-78 -56t-169.5 -88t-165.5 -40t-106.5 44q-19 24 -19 59q0 84 85 189q94 115 170 115q34 0 34 -24q0 -14 -13 -31t-27 -17z" />
<glyph unicode="d" horiz-adv-x="519" d="M482.5 688.5q14.5 -14.5 14.5 -29.5t-5 -28t-23.5 -172.5t-23.5 -259.5q37 -3 42 -24q2 -8 2 -14q0 -17 -17 -25q-22 -8 -44 -15q6 -33 6 -59q0 -47 -21 -44q-30 4 -35.5 25.5t-9.5 42.5q-153 -100 -251 -100q-54 0 -79.5 34.5t-25.5 76.5q0 86 86.5 172t158.5 86 q51 0 86 -34q21 -21 52 -78q45 374 39.5 396t-5.5 44t17 21q22 -1 36.5 -15.5zM361 146q-5 38 -15 67q-30 92 -88.5 92t-126 -75.5t-67.5 -136.5q0 -55 60 -55q40 0 112 37q14 7 125 71z" />
<glyph unicode="e" horiz-adv-x="486" d="M462 224q7 0 18.5 -8t11.5 -27t-23 -35l-114 -84q-112 -75 -179 -75t-115 65q-43 61 -43 127q0 92 85 159t179 67q51 0 86 -23q4 -2 4 -7q0 -17 -46 -55t-104.5 -73.5t-142.5 -40.5q-3 -12 -3 -29q0 -44 27 -86q35 -55 84.5 -53t137.5 61t103 80q21 37 34 37zM295 365 q-55 0 -106.5 -26t-85.5 -69q56 3 108 34.5t84 60.5z" />
<glyph unicode="f" horiz-adv-x="390" d="M106 -338q-37 0 -37 32q0 17 9 27t26 84q42 183 42 420q-24 -5 -34 -11.5t-23 -25t-27 -18.5t-24.5 10.5t-10.5 22.5t10 22q40 40 108 54v27q1 20 1 30q0 377 189 377q14 0 29 -2q68 -10 63 -50q-5 -18 -21 -18q-11 0 -36 14q-21 8 -40 8q-68 0 -102 -99 q-31 -88 -29 -231v-23q1 -14 1 -23q47 7 95 7t56 5.5t19.5 5.5t21.5 -9.5t10 -23.5q-2 -28 -46 -30q-54 1 -155 -7q0 -166 -12.5 -252.5t-32.5 -180.5t-17 -104.5t-6 -24t-27 -13.5z" />
<glyph unicode="g" horiz-adv-x="474" d="M1 35q0 21 45 36q-14 33 -12 63.5t31 72.5q9 11 81 98q-29 18 -28 31q2 26 22 26q9 0 16.5 -6t30.5 -6t121 12t119 12t27 -2q24 -7 24 -20q0 -9 -13 -19q-42 -1 -106 -6q-29 -4 -75 -12q13 -13 24 -25q54 -70 4 -137q-19 -26 -70 -66q17 -4 69 -33q35 -25 71 -77 q111 12 176 10q127 -3 145 -41q2 -4 2 -7q0 -25 -60 -21q-20 1 -25.5 9.5t-10.5 17.5q-50 2 -84 0t-122 -12q15 -33 15 -86q0 -102 -63 -227q-35 -68 -103.5 -123.5t-147.5 -55.5q-58 0 -113 35q-81 51 -81 137t67 160q81 90 167 133q63 32 187 61q-45 69 -122 75 q-15 1 -29 1q-51 0 -96 -16.5t-53.5 -16.5t-19 7.5t-10.5 17.5zM287 227q-11 61 -75 74q-62 -55 -96 -110q-27 -41 -28.5 -61.5t8.5 -45.5q20 4 70 20q48 20 81 49q46 38 40 74zM351 -78q-64 -12 -120 -34q-135 -52 -211 -145q-57 -69 -57 -123.5t56 -96.5q37 -28 86.5 -28 t101.5 34t82 82q78 124 78 222q0 45 -16 89z" />
<glyph unicode="h" horiz-adv-x="474" d="M439 166q0 -43 -2 -75.5t-0.5 -49.5t1.5 -20q0 -22 -25.5 -23t-31.5 27q-3 14 0 48.5t3 87.5q0 160 -29 177q-7 4 -16 4q-42 0 -116 -66.5t-97 -115.5q-33 -69 -25 -142q6 -61 -37 -61q-16 0 -25 9t-9 23t13 43q4 9 7.5 131t18.5 261q8 94 16 189q6 63 28 62 q35 -2 35 -36q0 -15 -9 -68q-13 -76 -22 -189t-10 -161q142 176 239 176q14 0 27 -4q66 -23 66 -227z" />
<glyph unicode="i" horiz-adv-x="234" d="M156 699q-7 -15 -27 -62q-7 -19 -9.5 -39t-8.5 -24q-15 -18 -28 -6q-8 7 -8 34t17 63q1 2 18 49q6 17 21 17q28 0 25 -32zM142 38q0 -33 -27 -33q-12 0 -24 9.5t-12 64.5q0 3 7 144.5t8 148.5q6 36 27 37q15 1 25 -11.5t8 -32.5q-21 -193 -23.5 -237t4.5 -65.5t7 -24.5z " />
<glyph unicode="j" horiz-adv-x="261" d="M196 675q4 -44 -20 -44q-30 0 -34 38q-1 21 2.5 27t15.5 8q33 5 36 -29zM-314 -243l-2 -50q0 -149 151 -173q15 -2 30 -2q98 0 180 85.5t100 203.5q9 53 9 142.5t-18 230.5q-10 65 -15 101.5t-10.5 45.5t-5.5 19q2 19 22 19t30 -11q15 -14 37 -156t22 -259.5t-19 -180.5 q-45 -150 -145 -226q-84 -63 -176 -63t-143 39q-81 62 -81 161q0 55 19 81q5 6 10 4.5t5 -11.5z" />
<glyph unicode="k" horiz-adv-x="588" d="M650 76q3 -24 -43 -41q-20 -9 -47.5 -19.5t-73.5 -11.5q-163 -4 -381 183q-13 -65 -11 -155q0 -17 6.5 -44t6.5 -36q0 -26 -38 -26q-32 0 -26.5 171.5t41.5 353t53 188.5q8 4 19 4t19.5 -12.5t8.5 -22t-16.5 -51t-27 -100.5t-25.5 -150q303 93 385 102q20 2 20 -21 q0 -14 -13 -23q-57 -13 -115 -27q-135 -32 -275 -90q86 -93 244 -164q72 -32 122 -32t76 13t33.5 25.5t27.5 12.5q27 0 30 -27z" />
<glyph unicode="l" horiz-adv-x="213" d="M81.5 -49.5q-12.5 8.5 -12.5 96t47 591.5q6 71 16.5 80.5t20.5 9.5t21 -12t11 -29t-14.5 -115.5t-29.5 -222t-15 -213.5t3 -129q4 -65 -24 -65q-11 0 -23.5 8.5z" />
<glyph unicode="m" horiz-adv-x="630" d="M585 96l10 -51q0 -24 -29 -24q-15 0 -24 16.5t-9 107.5q2 65 3 130q1 102 -24 116q-7 4 -49 -63q-79 -127 -127 -309q-13 -50 -30 -46q-27 7 -32 32q0 3 -4 104q-9 249 -22 257q-19 12 -67 -94.5t-64 -208.5v-46q0 -30 -9.5 -36.5t-26 -5.5t-22 9.5t-5.5 42.5t16 202 q3 32 1 70l-3 48q0 33 31 33q33 0 43 -72q70 146 104 146q29 0 48 -36q16 -24 26 -261q37 84 70 144q79 146 123 152q16 2 36.5 -19.5t27.5 -47t8.5 -140t-0.5 -150.5z" />
<glyph unicode="n" horiz-adv-x="384" d="M286 -5l3 23l-5 60q-6 59 -5 124q4 152 -10 163q-11 9 -57 -77q-75 -142 -109 -267q-7 -26 -14 -31q-11 -5 -19 -5q-28 0 -28 45q0 11 3.5 73.5t5 143t12.5 161.5q4 23 22 23q20 0 32 -16q4 -5 4 -15t-5 -48q-6 -56 -6 -145q116 241 173 229q35 -7 45 -83 q7 -50 6.5 -184.5t2.5 -144.5q17 -35 17 -49q0 -25 -23 -25q-16 0 -30.5 13t-14.5 32z" />
<glyph unicode="o" horiz-adv-x="366" d="M279 379q65 -49 65 -148.5t-73 -167t-145 -67.5q-53 0 -86 62q-22 41 -22 86t17 83q76 173 166 180q38 3 78 -28zM294 242q0 31 -12.5 58t-26 39t-44.5 16l1 -5q-25 -6 -48 -24q-54 -44 -86 -138q-6 -17 -6 -46t16.5 -61.5t49 -32.5t72.5 30.5t55 60.5q29 58 29 103z" />
<glyph unicode="p" horiz-adv-x="348" d="M37 -393l5 28q0 2 -3 58.5t-3 104.5q0 155 19 333q3 22 29 220q-28 10 -25 34q4 18 29.5 29t41.5 11q62 -1 130 -51.5t76 -129.5q4 -39 -44 -100q-36 -48 -88.5 -94t-64 -48.5t-24 6.5t-15.5 19q-6 -45 -13 -226q-3 -174 3 -186t6 -23.5t-9.5 -20t-20.5 -5.5 q-29 8 -29 41zM281 236q8 37 -38 84t-92 50q-27 -133 -49 -320q46 24 80 51q84 66 99 135z" />
<glyph unicode="q" horiz-adv-x="339" d="M242 324q0 19 25 19t34 -15q3 -5 3 -12q0 -10 -40 -132q-11 -39 -25.5 -148.5t-14.5 -190.5q2 -229 44 -277q2 -2 6 -2q22 0 117 110.5t103 111.5q22 2 26 1t3 -7q-1 -19 -111 -150t-148 -126q-49 7 -72 148q-14 90 -14 201.5t29 273.5q-86 -117 -130 -117q-38 0 -38 78 q0 58 21 138t65.5 144.5t74.5 69.5q15 3 36 -10.5t19 -25.5q-3 -21 -18 -21h-12q-47 0 -93 -107t-46 -162q0 -35 8 -35q15 0 68 73q82 113 82 145z" />
<glyph unicode="r" horiz-adv-x="408" d="M432 424q14 -5 14 -24.5t-23 -25.5q-8 -2 -23 3t-25.5 5t-23.5 -8q-94 -53 -211 -231q-22 -33 -27.5 -89t-12 -64t-21 -8t-24 10t-9.5 26.5t7 67.5q11 81 11 159.5t-11 123.5t-11 37q0 2 2 5q11 18 25 18t25 -10q18 -17 20 -98q1 -39 1 -121q69 91 125.5 144t67.5 61 q39 27 69.5 27t54.5 -8z" />
<glyph unicode="s" horiz-adv-x="342" d="M323 476q4 -22 -21 -22q-11 0 -23 6t-15 6q-22 -1 -45 -20q-40 -37 -77 -70.5t-56 -74.5q-41 -88 30 -127l86 -33q70 -27 80 -33q34 -21 39 -60q3 -27 -81.5 -79.5t-98.5 -50.5q-36 1 -36 27q0 8 6 15l80 38q74 37 71 57q-3 18 -74.5 40.5t-100.5 39.5q-62 35 -68 93 q-9 76 64 160q32 36 127 115q30 25 64 10q14 -8 31 -19t18 -18z" />
<glyph unicode="t" horiz-adv-x="396" d="M207 32l5 -30q0 -26 -28 -24q-18 1 -27 18.5t-8.5 53.5t11.5 192q6 46 16 134q-24 -6 -85 -28q-23 -11 -43 -26t-26 -13q-31 8 -31 29q0 26 63 50q35 14 130 43q7 41 16 119.5t7.5 94.5t-1.5 23q0 39 23 39q31 0 31 -72q0 -23 -3 -54q-6 -38 -21 -141q82 16 158 12 q28 -1 37 -4q21 -5 22 -22q1 -20 -24 -20l-34 3q-68 0 -167 -22q-22 -183 -22 -306q0 -27 1 -49z" />
<glyph unicode="u" horiz-adv-x="342" d="M313 355q-10 -71 -38 -175q-42 -150 -80 -168q-16 -8 -31 -8q-110 0 -122 392q-1 20 6.5 28.5t18.5 6.5q31 -6 30 -38q-5 -129 17 -228t51 -99q10 0 20 17q32 56 49.5 145.5t18.5 129t32 37.5q24 -1 28 -40z" />
<glyph unicode="v" horiz-adv-x="441" d="M492 467q0 -45 -55 -91q-30 -26 -122.5 -162t-107.5 -168q-23 -54 -52 -54q-23 0 -35 34q-5 19 -11 38q-21 89 -52 203q-24 67 -24 79q0 19 19 19q16 0 33 -23t26 -57q12 -74 46 -202q30 44 121 173q71 94 145 197q21 50 43 50q11 0 18.5 -12t7.5 -24z" />
<glyph unicode="w" horiz-adv-x="708" d="M714 428q8 0 22 -7t14 -27t-23 -41t-119.5 -155t-123 -169.5t-35 -37.5t-23 -0.5t-18.5 8.5q-18 31 -60 213q-8 38 -26 113q-93 -103 -125 -169l-42 -102q-31 -63 -60 -62q-25 1 -30 57q-5 178 -10.5 240t-3.5 70q6 20 22 20t27 -8.5t12 -28t2 -54.5q1 -118 6 -161 q52 107 92.5 153.5t86.5 102.5q7 12 28.5 12t29.5 -5.5t18 -53t22.5 -106.5t43.5 -156q117 147 235 306q15 48 38 48z" />
<glyph unicode="x" horiz-adv-x="270" d="M251 409q1 -3 -84 -199q24 -66 54 -145q23 -53 22 -62q2 -9 -8 -15t-24 -3q-24 5 -30 55q0 4 -40 109q-83 -196 -82 -201q2 -17 -3 -31q-8 -25 -34 -22q-12 0 -20 12.5t-8 26t6 18.5t114 267q-24 61 -57 145q-6 17 -6 28q0 21 22.5 21t66.5 -128l1 -2q63 152 74 157 q5 2 10 2q22 0 26 -33z" />
<glyph unicode="y" horiz-adv-x="393" d="M366 299q0 -24 -28 -285t-37.5 -328t-9.5 -74.5t1 -9.5q14 -18 14 -40q0 -26 -38 -27t-38 32q0 29 12 32q7 2 33.5 264t29.5 414q-178 -220 -234 -219q-29 1 -29 65q0 33 17.5 157.5t18.5 129.5q11 45 44 22q14 -10 14.5 -19.5t-19.5 -112t-20 -129t8 -26.5q16 0 73 61 q23 25 115 132q1 1 16 29q10 18 18.5 18t14.5 -2q24 -9 24 -84z" />
<glyph unicode="z" horiz-adv-x="462" d="M561 122q9 -11 9 -19t-25.5 -9t-42 -2.5t-194 -45.5t-247.5 -44q-16 0 -49 22q-6 4 -6 10q0 9 72 69.5t135.5 130.5t63.5 94q0 3 -4 7t-49 1t-56.5 -6t-44.5 -13t-46 -10q-24 0 -24 19t39 34q66 24 125 24t92.5 -6t35.5 -14q2 -4 2 -11q0 -42 -62 -115 q-25 -30 -99 -100.5t-74 -75.5t103.5 11t139.5 23.5t109.5 25t80.5 14.5t16 -14z" />
<glyph unicode="{" horiz-adv-x="420" d="M-63 324l77 -11q129 2 175.5 37.5t48.5 119.5q4 180 52 253q39 59 119 59q23 0 57 -5q72 -11 63 -50q-6 -22 -20 -22q-12 0 -37 18q-36 13 -64 13q-60 0 -87 -64.5t-30 -200.5q-3 -115 -66 -158q-45 -30 -161 -39q96 -31 125 -45q43 -23 81 -71q57 -74 57 -174 q0 -6 -0.5 -16.5t-0.5 -35.5q0 -67 64 -110q14 -9 37.5 -4t37.5 -4.5t14 -34t-20.5 -30t-38.5 -5.5q-66 0 -105.5 61.5t-36.5 153.5q1 70 -8 107t-44 79q-45 55 -136 82q-81 17 -162 35q-39 10 -35 29q8 33 44 33z" />
<glyph unicode="|" horiz-adv-x="201" d="M146 30q0 -25 -33 -25q-23 0 -27 15q-28 100 -21.5 243.5t16.5 300t9 164.5t13 23t35.5 16t21.5 -21q0 -12 -13.5 -28.5t-26.5 -422.5q-3 -92 11.5 -183t14.5 -82z" />
<glyph unicode="}" horiz-adv-x="360" d="M403 293q0 -13 -12.5 -21.5t-30 -11t-57.5 -23.5q-18 -9 -36 -38.5t-25 -68.5t-9 -114q-8 -307 -107 -307q-31 0 -76 27.5t-45 47.5q0 6 5 15q9 11 22 11t34.5 -25t39.5 -25q50 0 70 176q3 21 4 93.5t11.5 128.5t45.5 99q-51 20 -71 38q-26 26 -34 75q-2 10 2.5 82 t4.5 115q0 154 -51 154q-8 0 -20 -5t-18 -5q-26 0 -31 30q-1 10 5.5 17.5t19.5 6.5q20 3 70 4q76 -6 76 -220q0 -21 -0.5 -60t-0.5 -55q0 -72 11 -86q40 -50 95 -50q24 0 42 14.5t26.5 14.5t15.5 -3q24 -8 24 -31z" />
<glyph unicode="~" d="M555 292.5q7 -10.5 7 -24.5t-15 -16q-8 -2 -69 -39t-86 -51q-76 -40 -114.5 -40t-50.5 35q-4 12 -7 55.5t-17 43.5q-19 0 -55.5 -32.5t-38.5 -47t-18 -14.5q-28 0 -28 23q0 34 58 77t94 39q18 -2 36 -26t17 -63t10 -42q23 -5 118 44.5t112 69t28.5 19.5t18.5 -10.5z" />
<glyph unicode="&#xa1;" horiz-adv-x="309" d="M192 625q3 -31 -10 -35q-39 -4 -42 29q-5 45 21 48q12 2 21 -13t10 -29zM202 352l-7 -402q3 -63 1 -133q-12 -15 -26.5 -15t-22.5 11q-19 23 -9 272q2 44 10.5 146.5t6.5 112.5q-6 20 -13 54q0 15 7.5 25t17.5 6q36 -4 35 -77z" />
<glyph unicode="&#xa2;" d="M545 232q0 -20 -24 -25q-13 -3 -67.5 -34t-82.5 -43t-94 -35q-24 -129 -24 -147t2.5 -24.5t2.5 -7.5q0 -9 -15.5 -20t-30.5 -11q-29 0 -29 24q0 8 11.5 44.5t29.5 132.5q-52 -4 -84 22.5t-30.5 84t47.5 117.5t111 107q15 122 45 248q12 50 36 50q13 0 25 -14.5t9 -23.5 q-14 -45 -53 -220q52 27 86 27q14 0 29 -9t15 -20.5t-23 -11.5q-9 0 -20 1q-29 4 -98 -47q-8 -72 -35 -255q56 17 119 52.5t77.5 52.5t28 17t25 -10t11.5 -22zM260 347q-100 -95 -100 -161q0 -21 13 -36q17 -22 59 -19q13 82 28 216z" />
<glyph unicode="&#xa3;" d="M455 311l-174 -10q-1 -95 -22 -137q87 -4 146 -86q39 -54 79 -54q25 0 55 17q14 16 24 16t18 -11t8 -24.5t-16 -17.5q-23 -11 -75 -26q-11 -2 -21 -2q-36 0 -59.5 17t-50 49t-41.5 42q-37 25 -71 25t-51 -16q-34 -28 -102 -100q-9 -11 -24 -11q-30 0 -30 22q0 24 49 69 t89 80q34 35 40 146q-25 0 -90 -3q-18 -1 -30.5 9.5t-12.5 22.5q0 19 25 21q36 -1 108 1q1 191 54 270q40 58 114 58q20 0 50 -4q68 -11 63 -50q-5 -19 -20 -19q-11 0 -37 15q-27 10 -49 10q-123 0 -122 -279q45 1 86.5 1.5t49.5 6t19.5 5.5t21.5 -9.5t9.5 -25.5t-10.5 -18z " />
<glyph unicode="&#xa4;" horiz-adv-x="420" d="M342 206q30 -33 30 -42q0 -19 -31 -19q-43 0 -52 42q-1 6 -22 38q-65 -64 -125 -64q-10 0 -19 2q-8 -29 -50 -28q-28 1 -28 27q0 16 13 22q2 1 9 9q-18 19 -18 52q0 85 77 195l-44 64q-9 13 -9 22q0 15 30 15q22 0 59 -53q62 77 76 77q9 0 11.5 -13.5t3.5 -25.5 q12 0 50 -15q22 27 37 27q20 0 25 -25q1 -2 -25 -37q19 -31 19 -69q0 -70 -55 -141q17 -27 38 -60zM270 469q-12 8 -26 8q-27 0 -56 -30q12 -20 31 -48q29 41 51 70zM301 424l-53 -70q11 -17 31 -49q28 41 28 81q0 18 -6 38zM185 352q-12 18 -31 47q-50 -83 -50 -138 q0 -10 2 -17q28 37 79 108zM243 263l-29 45l-70 -96q42 -1 99 51z" />
<glyph unicode="&#xa5;" d="M331 263q183 81 209 81t26 -24q0 -14 -18.5 -24.5t-39.5 -10.5q-35 0 -174 -66q1 -10 1 -37q82 30 140.5 41t64 13.5t14.5 2.5q37 0 30 -33q-2 -11 -20.5 -25.5t-33.5 -14.5t-17 18q-1 6 -12 6t-125 -39q-13 -5 -39 -17q1 -35 14 -125q8 -14 8 -24q0 -21 -20.5 -24.5 t-33.5 9t-10 31.5q1 5 -8.5 47t-10.5 56q-24 -13 -49.5 -28t-99.5 -52q-6 -2 -15 -2t-14.5 11t-3.5 22q2 14 29 29q74 40 151 73l-1 32q-57 -27 -109.5 -51.5t-60.5 -34t-22.5 -9.5t-23.5 18q-3 4 -3 9q0 25 75 57l142 60q-3 39 -9 48l-108 186q-6 12 -31.5 50t-25.5 51 q0 26 20 26q27 0 66 -56q20 -28 53.5 -105t45.5 -74q13 4 194 220q29 29 59 65q6 30 31 30q10 0 20.5 -8t10.5 -18.5t-12 -24t-23.5 -14t-15.5 -4.5q-30 -24 -199 -266q-20 -26 -20 -45q0 -6 4 -36z" />
<glyph unicode="&#xa6;" horiz-adv-x="201" d="M135 731q2 -4 2 -9.5t-7 -51t-11.5 -122t-2.5 -87t8 -16t6 -16t-11 -25.5t-23.5 -15t-20 18t-7.5 141.5t17 187.5q5 21 21.5 21t28.5 -26zM122 -8q0 -31 -25 -31q-12 0 -23 9t-11 59q0 3 6.5 133.5t7.5 136.5q5 33 22 34t26.5 -10.5t7.5 -29.5q-20 -178 -22.5 -218.5 t4.5 -60.5t7 -22z" />
<glyph unicode="&#xa7;" horiz-adv-x="420" d="M24 313q0 100 110 158q-24 48 -24 85q0 61 59 111t111 50q15 0 26 -5q26 -14 26 -27.5t-13.5 -21.5t-22.5 -6q-27 6 -71 -14q-58 -27 -58 -84q0 -35 17 -67q32 5 38 -21q2 -14 -3 -22q7 -5 63 -45.5t77 -73.5q29 -47 29 -96q0 -72 -65 -144q-10 -11 -19 -18 q13 -36 13 -79q0 -106 -86 -155q-55 -31 -110 -29q-30 1 -36 3q-10 5 -9 23q0 31 39 31q9 0 19 -2q32 -7 76 24q54 40 54 111q0 32 -8 57q-23 11 -17 32q-22 30 -86.5 66.5t-86.5 57.5q-42 41 -42 101zM334 248q-7 44 -37 74q-16 16 -62.5 45.5t-68.5 54.5q-86 -33 -86 -102 q0 -20 7 -43q12 -39 81 -76q81 -46 108 -78q12 0 36.5 29t24.5 71q0 12 -3 25z" />
<glyph unicode="&#xa8;" horiz-adv-x="371" d="M342 644q13 -16 -7 -56t-22.5 -59.5t-9.5 -33.5q-10 -9 -19 -9q-18 0 -18 33t11.5 57.5t18.5 44.5l6 20q7 13 20 13t20 -10zM198 625q-1 -3 -9.5 -27t-9 -54t-7 -39t-24.5 -6q-14 3 -14 33q0 44 15 113q8 20 21 20q6 0 13 -3q22 -12 15 -37z" />
<glyph unicode="&#xa9;" horiz-adv-x="714" d="M579 571q71 -56 73.5 -152.5t-53 -198.5t-144.5 -171t-183 -69q-71 0 -131 58q-75 72 -75 192t81 224q50 64 97 92l18 18q9 10 28 17t47 20t52.5 22t52 10t38 -10t15.5 -12q42 -6 84 -40zM608 419q-5 135 -155 142q-74 3 -132.5 -28.5t-58.5 -88.5q0 -13 3 -27l6 -24 q0 -9 -8 -9q-20 -3 -32.5 21t-12.5 51q-13 -12 -27 -25q-30 -35 -53.5 -85.5t-23.5 -108.5q0 -108 60 -164q47 -45 107 -43q119 5 225 134.5t102 254.5zM309 214q23 0 57.5 19.5t50 38t24.5 18.5t18 -11.5t9 -21t-21 -26.5t-44 -35q-41 -33 -87 -33t-67 31q-13 18 -13 49 q0 59 39 116.5t93 57.5q9 0 17 -2q1 0 7.5 18.5t22.5 18.5q30 -2 30 -36q0 -7 -1.5 -11t-5.5 -58q-3 -32 -29 -33q-23 -1 -28.5 23t-10.5 24q-20 2 -52 -29t-34 -88q-2 -30 25 -30z" />
<glyph unicode="&#xaa;" horiz-adv-x="402" d="M305 424q-5 -5 -16 -4t-16.5 6t-9.5 17q-64 -38 -116 -38q-33 0 -52.5 18.5t-19.5 54t33.5 76t77.5 45.5q65 8 96 -70q11 30 11 70t-27 78q-18 25 -46.5 25t-54 -15t-24 -24t-12.5 -9q-24 0 -28.5 21.5t36.5 46t85 24.5q20 0 35 -6q86 -36 86 -149q0 -80 -38 -167z M341 360q18 -8 18 -20t-16 -21.5t-26.5 -9.5t-16 5.5t-8.5 6.5q-55 12 -185 -6q-27 -3 -34 0q-25 11 -25 25q0 19 23 23q41 8 141 8t129 -11zM246 490q-22 68 -48 64q-36 -6 -56 -31.5t-20 -49.5t28 -24q39 0 96 41z" />
<glyph unicode="&#xab;" horiz-adv-x="540" d="M318 316q10 -6 87 -43t89.5 -47t12.5 -23q0 -28 -18 -28q-9 0 -45 25t-96.5 51.5t-63.5 27.5q-43 23 -43 42q0 6 4 13t103.5 40.5t107 36.5t14.5 3q19 0 19 -22t-11 -25q-81 -19 -160 -51zM107 316q10 -6 87 -43t89.5 -47t12.5 -23q0 -28 -18 -28q-9 0 -45 25t-96.5 51.5 t-63.5 27.5q-43 23 -43 42q0 6 4 13t103.5 40.5t107 36.5t14.5 3q19 0 19 -22t-11 -25q-81 -19 -160 -51z" />
<glyph unicode="&#xac;" horiz-adv-x="1395" d="M1341 375l22 -14q16 0 16 -19q0 -9 -11 -24q0 -12 -14 -97q23 -4 23 -18q0 -28 -30 -30q-1 -6 -9 -35q-3 -11 -19 -11t-20.5 11t-4.5 29q-20 -1 -96 -6l-149 -11q-12 -11 -22.5 -11t-16 3.5t-9 3.5t-86.5 -8t-87 -8q1 0 -6.5 -12.5t-22.5 -12.5t-22 10l-7 10 q-25 -2 -84 -9t-63 -7q1 0 -6.5 -14.5t-20.5 -14.5t-20.5 7.5t-7.5 17.5q-50 -6 -163 -18q1 0 -6.5 -12t-23.5 -13.5t-26 20.5q-69 -5 -140 -16q-1 -15 -9 -28.5t-23.5 -11t-20 17.5t-2.5 15q-20 0 -83 -13q-32 -7 -32 46l4 108l2 34q-39 10 -36 31q0 17 22 17l32 -6 q21 0 72.5 6t55 6t8.5 5.5t8 5.5q20 0 23 -7l164 22q3 0 8 7.5t11 7.5q25 0 27 -8l177 18q5 5 17 11q11 1 17 -3t11 -4l152 6q3 0 8 6.5t18 6.5t19 -11l170 7l7 8q6 8 21 8t22 -17l230 2l9 8q8 8 23 8zM1020 315l-161 -10l-22 -125l166 16q17 110 17 119zM415 136l159 17 l31 139q-31 -3 -102 -11l-63 -8q-28 -137 -25 -137zM181 243q-81 -9 -96 -9l-6 -116q8 -2 19 -5q9 -6 12 -12q49 5 49 7z" />
<glyph unicode="&#xae;" horiz-adv-x="747" d="M690 320q0 -97 -74 -174.5t-174.5 -121t-170.5 -42.5q-126 2 -179 115q-30 63 -32 153t55.5 177.5t137.5 139.5t134 51q28 -1 37.5 -10t17.5 -14q118 -1 183.5 -80.5t64.5 -193.5zM641 340q-10 170 -143 198q-40 9 -47 3q-9 -8 -16 -1q-2 1 -9 1q-54 0 -74 -15 q-4 -3 -3 -6q6 -12 2.5 -22.5t-17 -11.5t-25 14t-18.5 25q-10 1 -55.5 -35t-78.5 -89q-45 -71 -47 -152q-3 -109 47 -167q41 -50 112 -54q51 -3 144.5 37t155.5 104q78 80 72 171zM496 231q13 -5 14.5 -19t-8.5 -19t-17 -4q-10 8 -42 18q-10 1 -56 1t-62.5 3t-18.5 3 q-8 0 -12 -28q0 -6 -8 -11t-16 -4q-23 2 -24 23q0 -11 6 94v57q0 29 7.5 35.5t20 4t8.5 -2.5t21.5 18.5t56.5 18.5q61 -2 61 -55q0 -29 -17.5 -50t-42 -38.5t-24.5 -20.5q1 -5 55 -7.5t69.5 -7t28.5 -9.5zM381 363q0 16 -16 16t-31.5 -14.5t-21.5 -44.5v-27q13 4 40 27 q29 27 29 43z" />
<glyph unicode="&#xaf;" horiz-adv-x="360" d="M332 529q-18 -9 -91 -18t-122 -9t-72 3.5t-23 22.5q0 14 24 28q5 4 43 1t103.5 -0.5t76.5 6t17 10.5t17 7t26.5 -9.5t15.5 -21t-15 -20.5z" />
<glyph unicode="&#xb0;" horiz-adv-x="285" d="M244 591q0 -55 -62 -113q-38 -36 -75 -36q-22 0 -38.5 11.5t-20 22.5t-3.5 24q0 73 83 168q27 30 36 30q12 0 16 -23q64 -9 64 -84zM168 629q-28 0 -59 -64q-16 -34 -16 -56q0 -28 26 -19t52 37t26 57q0 15 -8 30t-21 15z" />
<glyph unicode="&#xb1;" d="M562 436q1 -8 -7 -16.5t-18.5 -8.5t-16.5 1q-26 9 -205 -48l3 -188q2 -11 -3 -26t-16 -15t-20.5 5.5t-14.5 33.5q0 110 -3 172q-152 -53 -159.5 -59t-18.5 4t-11 20t4.5 18t183.5 70l-4 134q0 13 5.5 30.5t12.5 20t13 2.5q25 0 25 -51q0 -31 1 -119q34 11 106.5 29.5 t112.5 18.5q7 0 12 -0.5t13 -9t5 -18.5zM546 103.5q12 -9.5 12 -21.5t-15 -17t-56 -5l-47 1q-50 1 -103 -1t-134 -14t-88 -12q-31 0 -31 20q0 29 55 42q35 8 123 14.5t180 4.5t104 -11.5z" />
<glyph unicode="&#xb2;" horiz-adv-x="300" d="M283 347q48 10 48 -30q0 -22 -22 -26q-12 -1 -29 7q-8 1 -63 -10.5t-114.5 -35t-70.5 -21t-15.5 14.5t-2 20t39 53t68.5 89q101 137 101 183q0 16 -9 25q-21 19 -53 19t-62.5 -14.5t-43 -38.5t-34.5 -14q-12 5 -12 21.5t23 38.5q54 53 128 53q57 0 88 -34q22 -23 22 -55 q0 -56 -83 -172q-30 -40 -89 -119q44 14 70 22t115 24z" />
<glyph unicode="&#xb3;" horiz-adv-x="300" d="M282 425q-1 -93 -88 -161q-29 -23 -86 -53q-21 -12 -42 3.5t-21 24.5q0 15 33 8q7 -2 12 1t29 18q119 73 118 160q0 42 -58 60q-26 8 -64.5 12.5t-41.5 5.5q-27 14 -21 34q1 4 40.5 36t77.5 69q-107 -10 -119.5 -10t-21 8t-8.5 19.5t17 19.5q19 -1 102.5 5.5t92.5 -6.5 q3 -5 3 -11q0 -25 -63 -82q-16 -14 -49 -44q56 -4 96 -24q63 -32 62 -93z" />
<glyph unicode="&#xb4;" horiz-adv-x="462" d="M355 695q-1 -7 -33 -43q-57 -67 -129 -182q2 5 2 -10t-14 -26t-29 -11q-24 0 -19.5 26.5t73.5 133t109 143.5q8 8 21 8q24 0 19 -39z" />
<glyph unicode="&#xb6;" horiz-adv-x="450" d="M290 608q0 35 26 35q32 0 35 -40.5t-12.5 -99t-16.5 -62.5q-3 -49 -20 -117q21 14 34 14t23.5 -8.5t10.5 -19.5q0 -9 -31.5 -29t-56.5 -36q-7 -26 -8.5 -41t-3 -78.5t5.5 -63.5q2 0 12 2t16.5 -4t3.5 -20.5t-14.5 -30t-12.5 -16.5q-11 -19 -29 -19t-28 21q-4 8 -1 26 t3 38q-1 93 11 162q-32 -14 -68 -20q-11 -40 -7 -103l3 -21q0 -15 -21 -27q-6 -4 -14 -4t-15 10.5t-7 22.5q3 39 14 118q-16 0 -31 8q-30 18 -36 63q-12 93 111 203l10 59q5 41 10.5 82.5t18.5 43.5q14 2 28 -4t14 -18q3 -48 -21 -125q35 14 58 7q4 24 8 44q-2 -7 -2 48z M270 441q0 16 -11 16q-18 0 -51 -30q-4 -22 -29 -176q37 11 69 30q10 53 22 160zM149 370q-41 -47 -41 -91q0 -25 21 -32q8 54 20 123z" />
<glyph unicode="&#xb7;" horiz-adv-x="207" d="M144 261q0 -42 -39 -42q-36 0 -36 41q0 18 12.5 29.5t26.5 13.5t25 -10.5t11 -31.5z" />
<glyph unicode="&#xb8;" horiz-adv-x="321" d="M214 63l-4 -39q0 -24 14 -40.5t29 -33.5q15 -20 15 -36q0 -52 -58 -109q-39 -37 -71.5 -50.5t-38.5 -13.5q-25 0 -25 25q0 9 6.5 18t11.5 9t9.5 -0.5t7.5 -0.5q20 0 53 27q56 47 56 85q0 15 -11 25q-48 42 -50 87l-5 42q0 23 31 22t30 -17z" />
<glyph unicode="&#xb9;" horiz-adv-x="300" d="M223 681q13 -4 14 -12.5t-22.5 -185t-21.5 -188t5 -19t3 -17.5q-5 -25 -25 -25q-4 0 -14.5 3.5t-15 9t-4.5 16t4 22.5q-2 28 39 311q-115 -125 -126 -126q-7 -1 -12 8.5t-5 21.5t24 36l52 52q39 47 88 96q8 1 17 -3z" />
<glyph unicode="&#xba;" horiz-adv-x="402" d="M291 701q57 -39 57 -116.5t-61 -130.5t-123 -53q-49 0 -80 51q-19 32 -19 67t15 65q65 134 143 139q34 3 68 -22zM341 360q18 -8 18 -20t-16 -21.5t-26.5 -9.5t-16 5.5t-8.5 6.5q-55 12 -185 -6q-27 -3 -34 0q-25 11 -25 25q0 19 23 23q41 8 141 8t129 -11zM287 636 q-16 35 -57 38q-16 2 -40 -18q-40 -32 -68 -105q-5 -12 -5 -34t13.5 -45.5t38.5 -23.5t58 23q72 50 72 112q0 23 -12 53z" />
<glyph unicode="&#xbb;" horiz-adv-x="540" d="M305.5 411q7.5 -3 107.5 -36.5t103.5 -40.5t3.5 -13q0 -19 -43 -42q-2 -1 -62.5 -27.5t-97 -51.5t-44.5 -25q-18 0 -18 28q0 13 6 18q19 15 79 45q93 44 104 50q-37 15 -161 51q-11 3 -11 25t20 22q6 0 13.5 -3zM69 411q7 -3 107 -36.5t104 -40.5t4 -13q0 -19 -43 -42 q-3 -1 -63.5 -27.5t-97 -51.5t-44.5 -25q-18 0 -18 28q0 13 6 18q19 15 95.5 52t87.5 43q-36 15 -160 51q-11 3 -11 25t19 22q7 0 14 -3z" />
<glyph unicode="&#xbc;" horiz-adv-x="786" d="M722 187q-37 5 -83 2l-16 -121q-7 -61 -7 -69q8 -15 8 -30q0 -27 -22 -27q-7 0 -15 3q-27 9 -27 34q0 9 3 18t28 186l-90 -15t-99.5 -8.5t-15.5 18.5t6 18q31 32 91 104q15 21 31 54t31.5 64.5t26.5 31.5t19 -11t8 -22t-7 -22.5t-63 -111.5q-18 -33 -56 -71q42 7 124 18 q17 126 23 145t15 22q13 3 24.5 -10.5t8.5 -25.5q0 -7 -7 -37t-16 -94q45 -2 71 -7t26 -19q0 -19 -20 -17zM552 652q-34 -16 -58 -66q-242 -511 -243 -578q0 -29 -20.5 -36t-27.5 3q-3 7 -8 20q-3 17 8 30q21 55 48 121l8 23q77 191 184 422q45 97 90 113q6 3 12 3 q29 0 29 -33q0 -11 -7.5 -15t-14.5 -7zM217 681q11 -4 12 -12.5t-22 -185t-21.5 -188t4.5 -19t3 -17.5q-5 -25 -25 -25q-4 0 -14.5 3.5t-14.5 8.5q-9 14 -1 39q0 43 39 311q-115 -125 -126 -126q-6 -1 -11.5 8.5t-5.5 21.5t24.5 36t51.5 52q39 47 88 96q8 1 19 -3z" />
<glyph unicode="&#xbd;" horiz-adv-x="786" d="M698 62q48 9 48 -30q0 -21 -22 -26q-8 -1 -17.5 3t-14.5 5t-59.5 -11t-114.5 -35.5t-70.5 -21t-15.5 14.5t-2.5 20t39 53t68.5 89q102 137 102 183q0 16 -10 25q-21 19 -53 19t-62.5 -14t-43 -38.5t-34.5 -14.5q-12 5 -12 21.5t22 39.5q53 52 129 52q57 0 88 -34 q22 -23 22 -55q0 -56 -83 -172q-30 -40 -89 -119q44 15 70 22.5t115 23.5zM554 652q-34 -16 -58 -66q-243 -511 -243 -578q-1 -29 -21 -36t-27 3q-3 7 -8 20q-3 17 8 30q21 54 47 120l9 24q77 191 184 422q45 97 90 113q6 3 12 3q29 0 29 -33q0 -11 -7.5 -15t-14.5 -7z M217 681q13 -4 14 -12.5t-22.5 -185t-21.5 -188t5 -19t3 -17.5q-5 -25 -25 -25q-4 0 -14.5 3.5t-15 9t-4.5 16t4 22.5q-2 28 39 311q-115 -125 -126 -126q-7 -1 -12 8.5t-5 21.5t24 36l52 52q39 47 88 96q8 1 17 -3z" />
<glyph unicode="&#xbe;" horiz-adv-x="786" d="M722 187q-37 5 -83 2l-16 -121q-7 -61 -7 -69q8 -15 8 -30q0 -27 -22 -27q-7 0 -15 3q-27 9 -27 34q0 9 3 18t28 186l-90 -15t-99.5 -8.5t-15.5 18.5t6 18q31 32 91 104q15 21 31 54t31.5 64.5t26.5 31.5t19 -11t8 -22t-7 -22.5t-63 -111.5q-18 -33 -56 -71q42 7 124 18 q17 126 23 145t15 22q12 3 24 -10.5t9 -25.5q0 -7 -7 -37t-16 -94q45 -2 71 -7t26 -19q0 -19 -20 -17zM552 652q-34 -16 -58 -66q-242 -511 -243 -578q0 -29 -20.5 -36t-27.5 3q-3 7 -8 20q-3 17 8 30q21 55 47 121l9 23q77 191 184 422q45 97 90 113q6 3 12 3q29 0 29 -33 q0 -11 -7.5 -15t-14.5 -7zM279 425q-1 -93 -87 -161q-29 -23 -86 -53q-22 -12 -42.5 3.5t-20.5 24.5q0 15 33 8q6 -2 11 1t29 18q119 73 118 160q0 42 -58 60q-25 8 -63.5 12.5t-41.5 5.5q-28 14 -22 34q2 4 41.5 36t77.5 69q-108 -10 -120 -10t-21 8t-9 19.5t18 19.5 q19 -1 102 5.5t92 -6.5q4 -5 4 -11q0 -25 -63 -82q-17 -14 -50 -44q57 -4 96 -24q63 -32 62 -93z" />
<glyph unicode="&#xbf;" horiz-adv-x="567" d="M414 656q-1 -38 -31 -41q-16 -1 -29 8.5t-12.5 27t12 31.5t25.5 14q36 -2 35 -40zM413 465l-4 -27q7 -21 26.5 -56.5t29 -66t5.5 -78.5q-130 -49 -228 -117q-158 -111 -158 -197q0 -15 4 -31q12 -43 92.5 -43t162.5 28t99 61q14 26 36.5 26t26.5 -17q6 -24 -43.5 -57.5 t-121 -62.5t-153.5 -29q-141 0 -157 83q-3 15 -3 30q0 151 284 310l100 56q1 34 -27 81q-38 63 -38 94q0 44 32 44q4 0 8 -1q27 -6 27 -30z" />
<glyph unicode="&#xc0;" horiz-adv-x="609" d="M635 344q2 -35 -36 -35q-9 0 -15 3l-129 -38l67 -285q23 -19 23 -35.5t-20 -27.5q-5 -2 -15 -2t-24 12.5t-11 24.5l-71 296q-49 -14 -169 -52q-35 -13 -109 -40q-18 -35 -41 -102q-3 -17 -6 -32q-5 -23 -26.5 -23t-27.5 17q-7 23 38 132q-30 5 -30 33q0 7 2 15 q4 15 59 30l205 448q14 32 38 32q18 0 26 -38q3 -30 23 -121q10 -37 59 -237l140 42q14 6 26 6q22 0 24 -23zM393 302q-37 148 -77 274q-99 -187 -160 -331q39 7 123 27t114 30zM462 753q0 -22 -19 -22q-5 0 -12 2q-24 8 -119.5 91t-127.5 128q-5 7 -5 18q0 20 23 20 q8 0 17 -2.5t40 -38.5q36 -41 90 -92.5t72 -60.5l15 -1q10 0 18 -14t8 -28z" />
<glyph unicode="&#xc1;" horiz-adv-x="609" d="M635 344q2 -35 -36 -35q-9 0 -15 3l-129 -38l67 -285q23 -19 23 -35.5t-20 -27.5q-5 -2 -15 -2t-24 12.5t-11 24.5l-71 296q-49 -14 -169 -52q-35 -13 -109 -40q-18 -35 -41 -102q-3 -17 -6 -32q-5 -23 -26.5 -23t-27.5 17q-7 23 38 132q-30 5 -30 33q0 7 2 15 q4 15 59 30l205 448q14 32 38 32q18 0 26 -38q3 -30 23 -121q10 -37 59 -237l140 42q14 6 26 6q22 0 24 -23zM393 302q-37 148 -77 274q-99 -187 -160 -331q39 7 123 27t114 30zM475 1015q-1 -7 -33 -43q-57 -67 -129 -182q2 5 2 -10t-14 -26t-29 -11q-24 0 -19.5 26.5 t73.5 133t109 143.5q8 8 21 8q24 0 19 -39z" />
<glyph unicode="&#xc2;" horiz-adv-x="609" d="M635 344q2 -35 -36 -35q-9 0 -15 3l-129 -38l67 -285q23 -19 23 -35.5t-20 -27.5q-5 -2 -15 -2t-24 12.5t-11 24.5l-71 296q-49 -14 -169 -52q-35 -13 -109 -40q-18 -35 -41 -102q-3 -17 -6 -32q-5 -23 -26.5 -23t-27.5 17q-7 23 38 132q-30 5 -30 33q0 7 2 15 q4 15 59 30l205 448q14 32 38 32q18 0 26 -38q3 -30 23 -121q10 -37 59 -237l140 42q14 6 26 6q22 0 24 -23zM393 302q-37 148 -77 274q-99 -187 -160 -331q39 7 123 27t114 30zM441 774q8 -6 8 -26.5t-23 -20.5t-46 44q-12 22 -23 45q-6 1 -52.5 -36t-49.5 -48 q-7 -23 -27 -23q-10 0 -18 12t-8 24t13 22q46 46 93.5 83t53.5 42q6 3 19 -1q22 -6 24 -30q5 -61 36 -87z" />
<glyph unicode="&#xc3;" horiz-adv-x="609" d="M635 344q2 -35 -36 -35q-9 0 -15 3l-129 -38l67 -285q23 -19 23 -35.5t-20 -27.5q-5 -2 -15 -2t-24 12.5t-11 24.5l-71 296q-49 -14 -169 -52q-35 -13 -109 -40q-18 -35 -41 -102q-3 -17 -6 -32q-5 -23 -26.5 -23t-27.5 17q-7 23 38 132q-30 5 -30 33q0 7 2 15 q4 15 59 30l205 448q14 32 38 32q18 0 26 -38q3 -30 23 -121q10 -37 59 -237l140 42q14 6 26 6q22 0 24 -23zM393 302q-37 148 -77 274q-99 -187 -160 -331q39 7 123 27t114 30zM590 838q0 -6 -1.5 -11t-20 -11t-67 -55t-88.5 -49q-25 0 -33 19q-6 29 -15 64.5t-29.5 39 t-60 -23t-58 -57.5t-28.5 -31q-22 0 -22 21q0 13 16 39.5t65 66t97 39.5q24 0 43 -30t27 -73q4 -16 18 -16t61 49t68 47q28 -3 28 -28z" />
<glyph unicode="&#xc4;" horiz-adv-x="609" d="M635 344q2 -35 -36 -35q-9 0 -15 3l-129 -38l67 -285q23 -19 23 -35.5t-20 -27.5q-5 -2 -15 -2t-24 12.5t-11 24.5l-71 296q-49 -14 -169 -52q-35 -13 -109 -40q-18 -35 -41 -102q-3 -17 -6 -32q-5 -23 -26.5 -23t-27.5 17q-7 23 38 132q-30 5 -30 33q0 7 2 15 q4 15 59 30l205 448q14 32 38 32q18 0 26 -38q3 -30 23 -121q10 -37 59 -237l140 42q14 6 26 6q22 0 24 -23zM393 302q-37 148 -77 274q-99 -187 -160 -331q39 7 123 27t114 30zM462 894q13 -16 -7 -56t-22.5 -59.5t-9.5 -33.5q-10 -9 -19 -9q-18 0 -18 33t11.5 57.5 t18.5 44.5l6 20q7 13 20 13t20 -10zM318 875q-1 -3 -9.5 -27t-9 -54t-7 -39t-24.5 -6q-14 3 -14 33q0 44 15 113q8 20 21 20q6 0 13 -3q22 -12 15 -37z" />
<glyph unicode="&#xc5;" horiz-adv-x="609" d="M635 344q2 -35 -36 -35q-9 0 -15 3l-129 -38l67 -285q23 -19 23 -35.5t-20 -27.5q-5 -2 -15 -2t-24 12.5t-11 24.5l-71 296q-49 -14 -169 -52q-35 -13 -109 -40q-18 -35 -41 -102q-3 -17 -6 -32q-5 -23 -26.5 -23t-27.5 17q-7 23 38 132q-30 5 -30 33q0 7 2 15 q4 15 59 30l205 448q14 32 38 32q18 0 26 -38q3 -30 23 -121q10 -37 59 -237l140 42q14 6 26 6q22 0 24 -23zM393 302q-37 148 -77 274q-99 -187 -160 -331q39 7 123 27t114 30zM452 924q13 -10 13 -37t-32 -63q-52 -59 -97 -59q-11 0 -24 4q-31 8 -31 51q0 29 15 61 q28 64 91 64q39 0 65 -21zM423 885q0 16 -29.5 16t-47.5 -18q-6 -6 -13 -25t-7 -33q0 -21 18 -17.5t48.5 31.5t30.5 46z" />
<glyph unicode="&#xc6;" horiz-adv-x="819" d="M626 677q-76 -20 -277 -106q5 -24 11 -46.5t49 -201.5q324 121 349.5 114.5t25.5 -21.5q0 -10 -9.5 -17.5t-22.5 -8t-35 -5t-296 -114.5l61 -256q58 23 213 80t182 57q1 0 14 -6q26 -11 26 -22q0 -3 -1.5 -4.5t-44.5 -12t-157 -57t-212 -91.5q15 -15 15 -29.5t-20 -25.5 q-5 -2 -14.5 -2t-23 12t-12.5 24q-30 10 -30 32q0 10 5.5 14.5t11.5 9.5l-62 257q-117 -50 -271 -110q-36 -86 -38.5 -102.5t-4.5 -30.5q-4 -23 -26 -23t-28 17q-8 29 37 130l12 26q-11 21 15 35l157 348q-11 9 -11 24.5t7.5 21t28.5 11.5l24 53q14 31 37 31q20 0 26 -37 q1 -8 3 -22q14 5 79 32t141 50.5t107.5 23.5t31.5 -22q0 -10 -11.5 -23.5t-31.5 -13.5t-30 7zM359 304q-33 132 -68 241q-50 -92 -84 -162q-18 -33 -73 -162q12 4 225 83z" />
<glyph unicode="&#xc7;" horiz-adv-x="729" d="M479 695q33 0 33 -33q0 -24 -59 -36t-153 -89t-163 -175.5t-69 -170.5t55 -108q30 -20 82 -20q106 0 294 84q92 45 184 91q38 17 54.5 17t23.5 -13t7 -20q0 -30 -58 -36q-12 -2 -119 -51.5t-185 -77.5q-10 -49 7.5 -69.5t32.5 -38.5t15 -35q0 -51 -59 -109 q-38 -37 -70.5 -50.5t-38.5 -13.5q-25 0 -25 25q0 9 6.5 18t11.5 9t9 -0.5t7 -0.5q21 0 54 27q56 47 56 85q0 15 -12 25q-47 42 -49 87q0 7 -3 22q-90 -27 -157 -27t-106 31q-73 57 -73 146q0 131 138.5 285t275.5 209q32 13 53 13z" />
<glyph unicode="&#xc8;" horiz-adv-x="648" d="M741.5 248.5q-1.5 -1.5 -70 -19t-208.5 -78t-252 -119.5t-118 -57q-14 5 -29.5 26.5t-19 38t2.5 60.5t11 175t5 179t-1 53t-8.5 24.5t-7.5 30t14 18.5t27.5 8t25.5 -7l300 112q99 31 131 31t32 -22q0 -11 -12 -24.5t-32 -13.5t-30 7q-158 -46 -218 -77q-29 -15 -161 -69 q4 -78 0 -100q-1 -30 -8 -98q278 121 304.5 115.5t26.5 -21.5q0 -11 -9 -20t-22.5 -11t-43 -14t-110 -43t-148.5 -75q-11 -133 -9.5 -165t1.5 -45q114 62 330 146t266 84q9 0 15 -3q27 -9 27 -22q0 -3 -1.5 -4.5zM402 733q0 -22 -19 -22q-5 0 -12 2q-24 8 -119.5 91 t-127.5 128q-5 7 -5 18q0 20 23 20q8 0 17 -2.5t40 -38.5q36 -41 90 -92.5t72 -60.5l15 -1q10 0 18 -14t8 -28z" />
<glyph unicode="&#xc9;" horiz-adv-x="648" d="M741.5 248.5q-1.5 -1.5 -70 -19t-208.5 -78t-252 -119.5t-118 -57q-14 5 -29.5 26.5t-19 38t2.5 60.5t11 175t5 179t-1 53t-8.5 24.5t-7.5 30t14 18.5t27.5 8t25.5 -7l300 112q99 31 131 31t32 -22q0 -11 -12 -24.5t-32 -13.5t-30 7q-158 -46 -218 -77q-29 -15 -161 -69 q4 -78 0 -100q-1 -30 -8 -98q278 121 304.5 115.5t26.5 -21.5q0 -11 -9 -20t-22.5 -11t-43 -14t-110 -43t-148.5 -75q-11 -133 -9.5 -165t1.5 -45q114 62 330 146t266 84q9 0 15 -3q27 -9 27 -22q0 -3 -1.5 -4.5zM435 935q-1 -7 -33 -43q-57 -67 -129 -182q2 5 2 -10 t-14 -26t-29 -11q-24 0 -19.5 26.5t73.5 133t109 143.5q8 8 21 8q24 0 19 -39z" />
<glyph unicode="&#xca;" horiz-adv-x="648" d="M741.5 248.5q-1.5 -1.5 -70 -19t-208.5 -78t-252 -119.5t-118 -57q-14 5 -29.5 26.5t-19 38t2.5 60.5t11 175t5 179t-1 53t-8.5 24.5t-7.5 30t14 18.5t27.5 8t25.5 -7l300 112q99 31 131 31t32 -22q0 -11 -12 -24.5t-32 -13.5t-30 7q-158 -46 -218 -77q-29 -15 -161 -69 q4 -78 0 -100q-1 -30 -8 -98q278 121 304.5 115.5t26.5 -21.5q0 -11 -9 -20t-22.5 -11t-43 -14t-110 -43t-148.5 -75q-11 -133 -9.5 -165t1.5 -45q114 62 330 146t266 84q9 0 15 -3q27 -9 27 -22q0 -3 -1.5 -4.5zM417 796q8 -6 8 -26.5t-23 -20.5t-46 44q-12 22 -23 45 q-6 1 -52.5 -36t-49.5 -48q-7 -23 -27 -23q-10 0 -18 12t-8 24t13 22q46 46 93.5 83t53.5 42q6 3 19 -1q22 -6 24 -30q5 -61 36 -87z" />
<glyph unicode="&#xcb;" horiz-adv-x="648" d="M741.5 248.5q-1.5 -1.5 -70 -19t-208.5 -78t-252 -119.5t-118 -57q-14 5 -29.5 26.5t-19 38t2.5 60.5t11 175t5 179t-1 53t-8.5 24.5t-7.5 30t14 18.5t27.5 8t25.5 -7l300 112q99 31 131 31t32 -22q0 -11 -12 -24.5t-32 -13.5t-30 7q-158 -46 -218 -77q-29 -15 -161 -69 q4 -78 0 -100q-1 -30 -8 -98q278 121 304.5 115.5t26.5 -21.5q0 -11 -9 -20t-22.5 -11t-43 -14t-110 -43t-148.5 -75q-11 -133 -9.5 -165t1.5 -45q114 62 330 146t266 84q9 0 15 -3q27 -9 27 -22q0 -3 -1.5 -4.5zM437 892q13 -16 -7 -56t-22.5 -59.5t-9.5 -33.5 q-10 -9 -19 -9q-18 0 -18 33t11.5 57.5t18.5 44.5l6 20q7 13 20 13t20 -10zM293 873q-1 -3 -9.5 -27t-9 -54t-7 -39t-24.5 -6q-14 3 -14 33q0 44 15 113q8 20 21 20q6 0 13 -3q22 -12 15 -37z" />
<glyph unicode="&#xcc;" horiz-adv-x="234" d="M273 714q0 -22 -19 -22q-5 0 -12 2q-24 8 -119.5 91t-127.5 128q-5 7 -5 18q0 20 23 20q8 0 17 -2.5t40 -38.5q36 -41 90 -92.5t72 -60.5l15 -1q10 0 18 -14t8 -28zM165 684q14 -5 14 -41.5t-11.5 -124.5t-14 -118t-7.5 -173.5t-7 -164.5q18 -25 18 -42.5t-12 -26 t-30 -8.5t-27 20q-4 11 -4 91t9 251.5t13.5 212t9.5 86.5q7 43 31 43q8 0 18 -5z" />
<glyph unicode="&#xcd;" horiz-adv-x="234" d="M280 972q-1 -7 -33 -43q-57 -67 -129 -182q2 5 2 -10t-14 -26t-29 -11q-24 0 -19.5 26.5t73.5 133t109 143.5q8 8 21 8q24 0 19 -39zM165 684q14 -5 14 -41.5t-11.5 -124.5t-14 -118t-7.5 -173.5t-7 -164.5q18 -25 18 -42.5t-12 -26t-30 -8.5t-27 20q-4 11 -4 91t9 251.5 t13.5 212t9.5 86.5q7 43 31 43q8 0 18 -5z" />
<glyph unicode="&#xce;" horiz-adv-x="234" d="M262 767q8 -6 8 -26.5t-23 -20.5t-46 44q-12 22 -23 45q-6 1 -52.5 -36t-49.5 -48q-7 -23 -27 -23q-10 0 -18 12t-8 24t13 22q46 46 93.5 83t53.5 42q6 3 19 -1q22 -6 24 -30q5 -61 36 -87zM165 684q14 -5 14 -41.5t-11.5 -124.5t-14 -118t-7.5 -173.5t-7 -164.5 q18 -25 18 -42.5t-12 -26t-30 -8.5t-27 20q-4 11 -4 91t9 251.5t13.5 212t9.5 86.5q7 43 31 43q8 0 18 -5z" />
<glyph unicode="&#xcf;" horiz-adv-x="234" d="M274 889q13 -16 -7 -56t-22.5 -59.5t-9.5 -33.5q-10 -9 -19 -9q-18 0 -18 33t11.5 57.5t18.5 44.5l6 20q7 13 20 13t20 -10zM130 870q-1 -3 -9.5 -27t-9 -54t-7 -39t-24.5 -6q-14 3 -14 33q0 44 15 113q8 20 21 20q6 0 13 -3q22 -12 15 -37zM165 684q14 -5 14 -41.5 t-11.5 -124.5t-14 -118t-7.5 -173.5t-7 -164.5q18 -25 18 -42.5t-12 -26t-30 -8.5t-27 20q-4 11 -4 91t9 251.5t13.5 212t9.5 86.5q7 43 31 43q8 0 18 -5z" />
<glyph unicode="&#xd0;" horiz-adv-x="663" d="M679 465q1 -113 -186 -260q-90 -71 -319 -209q-5 -2 -15 -22t-30 -21q-4 0 -8 4t-6.5 3.5t-10.5 1.5q-18 18 -9 49q4 12 7 25q-13 171 -12 267q-54 -15 -85 -19q-9 0 -19 5.5t-10 16.5t16 28q5 4 35 9t65 14q5 92 17 268l-75 -26q-13 -2 -26.5 9.5t-13.5 24.5t13 21 q27 17 94.5 31.5t134.5 15.5q171 4 306.5 -66.5t136.5 -169.5zM619 461q0 81 -123 139q-111 52 -229 51q-66 -1 -91 -10q-17 -145 -26 -267q48 14 65 24l8 13q5 8 22 8q40 1 40 -24q0 -9 -11 -19q-21 -19 -127 -55l-2 -46q-4 -102 17 -220q110 61 194 118q204 138 250 238 q13 27 13 50z" />
<glyph unicode="&#xd1;" horiz-adv-x="612" d="M522 407l-6 -133q0 -64 10 -140q10 -20 10 -37t-8 -27q2 -12 2 -24q0 -45 -30 -41t-30 45q0 14 3 28q-15 10 -53 34q-46 27 -174 228q-45 70 -95 186q-51 -346 -51 -442q0 -24 6.5 -31t6.5 -46q0 -60 -31 -60q-11 0 -25 9q-6 4 -6 62.5t12 201.5t18.5 182.5t9.5 147.5 t12.5 123t24.5 15t24 -14q21 -34 51.5 -124.5t63.5 -148.5q106 -187 162 -226q12 -9 40 -21q-6 312 0 391q1 17 1 34l-5 92q0 34 31 34q35 0 35 -115q0 -39 -4.5 -105.5t-4.5 -77.5zM546 856q0 -6 -1.5 -11t-20 -11t-67 -55t-88.5 -49q-25 0 -33 19q-6 29 -15 64.5t-29.5 39 t-60 -23t-58 -57.5t-28.5 -31q-22 0 -22 21q0 13 16 39.5t65 66t97 39.5q24 0 43 -30t27 -73q4 -16 18 -16t61 49t68 47q28 -3 28 -28z" />
<glyph unicode="&#xd2;" horiz-adv-x="696" d="M702 389q-4 -68 -87.5 -162.5t-201.5 -163t-217 -68.5q-47 0 -84 17q-97 45 -97 171q0 147 111 308.5t216 163.5q72 2 100 -33q269 -51 260 -233zM643 391q4 120 -140 161q-60 16 -145 16q-3 -1 -24.5 -17t-38.5 -13.5t-25 12.5l-8 9q-84 -68 -137.5 -175.5t-53.5 -195 t52 -115.5q36 -20 83 -20q87 0 189 60t174 141.5t74 136.5zM513 706q0 -22 -19 -22q-5 0 -12 2q-24 8 -119.5 91t-127.5 128q-5 7 -5 18q0 20 23 20q8 0 17 -2.5t40 -38.5q36 -41 90 -92.5t72 -60.5l15 -1q10 0 18 -14t8 -28z" />
<glyph unicode="&#xd3;" horiz-adv-x="696" d="M702 389q-4 -68 -87.5 -162.5t-201.5 -163t-217 -68.5q-47 0 -84 17q-97 45 -97 171q0 147 111 308.5t216 163.5q72 2 100 -33q269 -51 260 -233zM643 391q4 120 -140 161q-60 16 -145 16q-3 -1 -24.5 -17t-38.5 -13.5t-25 12.5l-8 9q-84 -68 -137.5 -175.5t-53.5 -195 t52 -115.5q36 -20 83 -20q87 0 189 60t174 141.5t74 136.5zM576 967q-1 -7 -33 -43q-57 -67 -129 -182q2 5 2 -10t-14 -26t-29 -11q-24 0 -19.5 26.5t73.5 133t109 143.5q8 8 21 8q24 0 19 -39z" />
<glyph unicode="&#xd4;" horiz-adv-x="696" d="M702 389q-4 -68 -87.5 -162.5t-201.5 -163t-217 -68.5q-47 0 -84 17q-97 45 -97 171q0 147 111 308.5t216 163.5q72 2 100 -33q269 -51 260 -233zM643 391q4 120 -140 161q-60 16 -145 16q-3 -1 -24.5 -17t-38.5 -13.5t-25 12.5l-8 9q-84 -68 -137.5 -175.5t-53.5 -195 t52 -115.5q36 -20 83 -20q87 0 189 60t174 141.5t74 136.5zM495 772q8 -6 8 -26.5t-23 -20.5t-46 44q-12 22 -23 45q-6 1 -52.5 -36t-49.5 -48q-7 -23 -27 -23q-10 0 -18 12t-8 24t13 22q46 46 93.5 83t53.5 42q6 3 19 -1q22 -6 24 -30q5 -61 36 -87z" />
<glyph unicode="&#xd5;" horiz-adv-x="696" d="M702 389q-4 -68 -87.5 -162.5t-201.5 -163t-217 -68.5q-47 0 -84 17q-97 45 -97 171q0 147 111 308.5t216 163.5q72 2 100 -33q269 -51 260 -233zM643 391q4 120 -140 161q-60 16 -145 16q-3 -1 -24.5 -17t-38.5 -13.5t-25 12.5l-8 9q-84 -68 -137.5 -175.5t-53.5 -195 t52 -115.5q36 -20 83 -20q87 0 189 60t174 141.5t74 136.5zM636 818q0 -6 -1.5 -11t-20 -11t-67 -55t-88.5 -49q-25 0 -33 19q-6 29 -15 64.5t-29.5 39t-60 -23t-58 -57.5t-28.5 -31q-22 0 -22 21q0 13 16 39.5t65 66t97 39.5q24 0 43 -30t27 -73q4 -16 18 -16t61 49t68 47 q28 -3 28 -28z" />
<glyph unicode="&#xd6;" horiz-adv-x="696" d="M702 389q-4 -68 -87.5 -162.5t-201.5 -163t-217 -68.5q-47 0 -84 17q-97 45 -97 171q0 147 111 308.5t216 163.5q72 2 100 -33q269 -51 260 -233zM643 391q4 120 -140 161q-60 16 -145 16q-3 -1 -24.5 -17t-38.5 -13.5t-25 12.5l-8 9q-84 -68 -137.5 -175.5t-53.5 -195 t52 -115.5q36 -20 83 -20q87 0 189 60t174 141.5t74 136.5zM548 875q13 -16 -7 -56t-22.5 -59.5t-9.5 -33.5q-10 -9 -19 -9q-18 0 -18 33t11.5 57.5t18.5 44.5l6 20q7 13 20 13t20 -10zM404 856q-1 -3 -9.5 -27t-9 -54t-7 -39t-24.5 -6q-14 3 -14 33q0 44 15 113q8 20 21 20 q6 0 13 -3q22 -12 15 -37z" />
<glyph unicode="&#xd7;" d="M485 6q2 -7 -11 -11.5t-31 -2.5q-32 4 -40 42q-2 8 -75 120q-91 -124 -90 -127q3 -13 -5 -26q-12 -21 -43 -20t-31 27q0 16 11.5 22t128.5 169q-46 67 -103 152q-9 13 -9 21q0 16 27 16t60 -51t59 -91q95 134 110 137q6 2 11 2q20 0 25 -26q1 -1 -117 -158 q43 -69 94 -148q10 -12 20 -25t9 -22z" />
<glyph unicode="&#xd8;" horiz-adv-x="696" d="M702 389q-4 -68 -87.5 -162.5t-201.5 -163t-217 -68.5q-27 0 -50 5q-13 -29 -11.5 -43.5t-12 -30.5t-27.5 -16t-22.5 14t-8.5 27.5t29 70.5q-78 48 -78 161q0 147 111 308.5t216 163.5q72 2 100 -33q28 -5 52 -12q17 21 29 36q35 42 54 42t28 -21q5 -11 -48 -77 q152 -62 145 -201zM643 391q4 112 -122 155q-75 -93 -127.5 -167t-100.5 -140q-79 -113 -119 -183q16 -3 32 -3q87 0 188.5 60t174 141.5t74.5 136.5zM457 562q-51 8 -99 6q-3 -1 -24.5 -17t-38.5 -13.5t-25 12.5l-8 9q-84 -68 -137.5 -175.5t-53.5 -194t49 -115.5 q20 34 99.5 154.5t122 178t115.5 155.5z" />
<glyph unicode="&#xd9;" horiz-adv-x="660" d="M615 614l-4 55q0 39 26 40q47 1 47 -34q0 5 -7 -50q-27 -207 -132 -393q-137 -241 -320 -238q-70 1 -121.5 124t-53.5 268t2 218q2 53 48 49q17 -2 21.5 -10.5t1 -55t-10.5 -250.5q-1 -97 42.5 -195t96.5 -93q112 12 203 139q71 97 114.5 230.5t46.5 195.5zM516 695 q0 -22 -19 -22q-5 0 -12 2q-24 8 -119.5 91t-127.5 128q-5 7 -5 18q0 20 23 20q8 0 17 -2.5t40 -38.5q36 -41 90 -92.5t72 -60.5l15 -1q10 0 18 -14t8 -28z" />
<glyph unicode="&#xda;" horiz-adv-x="660" d="M615 614l-4 55q0 39 26 40q47 1 47 -34q0 5 -7 -50q-27 -207 -132 -393q-137 -241 -320 -238q-70 1 -121.5 124t-53.5 268t2 218q2 53 48 49q17 -2 21.5 -10.5t1 -55t-10.5 -250.5q-1 -97 42.5 -195t96.5 -93q112 12 203 139q71 97 114.5 230.5t46.5 195.5zM534 980 q-1 -7 -33 -43q-57 -67 -129 -182q2 5 2 -10t-14 -26t-29 -11q-24 0 -19.5 26.5t73.5 133t109 143.5q8 8 21 8q24 0 19 -39z" />
<glyph unicode="&#xdb;" horiz-adv-x="660" d="M615 614l-4 55q0 39 26 40q47 1 47 -34q0 5 -7 -50q-27 -207 -132 -393q-137 -241 -320 -238q-70 1 -121.5 124t-53.5 268t2 218q2 53 48 49q17 -2 21.5 -10.5t1 -55t-10.5 -250.5q-1 -97 42.5 -195t96.5 -93q112 12 203 139q71 97 114.5 230.5t46.5 195.5zM496 787 q8 -6 8 -26.5t-23 -20.5t-46 44q-12 22 -23 45q-6 1 -52.5 -36t-49.5 -48q-7 -23 -27 -23q-10 0 -18 12t-8 24t13 22q46 46 93.5 83t53.5 42q6 3 19 -1q22 -6 24 -30q5 -61 36 -87z" />
<glyph unicode="&#xdc;" horiz-adv-x="660" d="M615 614l-4 55q0 39 26 40q47 1 47 -34q0 5 -7 -50q-27 -207 -132 -393q-137 -241 -320 -238q-70 1 -121.5 124t-53.5 268t2 218q2 53 48 49q17 -2 21.5 -10.5t1 -55t-10.5 -250.5q-1 -97 42.5 -195t96.5 -93q112 12 203 139q71 97 114.5 230.5t46.5 195.5zM494 870 q13 -16 -7 -56t-22.5 -59.5t-9.5 -33.5q-10 -9 -19 -9q-18 0 -18 33t11.5 57.5t18.5 44.5l6 20q7 13 20 13t20 -10zM350 851q-1 -3 -9.5 -27t-9 -54t-7 -39t-24.5 -6q-14 3 -14 33q0 44 15 113q8 20 21 20q6 0 13 -3q22 -12 15 -37z" />
<glyph unicode="&#xdd;" horiz-adv-x="526" d="M568 680q0 -10 -19.5 -22.5t-20.5 -15.5q-22 -44 -269 -257q6 -46 2 -155.5t8 -208.5q1 -5 7.5 -22t6.5 -29t-11.5 -19t-25 -7t-25 14t-8.5 30t-4 73t-9 120.5t-5 142.5q-11 5 -26 17q-13 42 -25 85q-27 82 -64 142q-13 21 -34.5 31.5t-21.5 25.5q0 23 23.5 23t46 -13 t34.5 -34q24 -42 80 -181q205 157 279 249q9 12 21 26.5t24 14.5t24 -10t12 -20zM443 856q-1 -7 -33 -43q-57 -67 -129 -182q2 5 2 -10t-14 -26t-29 -11q-24 0 -19.5 26.5t73.5 133t109 143.5q8 8 21 8q24 0 19 -39z" />
<glyph unicode="&#xde;" horiz-adv-x="576" d="M621 582q11 -15 11 -32q0 -75 -208 -193q-126 -72 -299 -145q-5 -57 -5 -94t3 -52t3 -27q0 -45 -35 -45q-17 0 -24 12t-3 52q1 28 5 125q-6 13 -6 22t6 17q5 60 13 173q1 30 3 143q-4 100 -5 206q11 16 30.5 16t29.5 -15q1 -67 2 -157q5 -1 14 -2t131.5 11t198.5 12 q115 0 135 -27zM560 539q0 21 -70.5 21t-147.5 -8.5t-105.5 -14.5t-89.5 -10l-15 -251q124 50 213 95q214 107 215 168z" />
<glyph unicode="&#xdf;" horiz-adv-x="498" d="M467 150q6 -53 -47.5 -117t-105 -95.5t-85.5 -45.5t-48.5 -20.5t-31 -6.5t-22.5 12t-6 23t11.5 22t23.5 13q31 3 74 11q56 18 120.5 78t64.5 118q0 7 -1 14q-3 16 -57 34q-75 23 -101 38q-55 32 -61.5 89.5t51.5 128.5q24 28 94.5 90.5t70.5 79.5q0 11 -28 11 q-55 0 -158 -29t-117 -50q-11 -29 -11 -114t1 -136l14 -415q2 -49 11.5 -89.5t9.5 -47.5q0 -29 -27.5 -29t-34.5 14q-12 25 -6 79q2 18 -5 200q-12 345 -7 510q-21 -3 -22 -3q-11 0 -26 20q-2 3 -2 7q0 21 25 37l22 13q4 41 35 41q16 0 22 -20q169 54 277 54q39 0 59.5 -7 t20.5 -28q0 -37 -45 -85q-27 -27 -115 -107q-31 -28 -48.5 -65t-13.5 -58q6 -37 40 -55q1 -1 71 -28t78 -32q31 -19 36 -54z" />
<glyph unicode="&#xe0;" horiz-adv-x="369" d="M287 5q-4 -5 -15 -4t-17 7.5t-10 23.5q-75 -50 -133 -50q-37 0 -58 22t-21 65t37 92.5t85 56.5q74 10 109 -94q16 41 16 100.5t-33 119.5q-22 41 -67 41q-28 0 -53.5 -14.5t-27.5 -26.5q1 -5 -8 -5q-27 0 -29 23q-2 25 38 47.5t79.5 22.5t61.5 -14q89 -56 89 -201 q0 -68 -17.5 -137.5t-25.5 -74.5zM230 85q-29 90 -62 84q-44 -8 -66 -39.5t-22 -59.5t10 -34t24 -6q46 0 116 55zM355 474q0 -22 -19 -22q-5 0 -12 2q-24 8 -119.5 91t-127.5 128q-5 7 -5 18q0 20 23 20q8 0 17 -2.5t40 -38.5q36 -41 90 -92.5t72 -60.5l15 -1q10 0 18 -14 t8 -28z" />
<glyph unicode="&#xe1;" horiz-adv-x="369" d="M287 5q-4 -5 -15 -4t-17 7.5t-10 23.5q-75 -50 -133 -50q-37 0 -58 22t-21 65t37 92.5t85 56.5q74 10 109 -94q16 41 16 100.5t-33 119.5q-22 41 -67 41q-28 0 -53.5 -14.5t-27.5 -26.5q1 -5 -8 -5q-27 0 -29 23q-2 25 38 47.5t79.5 22.5t61.5 -14q89 -56 89 -201 q0 -68 -17.5 -137.5t-25.5 -74.5zM230 85q-29 90 -62 84q-44 -8 -66 -39.5t-22 -59.5t10 -34t24 -6q46 0 116 55zM385 735q-1 -7 -33 -43q-57 -67 -129 -182q2 5 2 -10t-14 -26t-29 -11q-24 0 -19.5 26.5t73.5 133t109 143.5q8 8 21 8q24 0 19 -39z" />
<glyph unicode="&#xe2;" horiz-adv-x="369" d="M287 5q-4 -5 -15 -4t-17 7.5t-10 23.5q-75 -50 -133 -50q-37 0 -58 22t-21 65t37 92.5t85 56.5q74 10 109 -94q16 41 16 100.5t-33 119.5q-22 41 -67 41q-28 0 -53.5 -14.5t-27.5 -26.5q1 -5 -8 -5q-27 0 -29 23q-2 25 38 47.5t79.5 22.5t61.5 -14q89 -56 89 -201 q0 -68 -17.5 -137.5t-25.5 -74.5zM230 85q-29 90 -62 84q-44 -8 -66 -39.5t-22 -59.5t10 -34t24 -6q46 0 116 55zM337 572q8 -6 8 -26.5t-23 -20.5t-46 44q-12 22 -23 45q-6 1 -52.5 -36t-49.5 -48q-7 -23 -27 -23q-10 0 -18 12t-8 24t13 22q46 46 93.5 83t53.5 42 q6 3 19 -1q22 -6 24 -30q5 -61 36 -87z" />
<glyph unicode="&#xe3;" horiz-adv-x="369" d="M446 624q0 -6 -1.5 -11t-20 -11t-67 -55t-88.5 -49q-25 0 -33 19q-6 29 -15 64.5t-29.5 39t-60 -23t-58 -57.5t-28.5 -31q-22 0 -22 21q0 13 16 39.5t65 66t97 39.5q24 0 43 -30t27 -73q4 -16 18 -16t61 49t68 47q28 -3 28 -28zM287 5q-4 -5 -15 -4t-17 7.5t-10 23.5 q-75 -50 -133 -50q-37 0 -58 22t-21 65t37 92.5t85 56.5q74 10 109 -94q16 41 16 100.5t-33 119.5q-22 41 -67 41q-28 0 -53.5 -14.5t-27.5 -26.5q1 -5 -8 -5q-27 0 -29 23q-2 25 38 47.5t79.5 22.5t61.5 -14q89 -56 89 -201q0 -68 -17.5 -137.5t-25.5 -74.5zM230 85 q-29 90 -62 84q-44 -8 -66 -39.5t-22 -59.5t10 -34t24 -6q46 0 116 55z" />
<glyph unicode="&#xe4;" horiz-adv-x="369" d="M287 5q-4 -5 -15 -4t-17 7.5t-10 23.5q-75 -50 -133 -50q-37 0 -58 22t-21 65t37 92.5t85 56.5q74 10 109 -94q16 41 16 100.5t-33 119.5q-22 41 -67 41q-28 0 -53.5 -14.5t-27.5 -26.5q1 -5 -8 -5q-27 0 -29 23q-2 25 38 47.5t79.5 22.5t61.5 -14q89 -56 89 -201 q0 -68 -17.5 -137.5t-25.5 -74.5zM230 85q-29 90 -62 84q-44 -8 -66 -39.5t-22 -59.5t10 -34t24 -6q46 0 116 55zM332 644q13 -16 -7 -56t-22.5 -59.5t-9.5 -33.5q-10 -9 -19 -9q-18 0 -18 33t11.5 57.5t18.5 44.5l6 20q7 13 20 13t20 -10zM188 625q-1 -3 -9.5 -27t-9 -54 t-7 -39t-24.5 -6q-14 3 -14 33q0 44 15 113q8 20 21 20q6 0 13 -3q22 -12 15 -37z" />
<glyph unicode="&#xe5;" horiz-adv-x="369" d="M287 5q-4 -5 -15 -4t-17 7.5t-10 23.5q-75 -50 -133 -50q-37 0 -58 22t-21 65t37 92.5t85 56.5q74 10 109 -94q16 41 16 100.5t-33 119.5q-22 41 -67 41q-28 0 -53.5 -14.5t-27.5 -26.5q1 -5 -8 -5q-27 0 -29 23q-2 25 38 47.5t79.5 22.5t61.5 -14q89 -56 89 -201 q0 -68 -17.5 -137.5t-25.5 -74.5zM230 85q-29 90 -62 84q-44 -8 -66 -39.5t-22 -59.5t10 -34t24 -6q46 0 116 55zM320 659q13 -10 13 -37t-32 -63q-52 -59 -97 -59q-11 0 -24 4q-31 8 -31 51q0 29 15 61q28 64 91 64q39 0 65 -21zM291 620q0 16 -29.5 16t-47.5 -18 q-6 -6 -13 -25t-7 -33q0 -21 18 -17.5t48.5 31.5t30.5 46z" />
<glyph unicode="&#xe6;" horiz-adv-x="747" d="M724 224q7 0 18 -8t11 -27t-23 -35q-57 -42 -113 -84q-112 -75 -183.5 -75t-121.5 82q-17 -67 -25 -72q-4 -5 -15 -4t-17 7.5t-10 23.5q-75 -50 -133 -50q-37 0 -58 22t-21 65t37 92.5t85 56.5q74 10 109 -94q16 41 16 100.5t-33 119.5q-22 41 -67 41q-28 0 -53.5 -14.5 t-27.5 -26.5q1 -5 -8 -5q-27 0 -29 23q-2 25 38 47.5t87.5 22.5t83.5 -38t50 -94q39 51 102.5 82t122 31t95.5 -26q2 -1 2 -3q0 -11 -46.5 -46t-89 -59t-164.5 -63q-5 -14 -5 -34q0 -42 26 -83q35 -55 85 -53t137.5 61t102.5 80q21 37 35 37zM554 367q-101 0 -187 -94 q74 16 105.5 36.5t81.5 57.5zM230 85q-29 90 -62 84q-44 -8 -66 -39.5t-22 -59.5t10 -34t24 -6q46 0 116 55z" />
<glyph unicode="&#xe7;" horiz-adv-x="510" d="M258 335l-33 5q-28 0 -94.5 -85.5t-66.5 -142.5q0 -36 30 -55q18 -11 47 -11q79 0 231 79q72 41 145 82q4 2 11.5 2t14 -8.5t5 -17.5t-98.5 -67.5t-188 -90.5q-7 -49 9 -68t31 -36q15 -20 15 -37q0 -51 -58 -108q-39 -37 -71.5 -50.5t-38.5 -13.5q-25 0 -25 25 q0 8 6.5 17.5t11.5 9.5t9.5 -0.5t6.5 -0.5q21 0 54 27q56 46 56 84q0 16 -11 26q-48 42 -50 87q0 7 -3 22q-38 -9 -69 -9q-72 0 -106 44q-19 24 -19 59q0 84 85 189q94 115 170 115q34 0 34 -24q0 -14 -13 -31t-27 -17z" />
<glyph unicode="&#xe8;" horiz-adv-x="486" d="M462 224q7 0 18.5 -8t11.5 -27t-23 -35l-114 -84q-112 -75 -179 -75t-115 65q-43 61 -43 127q0 92 85 159t179 67q51 0 86 -23q4 -2 4 -7q0 -17 -46 -55t-104.5 -73.5t-142.5 -40.5q-3 -12 -3 -29q0 -44 27 -86q35 -55 84.5 -53t137.5 61t103 80q21 37 34 37zM295 365 q-55 0 -106.5 -26t-85.5 -69q56 3 108 34.5t84 60.5zM405 474q0 -22 -19 -22q-5 0 -12 2q-24 8 -119.5 91t-127.5 128q-5 7 -5 18q0 20 23 20q8 0 17 -2.5t40 -38.5q36 -41 90 -92.5t72 -60.5l15 -1q10 0 18 -14t8 -28z" />
<glyph unicode="&#xe9;" horiz-adv-x="486" d="M462 224q7 0 18.5 -8t11.5 -27t-23 -35l-114 -84q-112 -75 -179 -75t-115 65q-43 61 -43 127q0 92 85 159t179 67q51 0 86 -23q4 -2 4 -7q0 -17 -46 -55t-104.5 -73.5t-142.5 -40.5q-3 -12 -3 -29q0 -44 27 -86q35 -55 84.5 -53t137.5 61t103 80q21 37 34 37zM295 365 q-55 0 -106.5 -26t-85.5 -69q56 3 108 34.5t84 60.5zM385 695q-1 -7 -33 -43q-57 -67 -129 -182q2 5 2 -10t-14 -26t-29 -11q-24 0 -19.5 26.5t73.5 133t109 143.5q8 8 21 8q24 0 19 -39z" />
<glyph unicode="&#xea;" horiz-adv-x="486" d="M462 224q7 0 18.5 -8t11.5 -27t-23 -35l-114 -84q-112 -75 -179 -75t-115 65q-43 61 -43 127q0 92 85 159t179 67q51 0 86 -23q4 -2 4 -7q0 -17 -46 -55t-104.5 -73.5t-142.5 -40.5q-3 -12 -3 -29q0 -44 27 -86q35 -55 84.5 -53t137.5 61t103 80q21 37 34 37zM295 365 q-55 0 -106.5 -26t-85.5 -69q56 3 108 34.5t84 60.5zM397 572q8 -6 8 -26.5t-23 -20.5t-46 44q-12 22 -23 45q-6 1 -52.5 -36t-49.5 -48q-7 -23 -27 -23q-10 0 -18 12t-8 24t13 22q46 46 93.5 83t53.5 42q6 3 19 -1q22 -6 24 -30q5 -61 36 -87z" />
<glyph unicode="&#xeb;" horiz-adv-x="486" d="M462 224q7 0 18.5 -8t11.5 -27t-23 -35l-114 -84q-112 -75 -179 -75t-115 65q-43 61 -43 127q0 92 85 159t179 67q51 0 86 -23q4 -2 4 -7q0 -17 -46 -55t-104.5 -73.5t-142.5 -40.5q-3 -12 -3 -29q0 -44 27 -86q35 -55 84.5 -53t137.5 61t103 80q21 37 34 37zM295 365 q-55 0 -106.5 -26t-85.5 -69q56 3 108 34.5t84 60.5zM392 644q13 -16 -7 -56t-22.5 -59.5t-9.5 -33.5q-10 -9 -19 -9q-18 0 -18 33t11.5 57.5t18.5 44.5l6 20q7 13 20 13t20 -10zM248 625q-1 -3 -9.5 -27t-9 -54t-7 -39t-24.5 -6q-14 3 -14 33q0 44 15 113q8 20 21 20 q6 0 13 -3q22 -12 15 -37z" />
<glyph unicode="&#xec;" horiz-adv-x="234" d="M290 474q0 -22 -19 -22q-5 0 -12 2q-24 8 -119.5 91t-127.5 128q-5 7 -5 18q0 20 23 20q8 0 17 -2.5t40 -38.5q36 -41 90 -92.5t72 -60.5l15 -1q10 0 18 -14t8 -28zM142 38q0 -33 -27 -33q-12 0 -24 9.5t-12 64.5q0 3 7 144.5t8 148.5q6 36 27 37q15 1 25 -11.5t8 -32.5 q-21 -193 -23.5 -237t4.5 -65.5t7 -24.5z" />
<glyph unicode="&#xed;" horiz-adv-x="234" d="M266 695q-1 -7 -33 -43q-57 -67 -129 -182q2 5 2 -10t-14 -26t-29 -11q-24 0 -19.5 26.5t73.5 133t109 143.5q8 8 21 8q24 0 19 -39zM142 38q0 -33 -27 -33q-12 0 -24 9.5t-12 64.5q0 3 7 144.5t8 148.5q6 36 27 37q15 1 25 -11.5t8 -32.5q-21 -193 -23.5 -237t4.5 -65.5 t7 -24.5z" />
<glyph unicode="&#xee;" horiz-adv-x="234" d="M252 572q8 -6 8 -26.5t-23 -20.5t-46 44q-12 22 -23 45q-6 1 -52.5 -36t-49.5 -48q-7 -23 -27 -23q-10 0 -18 12t-8 24t13 22q46 46 93.5 83t53.5 42q6 3 19 -1q22 -6 24 -30q5 -61 36 -87zM142 38q0 -33 -27 -33q-12 0 -24 9.5t-12 64.5q0 3 7 144.5t8 148.5q6 36 27 37 q15 1 25 -11.5t8 -32.5q-21 -193 -23.5 -237t4.5 -65.5t7 -24.5z" />
<glyph unicode="&#xef;" horiz-adv-x="234" d="M262 654q13 -16 -7 -56t-22.5 -59.5t-9.5 -33.5q-10 -9 -19 -9q-18 0 -18 33t11.5 57.5t18.5 44.5l6 20q7 13 20 13t20 -10zM118 635q-1 -3 -9.5 -27t-9 -54t-7 -39t-24.5 -6q-14 3 -14 33q0 44 15 113q8 20 21 20q6 0 13 -3q22 -12 15 -37zM142 38q0 -33 -27 -33 q-12 0 -24 9.5t-12 64.5q0 3 7 144.5t8 148.5q6 36 27 37q15 1 25 -11.5t8 -32.5q-21 -193 -23.5 -237t4.5 -65.5t7 -24.5z" />
<glyph unicode="&#xf0;" horiz-adv-x="483" d="M500 280q0 -25 -29 -25q-14 0 -25 12q-13 17 -16.5 19t-17.5 2q-49 -104 -130 -196q-37 -42 -94.5 -80t-95.5 -38t-59 21.5t-21 62t34 94.5q105 168 330 189q19 46 19 106.5t-22 101.5q-89 -30 -137 -35q-10 0 -19.5 5.5t-9.5 16.5t16 28q5 4 39 10t80 18q-47 47 -105 47 q-77 0 -130 -44q-5 -4 -15.5 -4t-22 7t-11.5 17q0 31 64.5 51.5t101.5 19.5q105 -2 170 -79q36 11 51 21l8 13q6 8 22 9q41 0 41 -25q0 -9 -13 -20.5t-83 -38.5q15 -30 20.5 -73t5.5 -69t-15 -85q29 -13 61 -31q8 -16 8 -28zM356 286q-36 -4 -70 -15q-130 -40 -195 -144 q-29 -45 -29 -73.5t24 -28.5q29 0 84.5 38.5t77.5 68.5q28 34 59 74t49 80z" />
<glyph unicode="&#xf1;" horiz-adv-x="384" d="M430 624q0 -6 -1.5 -11t-20 -11t-67 -55t-88.5 -49q-25 0 -33 19q-6 29 -15 64.5t-29.5 39t-60 -23t-58 -57.5t-28.5 -31q-22 0 -22 21q0 13 16 39.5t65 66t97 39.5q24 0 43 -30t27 -73q4 -16 18 -16t61 49t68 47q28 -3 28 -28zM286 -5l3 23l-5 60q-6 59 -5 124 q4 152 -10 163q-11 9 -57 -77q-75 -142 -109 -267q-7 -26 -14 -31q-11 -5 -19 -5q-28 0 -28 45q0 11 3.5 73.5t5 143t12.5 161.5q4 23 22 23q20 0 32 -16q4 -5 4 -15t-5 -48q-6 -56 -6 -145q116 241 173 229q35 -7 45 -83q7 -50 6.5 -184.5t2.5 -144.5q17 -35 17 -49 q0 -25 -23 -25q-16 0 -30.5 13t-14.5 32z" />
<glyph unicode="&#xf2;" horiz-adv-x="366" d="M279 379q65 -49 65 -148.5t-73 -167t-145 -67.5q-53 0 -86 62q-22 41 -22 86t17 83q76 173 166 180q38 3 78 -28zM294 242q0 31 -12.5 58t-26 39t-44.5 16l1 -5q-25 -6 -48 -24q-54 -44 -86 -138q-6 -17 -6 -46t16.5 -61.5t49 -32.5t72.5 30.5t55 60.5q29 58 29 103z M375 474q0 -22 -19 -22q-5 0 -12 2q-24 8 -119.5 91t-127.5 128q-5 7 -5 18q0 20 23 20q8 0 17 -2.5t40 -38.5q36 -41 90 -92.5t72 -60.5l15 -1q10 0 18 -14t8 -28z" />
<glyph unicode="&#xf3;" horiz-adv-x="366" d="M279 379q65 -49 65 -148.5t-73 -167t-145 -67.5q-53 0 -86 62q-22 41 -22 86t17 83q76 173 166 180q38 3 78 -28zM294 242q0 31 -12.5 58t-26 39t-44.5 16l1 -5q-25 -6 -48 -24q-54 -44 -86 -138q-6 -17 -6 -46t16.5 -61.5t49 -32.5t72.5 30.5t55 60.5q29 58 29 103z M395 715q-1 -7 -33 -43q-57 -67 -129 -182q2 5 2 -10t-14 -26t-29 -11q-24 0 -19.5 26.5t73.5 133t109 143.5q8 8 21 8q24 0 19 -39z" />
<glyph unicode="&#xf4;" horiz-adv-x="366" d="M279 379q65 -49 65 -148.5t-73 -167t-145 -67.5q-53 0 -86 62q-22 41 -22 86t17 83q76 173 166 180q38 3 78 -28zM294 242q0 31 -12.5 58t-26 39t-44.5 16l1 -5q-25 -6 -48 -24q-54 -44 -86 -138q-6 -17 -6 -46t16.5 -61.5t49 -32.5t72.5 30.5t55 60.5q29 58 29 103z M347 572q8 -6 8 -26.5t-23 -20.5t-46 44q-12 22 -23 45q-6 1 -52.5 -36t-49.5 -48q-7 -23 -27 -23q-10 0 -18 12t-8 24t13 22q46 46 93.5 83t53.5 42q6 3 19 -1q22 -6 24 -30q5 -61 36 -87z" />
<glyph unicode="&#xf5;" horiz-adv-x="366" d="M279 379q65 -49 65 -148.5t-73 -167t-145 -67.5q-53 0 -86 62q-22 41 -22 86t17 83q76 173 166 180q38 3 78 -28zM294 242q0 31 -12.5 58t-26 39t-44.5 16l1 -5q-25 -6 -48 -24q-54 -44 -86 -138q-6 -17 -6 -46t16.5 -61.5t49 -32.5t72.5 30.5t55 60.5q29 58 29 103z M443 624q0 -6 -1.5 -11t-20 -11t-67 -55t-88.5 -49q-25 0 -33 19q-6 29 -15 64.5t-29.5 39t-60 -23t-58 -57.5t-28.5 -31q-22 0 -22 21q0 13 16 39.5t65 66t97 39.5q24 0 43 -30t27 -73q4 -16 18 -16t61 49t68 47q28 -3 28 -28z" />
<glyph unicode="&#xf6;" horiz-adv-x="366" d="M279 379q65 -49 65 -148.5t-73 -167t-145 -67.5q-53 0 -86 62q-22 41 -22 86t17 83q76 173 166 180q38 3 78 -28zM294 242q0 31 -12.5 58t-26 39t-44.5 16l1 -5q-25 -6 -48 -24q-54 -44 -86 -138q-6 -17 -6 -46t16.5 -61.5t49 -32.5t72.5 30.5t55 60.5q29 58 29 103z M342 664q13 -16 -7 -56t-22.5 -59.5t-9.5 -33.5q-10 -9 -19 -9q-18 0 -18 33t11.5 57.5t18.5 44.5l6 20q7 13 20 13t20 -10zM198 645q-1 -3 -9.5 -27t-9 -54t-7 -39t-24.5 -6q-14 3 -14 33q0 44 15 113q8 20 21 20q6 0 13 -3q22 -12 15 -37z" />
<glyph unicode="&#xf7;" d="M364 363q-7 -24 -29 -24t-37.5 14.5t-15.5 34t19 31.5q15 8 23.5 8t23.5 -6q21 -9 21 -32q0 -10 -5 -26zM544 260q0 -14 -14.5 -19t-55.5 -5q-126 0 -219.5 -19.5t-118.5 -19.5t-28 15q-7 34 48 48q35 9 147 17.5t176.5 8.5t64.5 -26zM361 122q2 -56 -37 -56 q-19 0 -34 15t-15 34q0 30 39 37q15 2 31 -7t16 -23z" />
<glyph unicode="&#xf8;" horiz-adv-x="366" d="M476 518q0 -7 -17 -27.5t-26 -22.5q-24 -4 -117 -130q28 -46 28 -108q0 -99 -73 -166.5t-145 -67.5q-13 0 -23 3q-8 -14 -24 -45q-8 -27 -28 -69q-8 -11 -22 -11q-31 0 -31 26q0 29 60 130q-40 50 -40 118q0 41 17 79q76 173 166 180q43 3 86 -34q21 27 55 66t84 103 q6 13 26 13q28 0 24 -37zM258 337q-16 14 -47 18l1 -5q-25 -6 -48 -24q-54 -44 -86 -138q-6 -17 -6 -47t16 -59q88 148 170 255zM284 294q-112 -168 -155 -245q33 -5 76.5 26.5t59.5 63.5q29 58 29 94t-10 61z" />
<glyph unicode="&#xf9;" horiz-adv-x="342" d="M313 355q-10 -71 -38 -175q-42 -150 -80 -168q-16 -8 -31 -8q-110 0 -122 392q-1 20 6.5 28.5t18.5 6.5q31 -6 30 -38q-5 -129 17 -228t51 -99q10 0 20 17q32 56 49.5 145.5t18.5 129t32 37.5q24 -1 28 -40zM335 474q0 -22 -19 -22q-5 0 -12 2q-24 8 -119.5 91 t-127.5 128q-5 7 -5 18q0 20 23 20q8 0 17 -2.5t40 -38.5q36 -41 90 -92.5t72 -60.5l15 -1q10 0 18 -14t8 -28z" />
<glyph unicode="&#xfa;" horiz-adv-x="342" d="M313 355q-10 -71 -38 -175q-42 -150 -80 -168q-16 -8 -31 -8q-110 0 -122 392q-1 20 6.5 28.5t18.5 6.5q31 -6 30 -38q-5 -129 17 -228t51 -99q10 0 20 17q32 56 49.5 145.5t18.5 129t32 37.5q24 -1 28 -40zM385 695q-1 -7 -33 -43q-57 -67 -129 -182q2 5 2 -10t-14 -26 t-29 -11q-24 0 -19.5 26.5t73.5 133t109 143.5q8 8 21 8q24 0 19 -39z" />
<glyph unicode="&#xfb;" horiz-adv-x="342" d="M313 355q-10 -71 -38 -175q-42 -150 -80 -168q-16 -8 -31 -8q-110 0 -122 392q-1 20 6.5 28.5t18.5 6.5q31 -6 30 -38q-5 -129 17 -228t51 -99q10 0 20 17q32 56 49.5 145.5t18.5 129t32 37.5q24 -1 28 -40zM317 572q8 -6 8 -26.5t-23 -20.5t-46 44q-12 22 -23 45 q-6 1 -52.5 -36t-49.5 -48q-7 -23 -27 -23q-10 0 -18 12t-8 24t13 22q46 46 93.5 83t53.5 42q6 3 19 -1q22 -6 24 -30q5 -61 36 -87z" />
<glyph unicode="&#xfc;" horiz-adv-x="342" d="M313 355q-10 -71 -38 -175q-42 -150 -80 -168q-16 -8 -31 -8q-110 0 -122 392q-1 20 6.5 28.5t18.5 6.5q31 -6 30 -38q-5 -129 17 -228t51 -99q10 0 20 17q32 56 49.5 145.5t18.5 129t32 37.5q24 -1 28 -40zM322 644q13 -16 -7 -56t-22.5 -59.5t-9.5 -33.5q-10 -9 -19 -9 q-18 0 -18 33t11.5 57.5t18.5 44.5l6 20q7 13 20 13t20 -10zM178 625q-1 -3 -9.5 -27t-9 -54t-7 -39t-24.5 -6q-14 3 -14 33q0 44 15 113q8 20 21 20q6 0 13 -3q22 -12 15 -37z" />
<glyph unicode="&#xfd;" horiz-adv-x="393" d="M366 299q0 -24 -28 -285t-37.5 -328t-9.5 -74.5t1 -9.5q14 -18 14 -40q0 -26 -38 -27t-38 32q0 29 12 32q7 2 33.5 264t29.5 414q-178 -220 -234 -219q-29 1 -29 65q0 33 17.5 157.5t18.5 129.5q11 45 44 22q14 -10 14.5 -19.5t-19.5 -112t-20 -129t8 -26.5q16 0 73 61 q23 25 115 132q1 1 16 29q10 18 18.5 18t14.5 -2q24 -9 24 -84zM405 765q-1 -7 -33 -43q-57 -67 -129 -182q2 5 2 -10t-14 -26t-29 -11q-24 0 -19.5 26.5t73.5 133t109 143.5q8 8 21 8q24 0 19 -39z" />
<glyph unicode="&#xfe;" horiz-adv-x="348" d="M37 -393l5 28q0 2 -3 58.5t-3 104.5q0 155 19 333q3 22 29 220q-28 10 -25 34q4 17 32 30q9 115 18 231q10 89 35 98q14 5 22 5q19 0 19 -28q0 -16 -7 -49.5t-31 -247.5q62 -9 122 -57.5t67 -122.5q4 -39 -44 -100q-36 -48 -88.5 -94t-64 -48.5t-24 6.5t-15.5 19 q-6 -45 -13 -226q-3 -174 3 -186t6 -23.5t-9.5 -20t-20.5 -5.5q-29 8 -29 41zM281 236q8 37 -40 84t-100 50q-3 -39 -15 -136q-9 -55 -24 -184q46 24 80 51q84 66 99 135z" />
<glyph unicode="&#xff;" horiz-adv-x="393" d="M366 299q0 -24 -28 -285t-37.5 -328t-9.5 -74.5t1 -9.5q14 -18 14 -40q0 -26 -38 -27t-38 32q0 29 12 32q7 2 33.5 264t29.5 414q-178 -220 -234 -219q-29 1 -29 65q0 33 17.5 157.5t18.5 129.5q11 45 44 22q14 -10 14.5 -19.5t-19.5 -112t-20 -129t8 -26.5q16 0 73 61 q23 25 115 132q1 1 16 29q10 18 18.5 18t14.5 -2q24 -9 24 -84zM362 694q13 -16 -7 -56t-22.5 -59.5t-9.5 -33.5q-10 -9 -19 -9q-18 0 -18 33t11.5 57.5t18.5 44.5l6 20q7 13 20 13t20 -10zM218 675q-1 -3 -9.5 -27t-9 -54t-7 -39t-24.5 -6q-14 3 -14 33q0 44 15 113 q8 20 21 20q6 0 13 -3q22 -12 15 -37z" />
<glyph unicode="&#x131;" horiz-adv-x="234" d="M142 38q0 -33 -27 -33q-12 0 -24 9.5t-12 64.5q0 3 7 144.5t8 148.5q6 36 27 37q15 1 25 -11.5t8 -32.5q-21 -193 -23.5 -237t4.5 -65.5t7 -24.5z" />
<glyph unicode="&#x141;" horiz-adv-x="570" d="M593 200q-104 -35 -208 -69q-198 -69 -268 -116q-40 -27 -52 -27t-22 7q-19 11 -19 24t8.5 32t9.5 29q5 92 15 209q-56 -29 -76 -29t-20 19q0 11 10 27q4 6 32 17.5t60 27.5q13 151 24 204q4 26 4.5 72.5t5.5 61.5q8 24 35 24q31 0 31 -64.5t-17 -120t-28 -146.5 q42 23 55 37q1 0 5 14q6 15 35.5 15t29.5 -20q0 -8 -6 -17q-19 -26 -125 -90q-4 -51 -2 -66.5t2 -31t-4 -63.5t-3 -75q222 89 413 134q20 5 40 5q44 0 44 -15q0 -5 -9 -9z" />
<glyph unicode="&#x142;" horiz-adv-x="213" d="M84 295q-63 -35 -84.5 -35t-21.5 19q0 28 36.5 42.5t74.5 34.5q5 58 12 137t13.5 149.5t16 78.5t21 8t23 -12.5t11.5 -29.5t-13.5 -109.5t-25.5 -188.5q30 17 43 30l5 14q5 15 35 15t30 -20q0 -8 -7 -17q-16 -24 -113 -84q-19 -186 -10 -320q5 -65 -24 -65 q-10 0 -22.5 8.5t-12.5 92t13 252.5z" />
<glyph unicode="&#x152;" horiz-adv-x="954" d="M1011.5 274q-1.5 -2 -56.5 -15.5t-177 -63t-231.5 -102t-119.5 -51.5t-19 5q-119 -67 -214 -67q-47 0 -83 17q-96 44 -96 169q0 145 110 304.5t213 161.5q32 1 57 -6q105 44 200 73.5t126 29.5t31 -22q0 -10 -11 -23.5t-31 -13.5t-30 7q-143 -40 -225 -81 q173 -37 220 -130q71 27 99 35q116 36 149 36q8 0 12 -2q15 -9 15 -24.5t-19 -23.5q-8 -3 -48.5 -5.5t-79 -16.5t-112.5 -44q4 -24 3 -52q-4 -83 -124 -199q59 23 212.5 79t188.5 56q7 0 15 -4q27 -10 27 -22q0 -3 -1.5 -5zM636 371q0 14 -2 28q-117 -48 -195.5 -85.5 t-103.5 -33.5t-25 30q0 10 5 17.5t49.5 20t104.5 37.5t151 60q-74 111 -266 101q-3 -1 -24.5 -16.5t-38 -13t-24.5 11.5l-8 10q-83 -68 -136 -174.5t-53 -192.5t52 -114q35 -20 82 -20q86 0 186.5 59.5t172 140t73.5 134.5z" />
<glyph unicode="&#x153;" horiz-adv-x="756" d="M734 224q6 0 17.5 -8t11.5 -27t-23 -35l-114 -84q-112 -75 -182 -75q-45 0 -81.5 33t-56.5 78q-33 -50 -84.5 -80t-95.5 -30q-53 0 -86 62q-22 41 -22 86t17 83q105 240 233 160q46 -29 64 -84q40 50 103 80t121 30t95 -26q1 -1 1 -3q0 -11 -46.5 -46t-88.5 -59t-164 -63 q-5 -14 -5 -34q0 -42 26 -83q35 -55 85 -53t137.5 61t102.5 80q21 37 35 37zM564 367q-101 0 -187 -94q72 16 104.5 36.5t82.5 57.5zM211 80q68 51 82 143q6 40 -9 72t-28.5 44t-44.5 16l1 -5q-25 -6 -48 -24q-54 -44 -86 -138q-6 -17 -6 -46t16.5 -61.5t49 -32.5t73.5 32z " />
<glyph unicode="&#x160;" horiz-adv-x="621" d="M595 207q1 -63 -75 -125q-50 -41 -134 -82.5t-85 -44.5q-5 -32 -44 -32t-46 18q-3 8 -3 21t14.5 25t30.5 14q67 9 175.5 77.5t108.5 116.5q0 70 -132 108q-123 27 -246 55q-132 35 -132 97q0 70 78 133q64 51 156.5 84.5t143.5 32.5t74 -19q5 -4 19.5 -24.5t14.5 -26.5 t-10.5 -13t-22.5 -7t-29 16t-30 16q-82 1 -205.5 -57t-123.5 -119q0 -45 130 -77q233 -56 241 -59q131 -47 132 -128zM436 901.5q7 -11.5 7 -23t-20 -26.5q-1 -1 -114 -101q-9 -5 -15.5 -11.5t-16.5 -6.5q-31 0 -33 30q-6 68 -54 107q-8 6 -8 20q0 30 24.5 23.5t53 -56.5 t30.5 -51q6 -1 53 36.5t51 48.5q6 22 25 22q10 0 17 -11.5z" />
<glyph unicode="&#x161;" horiz-adv-x="342" d="M323 476q4 -22 -21 -22q-11 0 -23 6t-15 6q-22 -1 -45 -20q-40 -37 -77 -70.5t-56 -74.5q-41 -88 30 -127l86 -33q70 -27 80 -33q34 -21 39 -60q3 -27 -81.5 -79.5t-98.5 -50.5q-36 1 -36 27q0 8 6 15l80 38q74 37 71 57q-3 18 -74.5 40.5t-100.5 39.5q-62 35 -68 93 q-9 76 64 160q32 36 127 115q30 25 64 10q14 -8 31 -19t18 -18zM351 723.5q7 -11.5 7 -23t-20 -26.5q-1 -1 -114 -101q-9 -5 -15.5 -11.5t-16.5 -6.5q-31 0 -33 30q-6 68 -54 107q-8 6 -8 20q0 30 24.5 23.5t53 -56.5t30.5 -51q6 -1 53 36.5t51 48.5q6 22 25 22 q10 0 17 -11.5z" />
<glyph unicode="&#x178;" horiz-adv-x="526" d="M568 680q0 -10 -19.5 -22.5t-20.5 -15.5q-22 -44 -269 -257q6 -46 2 -155.5t8 -208.5q1 -5 7.5 -22t6.5 -29t-11.5 -19t-25 -7t-25 14t-8.5 30t-4 73t-9 120.5t-5 142.5q-11 5 -26 17q-13 42 -25 85q-27 82 -64 142q-13 21 -34.5 31.5t-21.5 25.5q0 23 23.5 23t46 -13 t34.5 -34q24 -42 80 -181q205 157 279 249q9 12 21 26.5t24 14.5t24 -10t12 -20zM392 854q13 -16 -7 -56t-22.5 -59.5t-9.5 -33.5q-10 -9 -19 -9q-18 0 -18 33t11.5 57.5t18.5 44.5l6 20q7 13 20 13t20 -10zM248 835q-1 -3 -9.5 -27t-9 -54t-7 -39t-24.5 -6q-14 3 -14 33 q0 44 15 113q8 20 21 20q6 0 13 -3q22 -12 15 -37z" />
<glyph unicode="&#x17d;" horiz-adv-x="690" d="M783 39q-14 0 -40 13q-17 4 -136 4t-226 -13t-207.5 -32.5t-123.5 -29.5t-38 -10q-39 0 -39 35q0 10 5 16q74 112 254 363q85 110 196 230q-246 -31 -293 -74q-29 -25 -42 -25t-21.5 11t-8.5 18q0 22 69 64q23 15 187.5 49.5t206.5 34.5q7 0 9 -2q24 -15 15 -44 q-38 -33 -75 -66q-148 -141 -323 -400q-73 -107 -85 -132q92 15 281 40q134 13 279.5 13t158.5 -12q21 -14 21 -27q0 -24 -24 -24zM536 902.5q7 -11.5 7 -23t-20 -26.5q-1 -1 -114 -101q-9 -5 -15.5 -11.5t-16.5 -6.5q-31 0 -33 30q-6 68 -54 107q-8 6 -8 20q0 30 24.5 23.5 t53 -56.5t30.5 -51q6 -1 53 36.5t51 48.5q6 22 25 22q10 0 17 -11.5z" />
<glyph unicode="&#x17e;" horiz-adv-x="462" d="M561 122q9 -11 9 -19t-25.5 -9t-42 -2.5t-194 -45.5t-247.5 -44q-16 0 -49 22q-6 4 -6 10q0 9 72 69.5t135.5 130.5t63.5 94q0 3 -4 7t-49 1t-56.5 -6t-44.5 -13t-46 -10q-24 0 -24 19t39 34q66 24 125 24t92.5 -6t35.5 -14q2 -4 2 -11q0 -42 -62 -115 q-25 -30 -99 -100.5t-74 -75.5t103.5 11t139.5 23.5t109.5 25t80.5 14.5t16 -14zM431 663.5q7 -11.5 7 -23t-20 -26.5q-1 -1 -114 -101q-9 -5 -15.5 -11.5t-16.5 -6.5q-31 0 -33 30q-6 68 -54 107q-8 6 -8 20q0 30 24.5 23.5t53 -56.5t30.5 -51q6 -1 53 36.5t51 48.5 q6 22 25 22q10 0 17 -11.5z" />
<glyph unicode="&#x192;" horiz-adv-x="576" d="M586 610q-3 -17 -23 -17q-6 0 -14.5 4.5t-22.5 34.5q-11 26 -57 37q-10 2 -20 2q-117 0 -128 -352q2 0 88 6q24 2 32.5 9t18.5 7q29 0 30 -27t-40.5 -33t-78.5 -8t-52 -4q-11 -358 -134 -500q-74 -86 -179 -86q-23 0 -40 3t-26 1t-16 -2t-19.5 10t-12.5 28.5t13 33 t33.5 11t29.5 -17.5t22 -15q128 -8 201 140q68 136 74 388q-18 -3 -35 -5.5t-25.5 -9t-18.5 -6.5q-27 0 -27 30q0 18 16 28q10 8 37.5 8t56.5 5q8 166 31 248q42 157 146 157q69 0 115 -47q30 -32 25 -61z" />
<glyph unicode="&#x2c6;" horiz-adv-x="360" d="M297 572q8 -6 8 -26.5t-23 -20.5t-46 44q-12 22 -23 45q-6 1 -52.5 -36t-49.5 -48q-7 -23 -27 -23q-10 0 -18 12t-8 24t13 22q46 46 93.5 83t53.5 42q6 3 19 -1q22 -6 24 -30q5 -61 36 -87z" />
<glyph unicode="&#x2c7;" horiz-adv-x="360" d="M311 663.5q7 -11.5 7 -23t-20 -26.5q-1 -1 -114 -101q-9 -5 -15.5 -11.5t-16.5 -6.5q-31 0 -33 30q-6 68 -54 107q-8 6 -8 20q0 30 24.5 23.5t53 -56.5t30.5 -51q6 -1 53 36.5t51 48.5q6 22 25 22q10 0 17 -11.5z" />
<glyph unicode="&#x2d8;" horiz-adv-x="360" d="M280 606q0 -49 -27 -85.5t-59 -36.5q-59 0 -107 121q-3 7 -3 14q0 24 30 35q4 2 8 2q13 0 21 -35t17 -48q29 -40 47 -40q24 0 48 51q16 34 19 34q6 0 6 -12z" />
<glyph unicode="&#x2d9;" horiz-adv-x="183" d="M140 669q-34 -73 -37 -97t-8 -28q-15 -18 -28 -6q-8 7 -8 34t17 63q1 2 17 49q6 17 22 17q28 0 25 -32z" />
<glyph unicode="&#x2da;" horiz-adv-x="360" d="M270 659q13 -10 13 -37t-32 -63q-52 -59 -97 -59q-11 0 -24 4q-31 8 -31 51q0 29 15 61q28 64 91 64q39 0 65 -21zM241 620q0 16 -29.5 16t-47.5 -18q-6 -6 -13 -25t-7 -33q0 -21 18 -17.5t48.5 31.5t30.5 46z" />
<glyph unicode="&#x2db;" horiz-adv-x="270" d="M163 -7l-2 13q0 5 4 7q18 10 28 0t10 -26q0 -32 -24 -37q-6 -1 -21 -1h-11q-55 0 -62.5 -19t10 -52.5t51.5 -50t34 -26.5q0 -7 -6 -15q-10 -14 -43 3q-52 27 -79 79q-17 33 -17 51.5t1 27.5q5 22 40 33.5t77 7.5q10 -1 10 5z" />
<glyph unicode="&#x2dc;" horiz-adv-x="483" d="M453 624q0 -6 -1.5 -11t-20 -11t-67 -55t-88.5 -49q-25 0 -33 19q-6 29 -15 64.5t-29.5 39t-60 -23t-58 -57.5t-28.5 -31q-22 0 -22 21q0 13 16 39.5t65 66t97 39.5q24 0 43 -30t27 -73q4 -16 18 -16t61 49t68 47q28 -3 28 -28z" />
<glyph unicode="&#x2dd;" horiz-adv-x="468" d="M431 695q-1 -7 -32 -43q-65 -77 -129 -182q1 5 1 -10t-13.5 -26t-29.5 -11q-23 0 -18.5 26.5t73.5 133t108 143.5q9 8 21 8q24 0 19 -39zM259 695q-1 -7 -33 -43q-57 -67 -129 -182q2 5 2 -10t-14 -26t-29 -11q-24 0 -19.5 26.5t73.5 133t109 143.5q8 8 21 8q24 0 19 -39 z" />
<glyph unicode="&#x394;" horiz-adv-x="366" d="M279 379q65 -49 65 -148.5t-73 -167t-145 -67.5q-53 0 -86 62q-22 41 -22 86t17 83q76 173 166 180q38 3 78 -28zM294 242q0 31 -12.5 58t-26 39t-44.5 16l1 -5q-25 -6 -48 -24q-54 -44 -86 -138q-6 -17 -6 -46t16.5 -61.5t49 -32.5t72.5 30.5t55 60.5q29 58 29 103z M351 518q-7 -24 -29 -24t-37.5 14.5t-15.5 34t17 29.5t25.5 10t23.5 -6q21 -9 21 -32q0 -10 -5 -26zM170 562q2 -56 -36 -56q-19 0 -34.5 15t-15.5 34q0 30 40 37q11 1 28.5 -6.5t17.5 -23.5z" />
<glyph unicode="&#x3a9;" horiz-adv-x="1443" d="M1425 329q0 -8 -6.5 -10t-21 -2t-121 4.5t-209.5 4.5t-173 -15q-41 -9 -177 -74t-187 -65q-29 0 -45 17t-16 41t7.5 55.5t7.5 42.5q0 27 -29 27q-62 0 -207 -78t-185 -135q-8 -12 -19 -12q-19 0 -24.5 22.5t64.5 80t160 103.5q153 78 238 78q22 0 34 -8q30 -20 30 -57 q0 -18 -8 -50t-8 -43q0 -25 22 -25q24 0 141 55.5t174 69t165.5 13.5t244 -10t142 -16t6.5 -14z" />
<glyph unicode="&#x3bc;" horiz-adv-x="420" d="M39 -197q0 204 46 550q0 19 -1 41t6 30.5t22 5.5t28.5 -25.5t13.5 -34.5q-5 -128 11 -217t41 -89q18 0 46.5 74t36.5 170q4 39 6 50q6 34 21 39q6 2 12 2q17 0 26.5 -15.5t7.5 -32.5q-11 -166 -11 -225q0 -104 21 -125q10 -10 10 -33q0 -33 -38 -30.5t-38 27.5 q0 22 16 40q1 2 -16 139q-36 -117 -69 -132q-17 -8 -32 -8q-60 0 -91 122q-22 -171 -24.5 -335t3.5 -176t6 -23.5t-9.5 -20t-20.5 -5.5q-29 8 -29 41l5 28q0 2 -3 58.5t-3 109.5z" />
<glyph unicode="&#x3c0;" horiz-adv-x="798" d="M749 370q17 -3 17 -21q0 -27 -25 -26q-54 1 -245 12q-200 14 -375 12q58 -78 190 -262q23 -33 23 -58.5t-19.5 -28.5t-26.5 9.5t-12 41.5q-2 12 -106.5 151.5t-113.5 143.5q-15 7 -20 11.5t-6 17t20 27.5q41 63 133 191q13 17 34.5 34t28.5 25t18 8t19 -7.5t8 -15 t-3 -12.5q-17 -11 -81 -86q-36 -47 -88 -137q106 -2 308 -9q292 -17 322 -21z" />
<glyph unicode="&#x2013;" horiz-adv-x="684" d="M662 269q0 -21 -22 -21q-8 0 -32.5 8t-118.5 13t-151 2.5t-154.5 -19t-113.5 -16.5t-23 3q-26 13 -26 28.5t14.5 21.5t128 18.5t177 14.5t151.5 -2.5t96 -4.5q76 0 74 -46z" />
<glyph unicode="&#x2014;" horiz-adv-x="894" d="M879 275q2 -25 -23 -25q-14 0 -32 12.5t-470 17.5q-102 1 -203 -15.5t-90 -16.5q-28 0 -28 33q0 22 16 27q110 30 276 26.5t355 -15.5l152 -10q14 2 30.5 -7.5t16.5 -26.5z" />
<glyph unicode="&#x2018;" horiz-adv-x="237" d="M160 713q-11 -17 -26 -45q-22 -38 -22 -87t20 -79l21 -30q-2 -1 -6 -1q-25 0 -53.5 28t-33.5 94q-2 33 20.5 87t31.5 61q7 4 18.5 4t22.5 -11t7 -21z" />
<glyph unicode="&#x2019;" horiz-adv-x="240" d="M163 516q-20 -19 -55 -33t-41.5 -10.5t-6.5 5.5t33 24q58 38 58 72q0 14 -9 30.5t-17.5 33.5t-34 38t-25.5 29t10 17q16 13 31.5 13t27.5 -14q66 -79 66 -134q0 -36 -37 -71z" />
<glyph unicode="&#x201a;" horiz-adv-x="234" d="M141 51q62 -79 62 -129q0 -59 -67 -66q-28 -3 -64.5 6.5t-39.5 18.5q-4 7 1.5 7.5t38.5 -1.5q75 -7 75 31q0 16 -11.5 40.5t-36.5 47.5t-25 31t12 18t27.5 10t27.5 -14z" />
<glyph unicode="&#x201c;" horiz-adv-x="342" d="M285 473q-3 -20 -29 -20q-10 0 -25.5 4.5t-38.5 35.5t-24 73.5t24.5 123.5t59.5 81q7 0 13.5 -11.5t6.5 -21t-4 -14.5q-50 -67 -50 -156q0 -29 15.5 -53t24.5 -22t19 -4t8 -16zM152 732q-8 -15 -56 -177q-8 -30 -8 -60t8.5 -47t26 -33.5t17.5 -20.5q3 -16 -22 -19 q-17 -2 -51 39t-30.5 92.5t32.5 142.5t37 101t18 10t19.5 -8.5t8.5 -19.5z" />
<glyph unicode="&#x201d;" horiz-adv-x="300" d="M245.5 483.5q-9.5 -18.5 -17.5 -13.5q-2 1 -7.5 47.5t-23.5 101.5t-37 82.5t-19.5 33t12 19.5t20.5 14t11 -4q17 -22 25 -34q16 -29 32.5 -86.5t15 -99.5t-11 -60.5zM141 544q-5 -82 -38 -123q-24 -29 -49 -29q-4 0 -6 1l18 32q24 43 24 99q0 64 -27 127l-22 44 q-4 12 7 26t22.5 14t19.5 -7t30.5 -75t20.5 -109z" />
<glyph unicode="&#x201e;" horiz-adv-x="402" d="M308 61q63 -75 63 -127.5t-40.5 -75.5t-90.5 -23q-23 0 -23 8q0 3 39 16q63 21 63 59q0 14 -20 59q-8 16 -32.5 39t-24.5 31t7 15q16 13 31.5 13t27.5 -14zM135 51q62 -79 62 -129q0 -59 -67 -66q-28 -3 -64.5 6.5t-39.5 18.5q-4 7 1.5 7.5t38.5 -1.5q75 -7 75 31 q0 16 -11.5 40.5t-36.5 47.5t-25 31t12 18t27.5 10t27.5 -14z" />
<glyph unicode="&#x2020;" horiz-adv-x="451" d="M353 624q0 -25 -33.5 -22.5t-62.5 -1.5q3 -113 7 -164q2 -86 10 -188q2 -5 2 -10q0 -25 -27 -25q-31 0 -31 29q0 5 2.5 18t-1 134t-3.5 141.5t-1 54.5q-64 -23 -71.5 -23t-16.5 10t-9 20t16 20t79 22q-3 41 -4 72t7 36q14 7 28 -8q10 -9 10 -21v-23q1 -12 2 -49 q60 9 78.5 4.5t18.5 -26.5z" />
<glyph unicode="&#x2021;" horiz-adv-x="336" d="M284 624q0 -26 -33.5 -22.5t-62.5 -0.5q3 -116 8 -185q53 9 83 6q19 -2 19 -21q0 -13 -15 -27q-3 -2 -32 -3t-54 -3q4 -109 7 -117t3 -13q0 -25 -27 -25q-31 0 -31 30q0 5 2.5 17.5t-0.5 101.5q-30 -5 -44 -11l-7 -11q-5 -7 -18 -4q-28 5 -28 27q0 10 13 20t83 25 q-1 42 -2 95.5t-2 86.5l-69 -22q-10 0 -19 9.5t-9 20t16 20.5t79 21q-3 41 -4 72.5t7 35.5q14 8 26 -4.5t12 -24.5v-23q1 -11 2 -49q60 9 80 5q17 -5 17 -27z" />
<glyph unicode="&#x2022;" horiz-adv-x="387" d="M328 250q0 -35 -36 -60.5t-89 -25.5t-94 19q-53 24 -49 71.5t38 69t92.5 18t87.5 -15.5q50 -21 50 -76z" />
<glyph unicode="&#x2026;" horiz-adv-x="792" d="M682 -8q-12 -12 -27 -12t-28 14t-13 30.5t8.5 27.5t24.5 11t31.5 -14.5t15.5 -29.5t-12 -27zM436 21q0 -37 -35 -37q-32 0 -32 36q0 16 11 26t23.5 12t22.5 -9t10 -28zM192 20q0 -36 -41 -36q-18 0 -29.5 12t-13.5 26.5t11 25.5t31 11q42 0 42 -39z" />
<glyph unicode="&#x2030;" horiz-adv-x="729" d="M293 565q33 -18 33 -62.5t-44 -88.5q-29 -29 -72.5 -52.5t-80 -23.5t-58.5 24q-11 12 -11 37t21.5 61.5t36.5 44.5q1 1 16 21t44 36.5t60 16.5t55 -14zM584 -91q-62 0 -62 65q0 40 27 90q44 81 60 81q13 0 20 -24q46 -7 62 -55q5 -14 5 -29q0 -49 -46 -95 q-32 -33 -66 -33zM573 665q-36 -18 -43 -23q-31 -24 -55 -75q-324 -682 -325 -772q0 -48 -39 -48q-13 0 -17 6q-11 22 -11 35.5t10 26.5q38 96 108 271.5t213 483.5q37 79 62 108t56 41q7 3 18.5 3t21 -13t9.5 -26.5t-8 -17.5zM436 136q38 -22 38 -76.5t-62 -112.5 q-38 -36 -75 -36q-22 0 -38.5 11.5t-20 22.5t-3.5 24q0 73 83 168q27 30 36 30q12 0 16 -23q15 -2 26 -8zM265.5 521q-10.5 10 -27 10t-38 -13t-30.5 -27q-7 -20 -22 -46q-7 3 -17 4q-20 -27 -20 -45t26 -18q38 0 88.5 42.5t50.5 67.5q0 15 -10.5 25zM647 49q-10 25 -21 25 q-17 0 -46 -61q-12 -25 -12 -42q0 -24 21.5 -16t41.5 29.5t20 38.5t-4 26zM398 98q-28 0 -59 -64q-16 -34 -16 -56q0 -28 26 -19t52 37t26 57q0 15 -8 30t-21 15z" />
<glyph unicode="&#x2039;" horiz-adv-x="321" d="M104 316q10 -6 87 -43t89.5 -47t12.5 -23q0 -28 -18 -28q-9 0 -45 25t-96.5 51.5t-63.5 27.5q-43 23 -43 42q0 6 4 13t103.5 40.5t107 36.5t14.5 3q19 0 19 -22t-11 -25q-81 -19 -160 -51z" />
<glyph unicode="&#x203a;" horiz-adv-x="321" d="M81 411q7 -3 107 -36.5t104 -40.5t4 -13q0 -19 -43 -42q-3 -1 -63.5 -27.5t-97 -51.5t-44.5 -25q-18 0 -18 28q0 13 6 18q19 15 95.5 52t87.5 43q-36 15 -160 51q-11 3 -11 25t19 22q7 0 14 -3z" />
<glyph unicode="&#x2044;" horiz-adv-x="234" d="M287 650q-34 -16 -57 -65q-243 -511 -243 -578q-1 -29 -22 -37q-19 -6 -24 2t-10 22q-3 16 7 30q22 54 47 119l10 24q76 192 184 423q45 97 90 113q6 2 12 2q28 0 28 -33q0 -10 -7 -14t-15 -8z" />
<glyph unicode="&#x2122;" horiz-adv-x="681" d="M631 438q11 -38 11 -42q0 -15 -16 -21q-7 -2 -16.5 -2t-18 9t-8.5 14.5t-10 52t-13.5 66.5t-10 21t-58.5 -78q-8 -14 -16 -26.5t-26.5 -12.5t-36 39.5t-20 39.5t-6.5 -18t-5.5 -49.5t-3.5 -45.5q-3 -11 -29 -11q-22 0 -27 32q-8 61 5 126q4 30 8 57.5t22 27.5q5 -4 24 -2 q4 2 9 2q25 0 36 -25q8 -26 17.5 -56t15 -28.5t41.5 46t41 51t12 17t22 8.5q23 -4 27 -30q8 -48 21 -104q0 -15 9 -58zM531 661q0 -21 -24 -21q-8 0 -17 4q-44 20 -255 -27q-7 -41 -12.5 -109t-1.5 -92t4 -26q0 -21 -25 -23q-20 -2 -25.5 13.5t-1.5 34.5t4 82t5 108 q-32 -7 -77.5 -12.5t-48.5 -5.5q-18 0 -24 14q-2 6 -2 11q0 16 45 19q27 0 111 11q7 56 10 58q12 12 23 12t25 -18q3 -4 -3 -41l12 3q103 22 160.5 23t62.5 1.5t13.5 4t16 3.5t16.5 -9.5t9 -17.5z" />
<glyph unicode="&#x2202;" horiz-adv-x="483" d="M500 280q0 -25 -29 -25q-14 0 -25 12q-13 17 -16.5 19t-17.5 2q-49 -104 -130 -196q-37 -42 -94.5 -80t-95.5 -38t-59 21.5t-21 62t34 94.5q105 168 330 189q19 46 19 106q0 99 -61 153q-45 39 -97 39q-77 0 -130 -44q-5 -4 -15.5 -4t-22 7t-11.5 17q0 31 64.5 51.5 t101.5 19.5q76 -2 140 -50t75 -134q7 -52 7 -78t-15 -85q14 -2 47 -16q22 -14 22 -43zM356 286q-36 -4 -70 -15q-130 -40 -195 -144q-29 -45 -29 -73.5t24 -28.5q29 0 84.5 38.5t77.5 68.5q28 34 59 74t49 80z" />
<glyph unicode="&#x220f;" horiz-adv-x="798" d="M748 400q42 -31 -6 -56q-9 -4 -113.5 -143.5t-106.5 -151.5q-5 -29 -12 -41t-26 -10q-20 3 -20 28.5t23 58.5q60 80 190 262q-175 2 -311.5 -7.5t-308.5 -16.5q-26 -1 -26 26q0 19 17 21q29 4 323 21q36 2 307 9q-25 43 -88 137q-27 37 -52 59t-28.5 27t-3.5 12t8.5 15 t19 8t19.5 -9q19 -14 62 -58q30 -38 80.5 -114t52.5 -77z" />
<glyph unicode="&#x2211;" horiz-adv-x="1398" d="M1368 358q2 -10 -6 -16q-11 -6 -22.5 -12.5t-88.5 -8t-124 3.5q-155 17 -267 18t-289 7q8 -21 23 -116q3 -33 3 -76q0 -132 -19 -140q-10 -4 -22.5 -4t-27.5 21q-19 29 -21 30q-169 131 -335 236l-142 84q-4 23 4 27t218.5 102t212.5 104q10 28 35 28q11 0 28.5 -17 t17.5 -25t-6 -12.5t-7 -6.5q-5 -9 29 -186q113 3 266 -2t220 -13q112 -12 243 -12q14 0 24.5 5.5t20.5 5.5q27 0 32 -25zM541 100q4 125 -8 180q-31 148 -53 284l-381 -169q55 -29 198 -120q132 -93 244 -175z" />
<glyph unicode="&#x2212;" d="M554 275q0 -14 -14.5 -19t-55.5 -5q-126 0 -219.5 -19.5t-118.5 -19.5t-28 15q-7 34 48 48q35 9 147 17.5t176.5 8.5t64.5 -26z" />
<glyph unicode="&#x221a;" horiz-adv-x="819" d="M819 444q-14 -9 -28 -10q-24 -2 -69 -22q18 -23 13 -58q-11 -80 -96 -175t-199 -160.5t-204 -65.5q-105 0 -159 90q-48 78 -40 185q10 141 116 263q79 89 183.5 149.5t127.5 59.5q36 -1 36 -27q0 -5 -1 -12l-92 -48q-108 -57 -180 -128q-104 -101 -130 -224 q-5 -22 -5 -50q0 -82 35 -136q44 -72 134 -64q75 6 171.5 68.5t166.5 140.5t70 125q0 20 -14 30q-4 3 -14 3q-39 0 -175.5 -58.5t-138.5 -58.5q-13 2 -25 12t-12 18t6 13q26 19 184.5 86t323.5 117q9 2 19 -10t10 -28t-14 -25z" />
<glyph unicode="&#x221e;" horiz-adv-x="669" d="M178 18l4 -29q0 -27 -28 -24q-18 1 -27 18.5t-7 36.5q5 88 24 308q-88 -24 -121 -41q-7 -3 -16.5 6.5t-9.5 20t5 17.5q13 20 148 51q32 276 44 297q7 12 19 12t24 -13t12 -22.5t-13.5 -84t-27.5 -177.5q83 17 228 38q10 134 12 155q12 93 34 92q36 -1 36 -37 q0 -15 -8 -67.5t-12 -92.5l-3 -42q218 30 234 23q19 -2 19 -23q0 -3 -1 -6q0 -23 -29 -23q-7 0 -15 3q-16 7 -211 -19q-18 -228 -18 -273t4.5 -52t16.5 -11t12 -10q0 -3 -2 -6q-32 -65 -47 -65q-8 0 -21.5 10.5t-13.5 126t10 271.5q-113 -18 -232 -44q-28 -209 -23 -324z " />
<glyph unicode="&#x222b;" horiz-adv-x="1398" d="M1368 385l-142 -84q-166 -105 -335 -236q-2 -1 -21 -30q-15 -21 -27.5 -21t-22.5 4q-19 8 -19 140q0 90 10 129t16 63q-84 -3 -242.5 -5.5t-313.5 -19.5q-47 -5 -124 -3.5t-88.5 8t-21 12.5t-7.5 16q5 25 32 25q10 0 20.5 -5.5t24.5 -5.5q87 0 142 3q59 8 230 19 q228 8 357 4q33 178 29 187q-1 2 -7 6.5t-6 12.5t17.5 25t28.5 17q25 0 35 -28q2 -6 212.5 -104t218.5 -102t4 -27zM1299 395l-381 169l-58 -313q-6 -48 -3 -151q51 37 244 175q51 36 117 73t81 47z" />
<glyph unicode="&#x2248;" d="M515 294q-13 -7 -39 -25q-78 -63 -131 -58t-73 72q-3 16 -9 37.5t-11 23t-11 1.5q-27 0 -67 -47q-31 -39 -62 -79q-6 -6 -20 -6q-23 0 -23 20q0 30 66 96q63 61 113 63q34 0 51 -34q5 -8 20 -64q10 -34 26 -34q52 0 130 70q15 14 22 14.5t17.5 -8.5t10.5 -20.5t-10 -21.5 zM582 245q8 -10 8 -26t-17 -19q-7 -1 -67.5 -38.5t-84.5 -49.5q-77 -42 -114.5 -42t-49.5 29q-7 16 -9.5 55t-7 44.5t-9.5 5.5q-17 0 -53.5 -31.5t-38.5 -46.5t-19 -15q-30 0 -30 24q0 26 54 74.5t99 43.5q29 -4 42 -37q7 -18 10.5 -55.5t10.5 -38.5q22 -6 116 43.5 t111 69.5t29 20t20 -10z" />
<glyph unicode="&#x2260;" d="M151 152l-105 -14q-40 0 -44 21q-2 7 -2 13q0 31 37 31q12 0 147 9q29 48 64 98q-169 -17 -190.5 -17t-24.5 3q-10 10 -7.5 23t9 14t43 0t198.5 16q81 114 166 199q16 17 27.5 17t23.5 -12t12 -24t-16 -29l-26 -24q-21 -22 -100 -120q170 4 188 2t31 0.5t20.5 2.5t17 -11 t9.5 -21q0 -27 -38 -28q-18 -1 -34 9t-33 11q-100 4 -189 -3q-23 -30 -73 -102l327 10q7 0 22 1.5t21 -0.5t12.5 -12t6.5 -22q0 -38 -57 -17q-19 6 -85.5 6t-282.5 -22q-80 -126 -74 -162q1 -5 4 -5t7 0.5t6 0.5q10 0 9.5 -19.5t-21.5 -30t-50 -6.5q-28 3 -28 39t72 175z " />
<glyph unicode="&#x2264;" horiz-adv-x="342" d="M40 81q10 71 38 175q42 150 80 168q17 7 31 7q110 0 122 -391q1 -21 -6 -29t-19 -6q-31 6 -30 38q5 129 -17 228t-50 99q-11 0 -21 -17q-32 -56 -49.5 -145.5t-18.5 -129t-32 -37.5q-24 1 -28 40zM331 518q-7 -24 -29 -24t-37.5 14.5t-15.5 34t17 29.5t25.5 10t23.5 -6 q21 -9 21 -32q0 -10 -5 -26zM150 562q2 -56 -36 -56q-19 0 -34.5 15t-15.5 34q0 30 40 37q11 1 28.5 -6.5t17.5 -23.5z" />
<glyph unicode="&#x2265;" horiz-adv-x="342" d="M313 355q-10 -71 -38 -175q-42 -150 -80 -168q-16 -8 -31 -8q-110 0 -122 392q-1 20 6.5 28.5t18.5 6.5q31 -6 30 -38q-5 -129 17 -228t51 -99q10 0 20 17q32 56 49.5 145.5t18.5 129t32 37.5q24 -1 28 -40zM331 518q-7 -24 -29 -24t-37.5 14.5t-15.5 34t17 29.5t25.5 10 t23.5 -6q21 -9 21 -32q0 -10 -5 -26zM150 562q2 -56 -36 -56q-19 0 -34.5 15t-15.5 34q0 30 40 37q11 1 28.5 -6.5t17.5 -23.5z" />
<glyph unicode="&#x25ca;" horiz-adv-x="243" d="M142 38q0 -33 -27 -33q-12 0 -24 9.5t-12 64.5q0 3 7 144.5t8 148.5q6 36 27 37q15 1 25 -11.5t8 -32.5q-21 -193 -23.5 -237t4.5 -65.5t7 -24.5zM278 518q-7 -24 -29 -24t-37.5 14.5t-15.5 34t17 29.5t25.5 10t23.5 -6q21 -9 21 -32q0 -10 -5 -26zM97 562q2 -56 -36 -56 q-19 0 -34.5 15t-15.5 34q0 30 40 37q10 1 26 -5q20 -9 20 -25z" />
<glyph unicode="&#xe000;" horiz-adv-x="440" d="M0 440h440v-440h-440v440z" />
<glyph unicode="&#xf000;" horiz-adv-x="588" d="M346 655q95 -2 152 -73t56 -205.5t-79 -221.5q-56 -62 -147 -95q-43 -11 -85 -22q-10 -5 -27 -5t-24 16q-3 7 -3 18t13 20t22.5 9t12.5 -2q13 -7 78 14t113 75q65 74 69 187t-45.5 173.5t-117.5 61.5q-100 1 -173 -89t-76 -185q-2 -70 9 -95t58 -25t90 41.5t48 111.5 q2 26 -3.5 39.5t-29.5 11t-42 -21.5t-19.5 -37t-18.5 -18q-10 0 -11 15q-3 34 26 69.5t80 35.5q65 0 65 -79t-45 -143q-55 -79 -151 -76q-108 4 -110.5 133t73.5 237q91 128 242 125z" />
<glyph unicode="&#xf001;" horiz-adv-x="525" d="M118 -338q-39 0 -39 35q0 15 8 24.5t23.5 95.5t20 162.5t0.5 242.5q-24 -9 -34 -16t-21 -24t-25.5 -17t-25.5 11t-11 24q0 37 114 72v64q-5 377 173 377q35 0 58 -9t32 -20q6 18 12 35q5 12 19 12q28 0 25 -32q-7 -15 -27 -62q-7 -19 -9.5 -39t-8.5 -24q-15 -18 -28 -6 q-18 16 -1 73q-48 24 -76 24q-117 0 -116 -330q0 -8 0.5 -24t0.5 -25q127 34 128 34q67 19 68 28q10 61 35 61q14 0 24 -12t8 -32q-20 -170 -23 -225.5t4 -77t7 -24.5q0 -33 -27 -33q-12 0 -24.5 9.5t-12.5 65.5q0 7 10 207q-50 -7 -196 -49q2 -220 0.5 -287.5t-18 -155.5 t-13.5 -97t-6.5 -22.5t-27.5 -13.5z" />
<glyph unicode="&#xf002;" horiz-adv-x="480" d="M141 -306q0 -32 -36 -32t-36 35q0 15 7 24.5t23 95.5t20.5 160t0.5 245q-24 -9 -32 -15q-12 -7 -23.5 -24.5t-25.5 -17.5t-25 11t-11 24q0 37 114 72v64q-3 197 89 304q74 86 171 86q26 0 46 -7q10 12 24 12t23 -12t9 -26t-19.5 -112.5t-46 -259t-21.5 -314.5 q3 -66 -27 -66q-10 0 -24 10q-7 5 -7 68t24 266q-80 -14 -186 -47q2 -220 0.5 -287.5t-17.5 -155.5t-15 -92t1 -9zM412 675q-243 -1 -242 -340q0 -8 0.5 -24t0.5 -25l195 53q8 55 19 140t27 196z" />
</font>
</defs>
</svg>
