<?xml version="1.0" encoding="UTF-8" standalone="no"?>
<!-- Created with Inkscape (http://www.inkscape.org/) -->

<svg
   xmlns:dc="http://purl.org/dc/elements/1.1/"
   xmlns:cc="http://creativecommons.org/ns#"
   xmlns:rdf="http://www.w3.org/1999/02/22-rdf-syntax-ns#"
   xmlns:svg="http://www.w3.org/2000/svg"
   xmlns="http://www.w3.org/2000/svg"
   xmlns:sodipodi="http://sodipodi.sourceforge.net/DTD/sodipodi-0.dtd"
   xmlns:inkscape="http://www.inkscape.org/namespaces/inkscape"
   width="37.016304"
   height="34"
   id="svg2"
   version="1.1"
   inkscape:version="0.48.3.1 r9886"
   sodipodi:docname="logo2.svg">
  <defs
     id="defs4">
    <filter
       id="filter3108"
       inkscape:label="Lightness-Contrast"
       x="0"
       y="0"
       width="1"
       height="1"
       inkscape:menu="Color"
       inkscape:menu-tooltip="Increase or decrease lightness and contrast"
       color-interpolation-filters="sRGB">
      <feColorMatrix
         id="feColorMatrix3110"
         type="saturate"
         values="0"
         result="fbSourceGraphic" />
      <feColorMatrix
         result="fbSourceGraphicAlpha"
         in="fbSourceGraphic"
         values="0 0 0 -1 0 0 0 0 -1 0 0 0 0 -1 0 0 0 0 1 0"
         id="feColorMatrix3112" />
      <feFlood
         id="feFlood3114"
         result="result1"
         flood-opacity="0"
         flood-color="rgb(128,128,128)"
         in="fbSourceGraphic" />
      <feBlend
         id="feBlend3116"
         in2="fbSourceGraphic"
         mode="normal"
         result="result2" />
      <feComposite
         id="feComposite3118"
         in2="fbSourceGraphic"
         k2="1"
         operator="arithmetic"
         result="result3"
         k1="0"
         k3="0"
         k4="0" />
      <feComposite
         id="feComposite3120"
         in2="fbSourceGraphic"
         operator="in"
         result="fbSourceGraphic" />
      <feColorMatrix
         result="fbSourceGraphicAlpha"
         in="fbSourceGraphic"
         values="0 0 0 -1 0 0 0 0 -1 0 0 0 0 -1 0 0 0 0 1 0"
         id="feColorMatrix3124" />
      <feFlood
         id="feFlood3126"
         result="result1"
         flood-opacity="0"
         flood-color="rgb(128,128,128)"
         in="fbSourceGraphic" />
      <feBlend
         id="feBlend3128"
         in2="fbSourceGraphic"
         mode="normal"
         result="result2" />
      <feComposite
         id="feComposite3130"
         in2="fbSourceGraphic"
         k2="1"
         operator="arithmetic"
         result="result4"
         k1="0"
         k3="0"
         k4="0" />
      <feComposite
         id="feComposite3132"
         in2="fbSourceGraphic"
         operator="in" />
    </filter>
  </defs>
  <sodipodi:namedview
     id="base"
     pagecolor="#ffffff"
     bordercolor="#666666"
     borderopacity="1.0"
     inkscape:pageopacity="0.0"
     inkscape:pageshadow="2"
     inkscape:zoom="1.3377778"
     inkscape:cx="180.35962"
     inkscape:cy="129.4081"
     inkscape:document-units="px"
     inkscape:current-layer="layer1"
     showgrid="false"
     inkscape:window-width="1218"
     inkscape:window-height="776"
     inkscape:window-x="62"
     inkscape:window-y="24"
     inkscape:window-maximized="1"
     fit-margin-top="0"
     fit-margin-left="0"
     fit-margin-right="0"
     fit-margin-bottom="0" />
  <metadata
     id="metadata7">
    <rdf:RDF>
      <cc:Work
         rdf:about="">
        <dc:format>image/svg+xml</dc:format>
        <dc:type
           rdf:resource="http://purl.org/dc/dcmitype/StillImage" />
        <dc:title></dc:title>
      </cc:Work>
    </rdf:RDF>
  </metadata>
  <g
     inkscape:label="Layer 1"
     inkscape:groupmode="layer"
     id="layer1"
     transform="translate(-74.444316,-422.83045)">
    <g
       id="g3194"
       style="fill:#ffffff"
       transform="matrix(0.12840663,0,0,0.12840663,64.885172,398.17039)">
      <path
         id="path3182"
         d="m 154.00863,455.26864 c -15.77376,-4.24238 -25.53356,-10.03636 -38.61049,-22.92139 -11.08172,-10.91909 -17.760679,-20.6156 -22.050059,-32.01226 -1.44649,-3.84326 -3.00136,-7.43774 -3.45527,-7.98774 -1.0454,-1.26672 -3.49698,-11.0461 -4.88843,-19.5 -3.15768,-19.1848 -3.34842,-48.68755 -0.21012,-32.5 2.12593,10.96569 3.12425,14.8932 7.24429,28.5 7.33845,24.23585 16.272289,41.74222 28.203849,55.26703 12.36159,14.01227 20.63244,19.63157 45.64633,31.0126 l 3.5,1.59246 -5,-0.002 c -2.75,-10e-4 -7.42104,-0.653 -10.3801,-1.44884 z"
         style="fill:#ffffff"
         inkscape:connector-curvature="0" />
      <path
         id="path3180"
         d="m 218.40933,454.87745 c 1.66134,-1.06487 5.52456,-2.58831 8.58495,-3.38544 5.65088,-1.47187 17.42135,-6.92766 18.05003,-8.36647 0.18943,-0.43354 3.26942,-3.0981 6.84442,-5.92125 18.56258,-14.6587 29.97389,-37.54254 29.99299,-60.14688 0.0117,-13.81714 -5.35973,-20.5553 -18.80041,-23.58414 -8.07182,-1.81897 -13.5129,-1.98045 -35.79852,-1.06242 -18.65053,0.76828 -52.64155,-0.75306 -70.89406,-3.17303 -6.05,-0.80212 -14.51508,-1.91063 -18.81128,-2.46334 -9.75016,-1.25439 -27.13279,-6.8807 -35.13036,-11.37081 -13.665179,-7.67209 -20.016639,-15.92541 -20.042809,-26.04434 -0.0343,-13.2687 9.40723,-22.48279 30.137549,-29.41149 9.02317,-3.01582 22.08392,-5.05518 36.93718,-5.76753 17.5016,-0.83937 18.06792,0.68109 1.32877,3.56744 -16.41028,2.82964 -28.33275,6.27694 -37.83791,10.94056 -8.32543,4.08481 -17.362179,12.14504 -18.439979,16.44735 -0.98243,3.9216 1.71736,9.06682 6.667799,12.70742 4.6679,3.43281 6.51555,3.74967 7.3131,1.25417 2.18926,-6.85008 7.30764,-10.90423 19.28557,-15.27564 9.6165,-3.50958 20.61236,-5.64311 33.74552,-6.54764 12.31286,-0.84804 13.98279,0.43124 4.57362,3.50369 -16.10202,5.25791 -29.16543,13.96983 -33.77087,22.52162 -1.65983,3.08211 -1.7367,3.75639 -0.51441,4.51181 2.71837,1.68004 18.61431,2.53605 46.05851,2.48027 56.79762,-0.11542 94.03357,-6.02716 105.84501,-16.80442 9.18029,-8.37648 5.71213,-18.04642 -9.58731,-26.73146 -2.33326,-1.32453 -4.24576,-2.6979 -4.25,-3.05193 -0.0154,-1.28536 8.66453,1.33893 15.86541,4.79676 9.93902,4.77266 15.55932,10.47322 17.01422,17.25717 0.61197,2.85352 1.11267,7.33005 1.11267,9.94786 0,2.61781 0.5625,5.49612 1.25,6.39624 1.13915,1.49146 1.73776,1.50349 6.75,0.13567 3.025,-0.82551 9.55,-1.55269 14.5,-1.61596 7.86721,-0.10056 9.79069,0.24008 15.28203,2.70639 13.59809,6.1073 22.25142,20.54963 20.9113,34.90076 -1.00961,10.81161 -3.04683,12.94879 -4.12412,4.32647 -0.87686,-7.01814 -5.51898,-14.98428 -10.7485,-18.44501 -3.35451,-2.2199 -5.53626,-2.81042 -11.49542,-3.11134 -6.33704,-0.32001 -8.08746,-0.0131 -12.64586,2.2171 -10.11819,4.95037 -16.17326,15.70716 -19.75831,35.10047 -1.19923,6.48724 -5.20761,17.17985 -10.05367,26.81882 -8.47733,16.86168 -23.13423,32.71896 -36.0704,39.02451 -9.04964,4.41111 -34.54028,12.69369 -38.99638,12.67094 l -3.30067,-0.0168 3.0206,-1.93611 z"
         style="fill:#ffffff"
         inkscape:connector-curvature="0" />
      <path
         id="path3172"
         d="m 297.88873,409.07692 c 0,-1.64871 12.37493,-12.70517 16.31048,-14.57271 4.72638,-2.24282 18.03058,-10.10991 21.76017,-12.86732 3.45204,-2.5522 7.8125,-8.89542 9.02777,-13.13281 2.07174,-7.22374 -3.92324,-15.77564 -12.01754,-17.14317 -5.57463,-0.94182 -5.1512,-2.51861 0.66912,-2.4917 16.75275,0.0775 26.89453,18.95368 17.44974,32.47804 -3.19292,4.57206 -10.6539,8.89624 -22.47246,13.02443 -7.25741,2.535 -21.7002,9.69795 -27.97728,13.87543 -1.5125,1.00659 -2.75,1.38 -2.75,0.82981 z"
         style="fill:#ffffff"
         inkscape:connector-curvature="0" />
      <path
         id="path3164"
         d="m 192.88873,304.44151 c 0,-0.22316 2.89244,-1.75928 6.42764,-3.4136 27.61458,-12.92242 45.12554,-38.1189 40.04571,-57.62167 -1.70768,-6.55623 -3.79103,-9.87471 -9.15742,-14.58646 -11.40365,-10.01254 -27.53543,-11.10387 -63.06532,-4.26643 -19.1276,3.68095 -38.35395,3.87845 -45.88305,0.47133 -2.82283,-1.27741 -6.39452,-3.63991 -7.93709,-5.25 -3.14782,-3.28562 -2.31459,-3.71406 2.52641,-1.29906 2.59584,1.29498 5.23776,1.52343 12.90364,1.11579 10.8409,-0.57647 18.69272,-2.78106 40.13948,-11.27013 7.425,-2.93897 17.29629,-6.32473 21.93621,-7.5239 38.21117,-9.87561 68.78096,3.52266 74.9492,32.84909 6.30036,29.95455 -16.35551,57.76327 -55.88541,68.59599 -8.31977,2.27993 -17,3.40277 -17,2.19905 z"
         style="fill:#ffffff"
         inkscape:connector-curvature="0" />
      <path
         id="path3162"
         d="m 190.56375,288.3201 c 0.45374,-1.63507 0.82498,-5.30265 0.82498,-8.15019 0,-6.5 -2.32698,-9.92485 -9.05197,-13.32266 l -4.94803,-2.5 -32.66713,0.32905 c -27.46312,0.27663 -33.67598,0.0734 -39,-1.2756 -14.173089,-3.59126 -23.015059,-10.01447 -28.028579,-20.36127 -2.91864,-6.02341 -3.24329,-7.59158 -3.24866,-15.69218 -0.005,-7.5765 0.40015,-9.86992 2.56175,-14.5 3.2535,-6.9689 7.14329,-11.57518 12.80874,-15.1681 6.41328,-4.06718 7.98508,-3.50781 3.30212,1.17515 -5.39929,5.39929 -7.23013,9.62053 -7.21886,16.64408 0.0117,7.27948 4.09075,15.06322 9.91306,18.91624 7.722429,5.11047 11.440569,5.66593 43.077559,6.43554 29.58272,0.71963 36.28513,1.47579 44.57389,5.02876 5.13648,2.20176 11.00969,7.27653 13.15513,11.36677 4.8306,9.20945 2.42529,25.63248 -4.69759,32.07441 l -2.1814,1.97284 0.82499,-2.97284 z"
         style="fill:#ffffff"
         inkscape:connector-curvature="0" />
      <path
         id="path3144"
         d="m 99.888731,192.84725 c 1.374999,-0.44035 3.399999,-0.80064 4.499999,-0.80064 1.58366,0 1.47958,0.16667 -0.5,0.80064 -1.375,0.44035 -3.4,0.80064 -4.499999,0.80064 -1.58367,0 -1.47958,-0.16667 0.5,-0.80064 z"
         style="fill:#ffffff"
         inkscape:connector-curvature="0" />
    </g>
  </g>
</svg>
