<?xml version="1.0" encoding="UTF-8" standalone="no"?>
<!-- Created with Inkscape (http://www.inkscape.org/) -->

<svg
   xmlns:dc="http://purl.org/dc/elements/1.1/"
   xmlns:cc="http://creativecommons.org/ns#"
   xmlns:rdf="http://www.w3.org/1999/02/22-rdf-syntax-ns#"
   xmlns:svg="http://www.w3.org/2000/svg"
   xmlns="http://www.w3.org/2000/svg"
   xmlns:sodipodi="http://sodipodi.sourceforge.net/DTD/sodipodi-0.dtd"
   xmlns:inkscape="http://www.inkscape.org/namespaces/inkscape"
   width="744.09448819"
   height="1052.3622047"
   id="svg4289"
   version="1.1"
   inkscape:version="0.48.3.1 r9886"
   sodipodi:docname="New document 11">
  <defs
     id="defs4291" />
  <sodipodi:namedview
     id="base"
     pagecolor="#ffffff"
     bordercolor="#666666"
     borderopacity="1.0"
     inkscape:pageopacity="0.0"
     inkscape:pageshadow="2"
     inkscape:zoom="0.35"
     inkscape:cx="375"
     inkscape:cy="520"
     inkscape:document-units="px"
     inkscape:current-layer="layer1"
     showgrid="false"
     inkscape:window-width="1218"
     inkscape:window-height="776"
     inkscape:window-x="62"
     inkscape:window-y="24"
     inkscape:window-maximized="1" />
  <metadata
     id="metadata4294">
    <rdf:RDF>
      <cc:Work
         rdf:about="">
        <dc:format>image/svg+xml</dc:format>
        <dc:type
           rdf:resource="http://purl.org/dc/dcmitype/StillImage" />
        <dc:title></dc:title>
      </cc:Work>
    </rdf:RDF>
  </metadata>
  <g
     inkscape:label="Layer 1"
     inkscape:groupmode="layer"
     id="layer1">
    <path
       style="fill:#000000"
       d="m 339.52601,586.23871 c -0.55,-0.20705 -5.05,-0.92339 -10,-1.59187 -4.95,-0.66848 -12.26589,-2.08978 -16.25753,-3.15845 -3.99164,-1.06867 -7.68583,-1.67833 -8.20932,-1.3548 -0.52349,0.32354 -1.7576,0.15689 -2.74247,-0.37033 -0.98488,-0.52721 -3.81568,-1.69943 -6.29068,-2.60493 -12.07363,-4.41724 -25.72832,-16.81388 -36.87371,-33.47641 -15.45586,-23.10676 -21.27595,-41.10091 -28.61061,-88.45632 -3.05879,-19.74872 -3.58349,-25.71983 -3.78349,-43.0563 l -0.23219,-20.12782 2.71919,-4.12571 c 1.49556,-2.26914 5.99556,-6.73366 10,-9.92116 4.00445,-3.18751 9.49589,-7.7441 12.20321,-10.12576 9.75934,-8.58541 23.95292,-15.6062 43.0776,-21.30813 12.40221,-3.69766 19.06451,-4.65919 41.37424,-5.97127 29.38682,-1.7283 73.43486,-8.24083 75.26606,-11.12813 1.33835,-2.11023 0.98197,-8.67012 -0.6416,-11.80975 -0.82571,-1.59676 -3.5587,-4.31873 -6.07331,-6.04882 -5.69292,-3.91684 -20.77099,-10.94867 -23.47677,-10.94867 -1.10831,0 -4.17423,1.09411 -6.81316,2.43136 -11.60358,5.87998 -59.9668,11.31563 -67.23916,7.55716 -6.25812,-3.23429 -8.50675,-8.11084 -5.94618,-12.89531 1.46996,-2.74665 11.70778,-6.80154 20.45628,-8.10212 9.60714,-1.42822 38.78138,-0.47875 49.0936,1.59774 13.05137,2.62805 19.53231,1.62412 27.95025,-4.32964 7.54017,-5.33293 11.51063,-12.8804 13.03102,-24.77074 0.54786,-4.28457 0.29132,-5.51757 -1.76848,-8.5 -1.32511,-1.91865 -2.91677,-3.37956 -3.53702,-3.24647 -0.62026,0.1331 -2.08802,-1.05685 -3.26169,-2.64434 l -2.13397,-2.88634 -5.59398,2.56101 c -6.21716,2.84632 -15.02558,3.45434 -19.0261,1.31333 -3.42477,-1.83289 -1.9544,-2.40393 2.64309,-1.02649 4.01538,1.20304 11.4069,0.6865 14.08789,-0.98451 0.82614,-0.51491 -1.20516,-0.65859 -5.00208,-0.35381 -10.84779,0.87076 -17.22338,-3.39323 -12.06019,-8.06585 2.27294,-2.05698 6.06268,-2.09476 13.58511,-0.13541 4.40742,1.14798 6.17054,1.24031 7.2101,0.37755 3.03094,-2.51546 0.34444,-8.1332 -5.00225,-10.46021 l -3.1217,-1.35864 2.85,-0.0391 c 1.94105,-0.0267 3.93436,1.04522 6.25,3.36086 2.88116,2.88116 3.4,4.10196 3.4,8 0,2.9321 0.45323,4.65523 1.25,4.75232 0.6875,0.0838 1.7,0.25686 2.25,0.38465 0.55,0.12778 1.51383,0.28424 2.14185,0.34768 0.62801,0.0634 3.40809,2.1529 6.17794,4.64323 8.43304,7.58203 10.15042,16.56915 4.196,21.95783 -1.85531,1.67904 -1.85425,1.62033 0.0376,-2.09052 3.53427,-6.93228 1.74361,-13.55526 -4.95448,-18.32472 -3.67818,-2.6191 -3.90075,-2.07782 -0.84896,2.06461 1.94361,2.63821 2.23944,4.23272 2.17247,11.70951 -0.0686,7.65939 -0.39895,9.17326 -2.87063,13.15542 -3.85606,6.21255 -7.02296,9.46508 -14.30515,14.69192 -3.43932,2.4686 -6.04111,4.8317 -5.78176,5.25134 0.25935,0.41964 3.07334,1.56159 6.25331,2.53768 21.21022,6.51041 34.37233,20.7884 28.87104,31.31872 -3.95775,7.57574 -12.21581,11.02571 -29.07994,12.14872 -7.477,0.49791 -9.25035,0.85839 -7.00934,1.42485 10.39388,2.62725 28.0451,8.21633 34.46354,10.91252 4.14505,1.74121 7.80521,3.17673 8.13369,3.19004 1.15974,0.047 20.65998,12.59272 23.01503,14.807 l 2.38774,2.24502 4.27837,-4.33148 c 2.35311,-2.38232 6.85311,-5.51966 10,-6.97188 5.04111,-2.32636 6.97048,-2.63909 16.22163,-2.62939 8.42891,0.009 11.59125,0.44247 16.03241,2.19841 10.34221,4.0891 16.87605,13.22411 20.89003,29.20653 3.40512,13.55814 3.6121,18.44725 1.18752,28.05056 -3.04729,12.06977 -7.73414,21.20198 -15.88391,30.94944 -7.49602,8.96554 -11.09342,12.31153 -31.22605,29.04381 -12.16207,10.10792 -18.61722,16.17965 -28.12688,26.45619 -2.54478,2.75 -5.54283,5.82468 -6.66233,6.83262 -1.11949,1.00794 -2.33487,3.02563 -2.70084,4.48376 -1.2954,5.16127 -7.31733,16.99915 -12.96518,25.48688 -15.51031,23.30927 -29.71282,34.59881 -50.54477,40.17789 -5.94123,1.59114 -35.56202,3.2095 -38.5,2.10348 z m 36.20106,-4.62318 c 15.67953,-3.98427 31.86753,-13.96254 42.14961,-25.981 18.44187,-21.5562 34.62198,-66.23088 43.99734,-121.48045 l 2.88475,-17 -2.36638,-0.31642 c -3.33119,-0.44544 -2.96602,-2.32204 0.38362,-1.97143 2.63514,0.27583 2.76367,0.079 3.0773,-4.71215 0.18002,-2.75 0.0289,-7.83874 -0.33583,-11.3083 -0.59474,-5.65754 -0.87832,-6.2765 -2.74898,-6 -2.63917,0.39009 -3.53026,2.78155 -1.07582,2.88725 1.05111,0.0453 1.3,0.29415 0.58333,0.58333 -0.6875,0.27741 -1.25,0.90276 -1.25,1.38967 0,0.4869 0.675,0.62626 1.5,0.30968 0.825,-0.31659 1.5,-0.0775 1.5,0.53138 0,0.60885 -0.66643,1.10699 -1.48095,1.10699 -0.81452,0 -1.68628,1.0125 -1.93725,2.25 -0.25097,1.2375 -0.71059,3.45751 -1.02138,4.93335 -0.49206,2.33667 -0.20947,2.73721 2.18726,3.10017 2.69245,0.40775 2.68506,0.42008 -0.33939,0.56665 -2.72961,0.13228 -3.2392,0.64759 -4.35097,4.39983 -1.89867,6.40799 -7.50183,17.09915 -12.28921,23.44851 -11.68915,15.50296 -33.359,27.05106 -60.13242,32.04521 -13.32394,2.48537 -44.58398,2.17606 -62.37528,-0.6172 -21.30388,-3.34473 -35.40793,-7.45721 -51.23454,-14.93906 -4.13923,-1.95678 -8.87587,-3.54203 -10.52587,-3.5228 -2.25384,0.0263 -2.41614,-0.0709 -0.65252,-0.39067 2.06831,-0.37503 1.67649,-0.84536 -3.29459,-3.95479 -3.44264,-2.15338 -6.40435,-3.3298 -7.59748,-3.01779 -1.07548,0.28124 -1.95541,0.10348 -1.95541,-0.39503 0,-0.49851 0.7125,-0.90638 1.58333,-0.90638 2.64832,0 0.94888,-2.4573 -2.16583,-3.13169 -1.60462,-0.34742 -2.10344,-0.68492 -1.10848,-0.75 3.01019,-0.19687 0.80492,-2.10742 -2.61804,-2.26814 -3.04805,-0.14312 -3.06704,-0.16857 -0.42403,-0.56806 3.62024,-0.5472 2.51464,-2.24372 -1.57597,-2.41829 -2.44962,-0.10454 -2.65485,-0.23862 -0.88335,-0.57711 3.07977,-0.58845 2.2494,-2.63038 -1.39013,-3.4184 -2.52388,-0.54645 -2.59742,-0.64764 -0.54506,-0.75 1.96043,-0.0978 2.16237,-0.37144 1.16278,-1.57587 -0.80292,-0.96746 -2.27313,-1.27539 -4.37244,-0.9158 -2.41897,0.41434 -2.81001,0.29037 -1.66278,-0.52714 0.825,-0.58788 2.27338,-1.07577 3.21861,-1.08419 1.13958,-0.0102 1.51802,-0.53808 1.12321,-1.56692 -0.4272,-1.11328 -1.47771,-1.40694 -3.71861,-1.03952 l -3.12321,0.51209 2.76699,-1.1595 c 3.39555,-1.42289 3.0403,-3.05094 -0.84949,-3.89315 -2.32924,-0.50431 -2.46383,-0.65554 -0.6675,-0.75 2.90164,-0.15258 2.90164,-2.49841 0,-3.89782 -1.88812,-0.9106 -1.95674,-1.09601 -0.42668,-1.15281 2.68366,-0.0996 1.66296,-3.49561 -1.17182,-3.8988 -2.27907,-0.32415 -2.31547,-0.19789 -1.72955,6 5.63021,59.5567 8.79439,77.10771 18.1376,100.60513 6.78098,17.05362 12.11809,26.79575 18.4413,33.66195 3.07147,3.33522 7.45425,8.45576 9.73952,11.37898 5.57095,7.12613 7.64163,8.61758 19.02463,13.70288 9.77534,4.36709 19.80859,6.70779 40.235,9.38661 4.675,0.6131 9.625,1.3037 11,1.53466 5.21905,0.87666 23.21656,-0.57578 30.70106,-2.47764 z M 355.46799,475.5602 c -0.30801,-0.49837 0.59154,-0.90612 1.999,-0.90612 3.06405,0 3.31157,0.56994 0.56002,1.28949 -1.09946,0.28751 -2.25101,0.115 -2.55902,-0.38337 z m 12.29135,-0.0302 c 0.67834,-0.68342 1.48524,-0.99067 1.79313,-0.68278 0.30789,0.30789 -0.24711,0.86705 -1.23333,1.24258 -1.4252,0.54268 -1.54006,0.42782 -0.5598,-0.5598 z m -22.98333,-1.5382 c 0.6875,-0.27741 1.8125,-0.27741 2.5,0 0.6875,0.27741 0.125,0.50439 -1.25,0.50439 -1.375,0 -1.9375,-0.22698 -1.25,-0.50439 z m 40.25,0.2213 c 0,-0.24254 0.45,-0.7191 1,-1.05902 0.55,-0.33992 1,-0.14148 1,0.44098 0,0.58246 -0.45,1.05902 -1,1.05902 -0.55,0 -1,-0.19844 -1,-0.44098 z m -52.25,-1.2213 c 0.6875,-0.27741 1.8125,-0.27741 2.5,0 0.6875,0.27741 0.125,0.50439 -1.25,0.50439 -1.375,0 -1.9375,-0.22698 -1.25,-0.50439 z m -21.75,-1.33772 c 0,-0.55 0.45,-1 1,-1 0.55,0 1,0.45 1,1 0,0.55 -0.45,1 -1,1 -0.55,0 -1,-0.45 -1,-1 z m -7.5,-1 c -1.90836,-0.82005 -1.8969,-0.86265 0.25,-0.92971 1.2375,-0.0387 2.25,0.37971 2.25,0.92971 0,0.55 -0.1125,0.96837 -0.25,0.92971 -0.1375,-0.0387 -1.15,-0.45702 -2.25,-0.92971 z m 94,0 c 0.33992,-0.55 1.06803,-1 1.61803,-1 0.55,0 0.72189,0.45 0.38197,1 -0.33992,0.55 -1.06803,1 -1.61803,1 -0.55,0 -0.72189,-0.45 -0.38197,-1 z m -104.22917,-3.60417 c 0.3323,-0.33229 1.1948,-0.36781 1.91667,-0.0789 0.79773,0.31922 0.56078,0.55618 -0.60417,0.60416 -1.05416,0.0434 -1.64479,-0.19293 -1.3125,-0.52522 z m -8,-3 c 0.3323,-0.33229 1.1948,-0.36781 1.91667,-0.0789 0.79773,0.31922 0.56078,0.55618 -0.60417,0.60416 -1.05416,0.0434 -1.64479,-0.19293 -1.3125,-0.52522 z m -6.27083,-2.39583 c -0.90129,-0.58246 -1.02463,-0.97549 -0.30902,-0.98469 0.65504,-0.008 1.4691,0.43469 1.80902,0.98469 0.7673,1.24153 0.42112,1.24153 -1.5,0 z m -7,-3 c -0.90129,-0.58246 -1.02463,-0.97549 -0.30902,-0.98469 0.65504,-0.008 1.4691,0.43469 1.80902,0.98469 0.7673,1.24153 0.42112,1.24153 -1.5,0 z m -7.5,-4 c -0.33992,-0.55 -0.16803,-1 0.38197,-1 0.55,0 1.27811,0.45 1.61803,1 0.33992,0.55 0.16803,1 -0.38197,1 -0.55,0 -1.27811,-0.45 -1.61803,-1 z m -12.75,-6.66228 c 0.6875,-0.27741 1.8125,-0.27741 2.5,0 0.6875,0.27741 0.125,0.50439 -1.25,0.50439 -1.375,0 -1.9375,-0.22698 -1.25,-0.50439 z m 187.52083,0.0581 c 0.33229,-0.33229 1.19479,-0.36781 1.91667,-0.0789 0.79773,0.31922 0.56078,0.55618 -0.60417,0.60416 -1.05416,0.0434 -1.64479,-0.19293 -1.3125,-0.52522 z m 5.47917,-5.05811 c 0.6875,-0.27741 1.8125,-0.27741 2.5,0 0.6875,0.27741 0.125,0.50439 -1.25,0.50439 -1.375,0 -1.9375,-0.22698 -1.25,-0.50439 z m 6.25,-8.7787 c 0,-1.05548 1.91911,-1.49891 2.48992,-0.57533 0.34546,0.55898 -0.0734,1.01632 -0.9309,1.01632 -0.85746,0 -1.55902,-0.19844 -1.55902,-0.44098 z m 2.27083,-4.16319 c 0.33229,-0.33229 1.19479,-0.36781 1.91667,-0.0789 0.79773,0.31922 0.56078,0.55618 -0.60417,0.60416 -1.05416,0.0434 -1.64479,-0.19293 -1.3125,-0.52522 z m 1.72917,-5.3368 c 0,-0.58246 0.45,-1.05902 1,-1.05902 0.55,0 1,0.19844 1,0.44098 0,0.24254 -0.45,0.7191 -1,1.05902 -0.55,0.33992 -1,0.14148 -1,-0.44098 z m 3,-4.05902 c -1.2819,-0.82843 -1.24555,-0.9716 0.25,-0.98469 0.9625,-0.008 1.75,0.43469 1.75,0.98469 0,1.21961 -0.11279,1.21961 -2,0 z m -9.88158,85.75 c 0.0651,-0.6875 0.0651,-1.5875 0,-2 -0.0651,-0.4125 0.55658,-0.75 1.38158,-0.75 0.825,0 1.5,-0.47441 1.5,-1.05423 0,-0.57983 1.34792,-2.49233 2.99537,-4.25 3.61467,-3.85649 3.92396,-6.64837 0.75463,-6.81177 -1.76681,-0.0911 -1.86387,-0.2162 -0.45196,-0.58258 0.98892,-0.25661 2.4623,0.0847 3.27417,0.75851 1.20788,1.00245 2.00273,0.69945 4.37404,-1.66743 l 2.89792,-2.8925 -2.17208,-1.26497 c -1.95704,-1.13973 -1.80951,-1.2046 1.49014,-0.65517 2.87535,0.47877 4.32569,0.11928 6.75,-1.67309 1.69828,-1.25559 3.08777,-2.83113 3.08777,-3.50121 0,-0.72599 0.80821,-1.00697 2,-0.69531 2.39477,0.62625 2.7055,-1.22555 0.35687,-2.1268 -0.90372,-0.34679 -1.36459,-0.90906 -1.02416,-1.24949 0.34043,-0.34043 1.2478,-0.0971 2.01638,0.54079 1.9231,1.59604 5.09033,0.35965 3.61928,-1.41286 -0.83368,-1.00452 -0.66706,-1.20465 0.72448,-0.87021 0.99393,0.23888 2.45321,0.0128 3.24285,-0.50246 1.2476,-0.81405 1.2476,-1.16475 0,-2.67672 -1.31638,-1.59534 -1.25743,-1.64497 0.70929,-0.59723 1.68202,0.89606 2.39497,0.84151 3.30311,-0.25273 0.91085,-1.09751 0.77315,-1.49526 -0.645,-1.86299 -1.27191,-0.32981 -1.05739,-0.50172 0.7282,-0.58355 1.67304,-0.0767 4.51527,-2.12088 8.38267,-6.02906 5.50869,-5.56678 5.71183,-5.93947 3.4687,-6.36382 -2.07974,-0.39345 -2.00125,-0.47715 0.61733,-0.65837 2.43324,-0.16839 3.88915,-1.42211 7.70644,-6.63618 4.33822,-5.92562 4.53381,-6.43563 2.5,-6.51876 -1.65236,-0.0675 -1.3903,-0.32584 1.04356,-1.02859 1.7875,-0.51612 3.25,-1.37554 3.25,-1.90981 0,-0.53428 0,-1.19641 0,-1.47141 0,-0.275 0.9,-1.4 2,-2.5 1.1,-1.1 2,-3.035 2,-4.3 0,-1.265 0.38858,-2.7275 0.86352,-3.25 0.47494,-0.5225 1.34243,-2.38641 1.92777,-4.14203 1.03606,-3.10745 0.98006,-3.20257 -2.11352,-3.58996 l -3.17777,-0.39794 3.35699,-0.16003 c 2.53748,-0.12097 3.21647,-0.52622 2.78138,-1.66004 -0.31658,-0.825 -0.0889,-1.5 0.50586,-1.5 1.45486,0 0.65176,-14.23467 -0.83099,-14.72892 -0.60551,-0.20184 -0.87121,-1.2454 -0.59045,-2.31903 0.28076,-1.07363 0.12049,-1.95407 -0.35616,-1.95653 -0.47665,-0.002 -0.95072,-1.62891 -1.05351,-3.61432 -0.10278,-1.9854 -0.51391,-4.34588 -0.91363,-5.24551 -0.87744,-1.97482 -0.86832,-1.94812 -1.83943,-5.38569 -0.42728,-1.5125 -1.17809,-2.75 -1.66847,-2.75 -1.34088,0 -1.06028,4.1531 0.48005,7.10502 3.54885,6.80107 5.03454,19.12247 3.00179,24.89498 l -1.23251,3.5 -0.0705,-3.25 c -0.0679,-3.1318 -0.22503,-3.25313 -4.32046,-3.33595 -3.93923,-0.0797 -4.04272,-0.14812 -1.41539,-0.93615 1.55904,-0.4676 3.47154,-0.60578 4.25,-0.30706 0.85866,0.3295 1.41539,-0.089 1.41539,-1.06385 0,-1.07105 -0.91715,-1.62813 -2.75,-1.67038 -2.64338,-0.0609 -2.66277,-0.0985 -0.5,-0.96777 1.72786,-0.69452 2.25,-1.71039 2.25,-4.3776 0,-4.01785 -0.85571,-4.73465 -6.71343,-5.62363 -3.97599,-0.60341 -4.28653,-0.48684 -4.28653,1.60914 0,1.24282 -0.27314,2.97148 -0.60699,3.84146 -0.48643,1.26763 0.15905,1.59575 3.25,1.65208 2.12135,0.0386 4.74063,0.41576 5.82064,0.83802 1.54639,0.60461 1.01518,0.92929 -2.5,1.52802 -3.70771,0.63151 -4.12494,0.90898 -2.46365,1.63838 1.41507,0.62129 0.94855,0.71473 -1.59515,0.31946 l -3.59515,-0.55865 -1.76195,6.27956 c -0.96908,3.45376 -1.9606,6.79723 -2.20339,7.42992 -0.2574,0.67078 1.3506,1.61194 3.8571,2.25754 l 4.29854,1.10719 -4.5,-0.47739 -4.5,-0.47739 -2.5,6.26851 c -1.375,3.44768 -2.65,6.60781 -2.83333,7.02252 -0.18334,0.41471 0.71666,0.80726 2,0.87233 1.97024,0.0999 1.87934,0.21662 -0.58417,0.75 -4.53382,0.98165 -4.22567,2.84058 0.61635,3.71815 2.36563,0.42875 3.49328,0.95911 2.50588,1.17858 -0.9874,0.21948 -3.10498,-0.0575 -4.70573,-0.61554 -2.78359,-0.97037 -3.04316,-0.79892 -5.95473,3.93298 -1.67435,2.72116 -3.04427,5.16581 -3.04427,5.43254 0,0.26674 1.125,0.48498 2.5,0.48498 1.375,0 2.5,0.42171 2.5,0.93713 0,0.51542 -1.6875,0.7288 -3.75,0.47418 -3.10881,-0.38379 -3.36529,-0.29306 -1.5,0.53065 3.00923,1.32887 2.86967,2.43038 -0.20999,1.65744 -1.80095,-0.45201 -2.72919,-0.11442 -3.46482,1.26011 -0.55265,1.03264 -0.72066,2.16169 -0.37334,2.50901 0.34732,0.34731 -0.34352,0.63148 -1.53518,0.63148 -2.8558,0 -2.79258,1.74034 0.0833,2.29427 1.66839,0.32134 1.42974,0.46857 -0.92327,0.56955 -3.70679,0.15908 -10.17688,4.99272 -8.26482,6.17444 0.7798,0.48195 -0.0735,1.34794 -2.43005,2.46619 -4.63111,2.19761 -4.59736,3.27383 0.11814,3.76708 2.68995,0.28138 2.07748,0.43978 -2.16667,0.56037 -6.3038,0.1791 -6.73779,0.88013 -1.38408,2.23569 2.96735,0.75133 2.80558,0.81538 -1.60153,0.63408 -3.18043,-0.13084 -5.05368,0.23737 -5.33333,1.04833 -0.3121,0.90505 1.15572,1.25 5.31894,1.25 3.1625,0 5.41697,0.33303 5.00994,0.74007 -0.40704,0.40703 -2.61954,0.74453 -4.91667,0.75 -4.78043,0.0114 -6.3886,1.58263 -2.6766,2.61517 3.2234,0.89662 1.1946,1.08368 -2.89104,0.26655 -2.54699,-0.5094 -2.92193,-0.89222 -1.9825,-2.02416 0.6372,-0.76778 0.93037,-1.62413 0.6515,-1.903 -0.27887,-0.27888 -1.25337,0.632 -2.16555,2.02416 -1.55945,2.38002 -1.55261,2.53212 0.11454,2.54652 0.97518,0.008 2.44805,0.4578 3.27305,0.99861 1.06498,0.69812 0.48496,0.81427 -2,0.40049 -2.64326,-0.44014 -3.13283,-0.32115 -2,0.48609 1.27016,0.90509 1.19355,1.08288 -0.5,1.16027 -1.39919,0.0639 -0.94858,0.52049 1.5,1.51982 l 3.5,1.42843 -3.88403,-0.57497 c -3.2538,-0.48167 -3.78624,-0.32014 -3.28138,0.99549 0.33706,0.87838 0.0656,1.6226 -0.61597,1.68877 -0.67024,0.0651 0.13138,0.46184 1.78138,0.88169 l 3,0.76337 -3.30902,0.11832 c -3.90527,0.13963 -3.3793,2.0544 0.61804,2.24995 2.35633,0.11527 2.25573,0.22326 -0.80902,0.86836 -1.925,0.40519 -2.7125,0.79596 -1.75,0.86836 2.38281,0.17924 2.19833,1.17807 -0.66382,3.59408 -2.64287,2.23091 -4.39092,6.53756 -2.65357,6.53756 0.58707,0 1.12068,-0.5625 1.18581,-1.25 z m 8.61255,-19.40594 c 0.67703,-0.27392 2.02703,-0.29059 3,-0.0371 0.97297,0.25354 0.41903,0.47766 -1.23097,0.49804 -1.65,0.0204 -2.44606,-0.18706 -1.76903,-0.46099 z m 10.26903,-2.91549 c 0,-1.05612 2.75577,-3.33947 3.33333,-2.7619 0.31429,0.31428 -0.05,1.19285 -0.80952,1.95238 -1.44007,1.44007 -2.52381,1.78768 -2.52381,0.80952 z m 2.25,-13.1179 c 0.9625,-0.25152 2.5375,-0.25152 3.5,0 0.9625,0.25153 0.175,0.45733 -1.75,0.45733 -1.925,0 -2.7125,-0.2058 -1.75,-0.45733 z m 4.75,-0.89398 c -1.39519,-0.77417 -1.83711,-1.37967 -1,-1.37014 0.825,0.009 2.37351,0.67775 3.44113,1.48525 2.40702,1.82058 0.92104,1.75051 -2.44113,-0.11511 z m 2,-2.41669 c -1.97958,-0.63397 -2.08367,-0.80064 -0.5,-0.80064 1.1,0 3.125,0.36029 4.5,0.80064 1.97958,0.63397 2.08367,0.80064 0.5,0.80064 -1.1,0 -3.125,-0.36029 -4.5,-0.80064 z m 13.75,-2.66228 c 0.6875,-0.27741 1.8125,-0.27741 2.5,0 0.6875,0.27741 0.125,0.50439 -1.25,0.50439 -1.375,0 -1.9375,-0.22698 -1.25,-0.50439 z m -6.47917,-0.94189 c 0.33229,-0.33229 1.19479,-0.36781 1.91667,-0.0789 0.79773,0.31922 0.56078,0.55618 -0.60417,0.60416 -1.05416,0.0434 -1.64479,-0.19293 -1.3125,-0.52522 z m 9.46014,-3.05177 c 0.67703,-0.27392 2.02703,-0.29059 3,-0.0371 0.97297,0.25354 0.41903,0.47766 -1.23097,0.49804 -1.65,0.0204 -2.44606,-0.18706 -1.76903,-0.46099 z m -6.98097,-3.00634 c 0.6875,-0.27741 1.8125,-0.27741 2.5,0 0.6875,0.27741 0.125,0.50439 -1.25,0.50439 -1.375,0 -1.9375,-0.22698 -1.25,-0.50439 z m 4.52083,0.0581 c 0.33229,-0.33229 1.19479,-0.36781 1.91667,-0.0789 0.79773,0.31922 0.56078,0.55618 -0.60417,0.60416 -1.05416,0.0434 -1.64479,-0.19293 -1.3125,-0.52522 z m 6.47917,-0.0581 c 0.6875,-0.27741 1.8125,-0.27741 2.5,0 0.6875,0.27741 0.125,0.50439 -1.25,0.50439 -1.375,0 -1.9375,-0.22698 -1.25,-0.50439 z m -7.75,-11.2787 c 0,-1.85088 1.99833,-2.12293 4.72629,-0.64342 l 2.77371,1.50432 -3.75,0.04 c -2.0625,0.022 -3.75,-0.3834 -3.75,-0.90094 z m 15,-10.05902 c -2.05955,-0.65958 -2.14764,-0.8155 -0.5,-0.88501 1.1,-0.0464 2.675,0.35185 3.5,0.88501 1.75214,1.13232 0.53568,1.13232 -3,0 z m 9.27083,-2.60417 c 0.33229,-0.33229 1.19479,-0.36781 1.91667,-0.0789 0.79773,0.31922 0.56078,0.55618 -0.60417,0.60416 -1.05416,0.0434 -1.64479,-0.19293 -1.3125,-0.52522 z m -7.27083,-1.39583 c -2.05955,-0.65958 -2.14764,-0.8155 -0.5,-0.88501 1.1,-0.0464 2.675,0.35185 3.5,0.88501 1.75214,1.13232 0.53568,1.13232 -3,0 z m 9,-3 c 0.825,-0.53316 2.175,-0.96937 3,-0.96937 1.33333,0 1.33333,0.1077 0,0.96937 -0.825,0.53316 -2.175,0.96937 -3,0.96937 -1.33333,0 -1.33333,-0.1077 0,-0.96937 z m 2.73333,-4.12409 c 0.67834,-0.68342 1.48524,-0.99067 1.79313,-0.68278 0.30789,0.30789 -0.24711,0.86705 -1.23333,1.24258 -1.4252,0.54268 -1.54006,0.42782 -0.5598,-0.5598 z m -2.73333,-1.26892 c 0,-0.21616 0.69837,-0.661 1.55194,-0.98855 0.88992,-0.34149 1.29132,-0.17385 0.94098,0.39301 -0.58726,0.95021 -2.49292,1.40545 -2.49292,0.59554 z m -9,-6.61615 -3.5,-0.63942 2.76281,-0.78733 c 2.3831,-0.67913 12.52727,0.0825 11.57884,0.86939 -0.92998,0.77153 -7.75011,1.12215 -10.84165,0.55736 z m 13.27083,-0.59501 c 0.33229,-0.33229 1.19479,-0.36781 1.91667,-0.0789 0.79773,0.31922 0.56078,0.55618 -0.60417,0.60416 -1.05416,0.0434 -1.64479,-0.19293 -1.3125,-0.52522 z m 2,-4 c 0.33229,-0.33229 1.19479,-0.36781 1.91667,-0.0789 0.79773,0.31922 0.56078,0.55618 -0.60417,0.60416 -1.05416,0.0434 -1.64479,-0.19293 -1.3125,-0.52522 z m -10.27083,-2.0223 -5.5,-1.35035 4.9596,0.49801 c 2.72778,0.2739 5.40528,0.94369 5.95,1.48841 0.54472,0.54472 0.7879,0.92827 0.5404,0.85234 -0.2475,-0.0759 -2.925,-0.74572 -5.95,-1.48841 z m -1.13922,-13.34026 c -2.69643,-2.24636 -1.94241,-2.46134 3.41482,-0.97362 2.07658,0.57667 3.51252,1.47416 3.19098,1.99442 -0.96284,1.55792 -4.09058,1.07459 -6.6058,-1.0208 z m -39.86078,65.05746 c 19.06811,-19.26727 30.9186,-42.38189 33.4975,-65.33755 0.36082,-3.21173 0.1424,-8.17079 -0.49513,-11.24175 -1.87458,-9.02983 -7.08241,-10.88078 -15.2998,-5.43781 -12.52815,8.2983 -18.05573,22.47603 -25.26331,64.79801 -2.25644,13.24952 -4.54746,23.64081 -6.10994,27.71255 -1.27518,3.32307 4.01785,-0.7398 13.67068,-10.49345 z m -83.92343,4.058 c 24.27845,-5.6214 35.791,-10.78533 48.9005,-21.93419 l 3.47706,-2.95704 -3.85821,-5.81089 c -4.74101,-7.14047 -15.64111,-17.8261 -19.92445,-19.53241 -1.74431,-0.69487 -4.43488,-2.13391 -5.97905,-3.19789 -1.54416,-1.06397 -2.96692,-1.7729 -3.16169,-1.5754 -1.14098,1.157 1.03289,5.64601 3.389,6.99824 3.96754,2.27705 7.76647,7.6589 9.20633,13.04234 1.5156,5.66667 0.14349,11.34326 -3.75976,15.55455 l -2.56178,2.76396 2.09435,-2.88055 c 5.98303,-8.229 4.58354,-18.47666 -3.49156,-25.56669 l -3.69486,-3.24413 -2.92488,5.45091 c -3.85524,7.18473 -10.67466,13.58996 -19.28757,18.11611 -3.85,2.02321 -6.1,2.95878 -5,2.07904 1.88781,-1.50978 1.77561,-1.55355 -2,-0.78021 -2.2,0.45061 -11.73886,0.81849 -21.19747,0.81751 -15.91089,-0.002 -17.23376,0.13704 -17.68269,1.85373 -0.32491,1.24245 -0.92046,1.58271 -1.80253,1.02985 -1.61222,-1.0105 -4.85075,-0.56327 -6.65761,0.91939 -1.10131,0.90371 -1.02265,1.33208 0.44113,2.40243 0.97979,0.71643 3.01886,1.30261 4.53128,1.30261 1.51242,0 3.05771,0.49812 3.43398,1.10693 0.9169,1.48359 -5.27705,0.19644 -8.31609,-1.72814 -3.13474,-1.98519 -2.81637,-3.2442 1.25,-4.94324 4.90484,-2.04937 4.61613,-3.99715 -0.52268,-3.52636 -0.83748,0.0767 -4.17042,-0.77145 -7.40655,-1.88484 -7.18929,-2.47348 -8.46048,-2.50746 -10.26231,-0.27435 -1.31524,1.63006 -1.37362,1.60851 -0.85179,-0.31431 0.5598,-2.06271 -0.25456,-2.5166 -16.61234,-9.25905 -0.43147,-0.17785 -1.69628,1.17215 -2.81068,3 -1.11439,1.82785 -2.02786,2.74503 -2.02991,2.03818 -0.002,-0.70685 0.73222,-2.4084 1.63172,-3.78121 0.8995,-1.37282 1.462,-2.6132 1.25,-2.75641 -0.212,-0.14322 -2.29739,-1.48518 -4.63419,-2.98214 l -4.24873,-2.72175 -3.75127,2.38907 c -4.49642,2.86363 -7.98043,6.08221 -10.97366,10.13762 -1.21784,1.65 -2.22851,2.43601 -2.24593,1.74668 -0.0354,-1.4014 7.71085,-9.40575 12.81959,-13.24668 l 3.3252,-2.5 -3.0083,-2.86051 -3.00831,-2.86051 -8.96786,8.64504 c -4.93232,4.75477 -10.23843,10.47848 -11.79135,12.71934 -2.77162,3.99946 -2.78746,4.10132 -0.86207,5.5461 4.72872,3.54835 26.97658,13.61177 37.96142,17.17116 22.50166,7.29117 35.7756,9.12706 62.5,8.64427 15.88787,-0.28703 22.42957,-0.81712 29.07657,-2.35616 z m -69.86794,-2.67386 c -16.19511,-3.51668 -27.16137,-12.49989 -27.20305,-22.28389 -0.0106,-2.49434 1.77054,-0.19789 2.38438,3.07417 2.39554,12.76931 22.28189,20.44252 50.56303,19.5099 7.39914,-0.24399 12.57414,-0.0998 11.5,0.32038 -3.32325,1.30004 -30.48356,0.8475 -37.24436,-0.62056 z m 50.0622,-1.07904 c 0.33229,-0.33229 1.19479,-0.36781 1.91667,-0.0789 0.79773,0.31922 0.56078,0.55618 -0.60417,0.60416 -1.05416,0.0434 -1.64479,-0.19293 -1.3125,-0.52522 z m 12.33169,-2.3694 c 5.00638,-1.09676 13.10638,-3.30437 18,-4.9058 10.14637,-3.32037 12.40708,-3.39683 3.71648,-0.12569 -7.76892,2.92422 -19.23125,5.8267 -25.62155,6.48787 -3.53341,0.36558 -2.28315,-0.1007 3.90507,-1.45638 z m -37.07945,-5.05599 c 8.56102,-0.77266 20.66324,-3.57225 27.97693,-6.47187 1.41129,-0.55953 1.70565,-0.47505 1,0.287 -0.55,0.59395 -4.6,2.28963 -9,3.76816 -6.3262,2.12579 -10.30148,2.75446 -19,3.00478 l -11,0.31654 10.02307,-0.90461 z m 0.47693,-2.97044 c 0.825,-0.53316 2.4,-0.94464 3.5,-0.9144 2,0.055 2,0.055 0,0.9144 -1.1,0.47269 -2.675,0.88417 -3.5,0.9144 -1.33333,0.0489 -1.33333,-0.0527 0,-0.9144 z m -25.5,-1.54935 c -3.69349,-1.89233 -5.51227,-4.18769 -5.46086,-6.89178 0.0295,-1.55014 0.38818,-1.25582 1.45173,1.19113 0.77692,1.7875 1.77181,3.26001 2.21086,3.27224 0.87602,0.0244 6.10669,3.92337 5.29827,3.94936 -0.275,0.009 -1.85,-0.67558 -3.5,-1.52095 z m 37.58333,-0.75331 c 2.85055,-2.07059 5.91667,-3.56353 5.91667,-2.88091 0,0.4744 -1.14617,1.38477 -2.54705,2.02305 -2.33584,1.06429 -4.36498,1.58087 -3.36962,0.85786 z m 18,-2.06189 c 0.22917,-0.2005 1.54167,-0.90032 2.91667,-1.55516 2.35727,-1.12265 2.38918,-1.10183 0.55887,0.36454 -1.593,1.27626 -4.84786,2.39128 -3.47554,1.19062 z m -11.75,-8.13545 c -0.0968,-0.58064 2.62908,-1.01392 6.5,-1.0332 5.50446,-0.0274 7.93055,-0.63757 13.9165,-3.5 8.60457,-4.11462 9.22242,-6.02796 3.55378,-11.00509 -4.84638,-4.25518 -12.74514,-7.67901 -20.53047,-8.89924 l -6.27314,-0.98321 6.23459,0.44343 c 8.2571,0.58727 17.62726,4.87962 22.51541,10.31401 2.0625,2.29298 3.75,4.62691 3.75,5.1865 0,1.46027 7.11922,-2.39449 9.55916,-5.17588 3.2452,-3.69935 4.16873,-6.92372 3.25091,-11.35011 -0.78254,-3.77394 -1.27253,-4.21728 -8.57003,-7.75413 -14.52203,-7.03833 -29.63711,-8.45687 -38.29374,-3.59384 l -4.18457,2.35076 11.86914,1.14822 c 17.34694,1.67815 37.09369,6.9436 38.15074,10.17286 0.27602,0.84323 -1.33986,0.42299 -4.46729,-1.1618 -8.76483,-4.44148 -19.6928,-6.72356 -39.08335,-8.16175 -8.19019,-0.60747 -8.29745,-0.58489 -11.25,2.36765 -3.46548,3.46549 -3.90972,5.56437 -0.98097,4.63482 1.1,-0.34913 2,-0.18434 2,0.36619 0,0.55053 -1.181,1.14336 -2.62445,1.31739 -2.11313,0.25477 -3.00691,1.29057 -4.5875,5.31642 -1.07968,2.75 -2.15519,7.33495 -2.39003,10.18877 l -0.42697,5.18877 3.76448,0.39313 3.76447,0.39312 -4.25,0.16811 c -4.55824,0.18029 -4.56454,0.18484 -3.63087,2.61795 0.52773,1.37525 2.26225,1.57185 11.75,1.33179 6.71155,-0.16982 11.0647,-0.67867 10.9642,-1.28164 z m -7.43194,-2.24301 c 1.02103,-0.3822 0.74962,-0.90671 -1,-1.9325 -1.93155,-1.13246 -2.01008,-1.31608 -0.40139,-0.93854 1.1,0.25816 4.39131,0.77312 7.31402,1.14436 6.63389,0.84262 6.08521,1.56201 -1.48848,1.9516 -3.20405,0.16481 -5.19492,0.0636 -4.42415,-0.22492 z m -2.17042,-23.91293 c 0.67703,-0.27392 2.02703,-0.29059 3,-0.0371 0.97297,0.25354 0.41903,0.47766 -1.23097,0.49804 -1.65,0.0204 -2.44606,-0.18706 -1.76903,-0.46099 z m 32.17162,26.07824 c 2.16869,-0.86774 4.227,-2.31763 4.57403,-3.22198 0.44279,-1.15387 0.84688,-1.29493 1.35488,-0.47295 0.50874,0.82316 1.6817,0.42174 3.94621,-1.3505 1.77226,-1.38701 3.22229,-2.89708 3.22229,-3.35573 0,-1.32092 -3.93534,0.0604 -5.28059,1.85349 -0.67068,0.89395 -1.89441,1.69704 -2.71941,1.78464 -0.825,0.0876 -3.975,1.1599 -7,2.38291 -3.025,1.223 -6.4,2.58338 -7.5,3.02305 -1.55582,0.62187 -1.17166,0.81444 1.72976,0.86709 2.05137,0.0372 5.50415,-0.64229 7.67283,-1.51002 z m -47.54096,-1.9223 c -0.34758,-0.90577 -2.0188,-1.5634 -4.21862,-1.66004 l -3.64301,-0.16003 3.5,-0.41126 c 1.925,-0.2262 3.95,-0.8952 4.5,-1.48667 0.68635,-0.73811 0.60794,-0.85406 -0.25,-0.36969 -0.6875,0.38815 -1.25,0.22917 -1.25,-0.35329 0,-0.58246 0.45,-1.05902 1,-1.05902 0.55,0 1,-0.87953 1,-1.95451 0,-1.07498 1.06915,-4.89998 2.37588,-8.5 1.30674,-3.60002 2.03684,-6.54549 1.62245,-6.54549 -1.64915,0 -3.45737,3.4655 -4.61393,8.84273 -0.95499,4.44011 -1.23481,4.95112 -1.30059,2.37515 -0.0461,-1.80516 0.60148,-4.92225 1.43906,-6.92685 1.21708,-2.9129 1.26728,-3.80694 0.25,-4.45257 -0.9733,-0.61771 -0.91984,-0.81143 0.22713,-0.8231 0.825,-0.008 2.99144,-1.70279 4.8143,-3.76532 2.91003,-3.29261 3.04067,-3.3551 1.07104,-0.51234 -1.2338,1.78074 -1.99387,3.4871 -1.68905,3.79192 0.75841,0.75841 4.78972,-5.74323 4.17639,-6.73563 -1.66777,-2.6985 -10.37268,3.7977 -10.37268,7.74081 0,0.80586 -0.43266,1.4652 -0.96146,1.4652 -0.5288,0 -1.44103,1.781 -2.02717,3.95778 -0.58615,2.17678 -1.50349,4.22833 -2.03854,4.55901 -1.26837,0.7839 -1.24757,-2.66397 0.0364,-6.04115 l 1.00927,-2.65457 -4.25927,0.67409 c -8.02543,1.27013 -16.1187,3.6533 -21.18786,6.23903 l -5.0714,2.58688 7,3.32498 c 3.85,1.82874 9.7,3.84493 13,4.48042 3.3,0.63548 6.45,1.56866 7,2.07373 0.62324,0.57232 0.34068,0.66728 -0.75,0.25206 -0.9625,-0.36643 -1.75,-0.23319 -1.75,0.29609 0,1.1539 5.42416,3.00707 9.21862,3.14956 2.02806,0.0762 2.5724,-0.27892 2.14301,-1.39791 z m 109.20431,-3.62751 c 0.78873,-1.52524 1.43406,-4.81406 1.43406,-7.30848 0,-5.01871 1.99271,-13.56401 3.16305,-13.56401 0.41153,0 0.0686,1.9125 -0.76195,4.25 -0.90209,2.53868 -1.26093,5.5998 -0.89116,7.60218 0.73871,4.00032 1.29615,3.7316 1.90443,-0.91807 0.74221,-5.67332 4.35004,-21.0343 5.11051,-21.75884 0.38981,-0.3714 0.43166,0.67473 0.093,2.32473 -0.33867,1.65 -0.82722,4.73889 -1.08567,6.86421 -0.25846,2.12531 -0.72537,4.82531 -1.03759,6 -0.42446,1.59697 -0.17754,1.45262 0.97879,-0.57221 4.93829,-8.6474 5.84181,-26.69867 1.56426,-31.25192 -1.13078,-1.20365 -1.71434,-2.56472 -1.29681,-3.02459 0.41753,-0.45988 0.2648,-0.55456 -0.33941,-0.2104 -1.19497,0.68066 -5.40145,-2.74831 -5.40145,-4.40306 0,-0.56104 0.41224,-0.76529 0.91608,-0.45389 0.50385,0.31139 2.15213,0.0962 3.66284,-0.47815 2.10629,-0.80081 2.47236,-1.31871 1.56995,-2.22112 -0.88629,-0.88629 -1.91394,-0.89856 -4.16284,-0.0497 -3.46382,1.30745 -4.07418,0.11284 -0.73603,-1.44059 2.11435,-0.98393 2.13651,-1.09309 0.36753,-1.81064 -1.0709,-0.43439 -2.68759,-0.26077 -3.75,0.40271 -1.04721,0.654 -1.86753,0.74515 -1.86753,0.20751 0,-0.52733 0.7875,-1.41746 1.75,-1.97806 1.58056,-0.92059 1.58848,-1.02223 0.0818,-1.04969 -2.66521,-0.0486 -4.8735,1.09309 -4.20537,2.17414 0.34214,0.5536 -0.32583,0.49151 -1.50574,-0.13997 -2.35016,-1.25776 -2.91226,-2.58232 -0.74254,-1.74971 1.43251,0.5497 3.62186,-1.0391 3.62186,-2.62837 0,-0.50242 -1.41947,-0.70517 -3.15437,-0.45054 -2.78504,0.40876 -2.94628,0.31081 -1.37711,-0.8366 1.64359,-1.20182 1.57902,-1.34933 -0.85861,-1.96113 -1.56699,-0.39329 -3.23889,-0.16111 -4.1229,0.57255 -1.76875,1.46793 -2.01461,-0.0832 -0.28701,-1.81078 0.93333,-0.93333 0.72963,-1.2 -0.91667,-1.2 -1.16416,0 -2.31756,0.5625 -2.56309,1.25 -0.24554,0.6875 -0.84483,0.87571 -1.33176,0.41824 -0.50059,-0.4703 -0.0169,-1.49517 1.11309,-2.35832 1.85426,-1.41644 1.62213,-1.49351 -3.21786,-1.06828 -2.86896,0.25207 -4.97991,0.0758 -4.69099,-0.39167 0.28892,-0.46748 1.28626,-0.87849 2.2163,-0.91336 1.1188,-0.0419 0.85064,-0.39863 -0.79249,-1.05414 -1.67239,-0.66718 -3.23905,-0.64648 -4.79705,0.0634 -3.23928,1.47591 -4.07355,1.25841 -1.79248,-0.46733 2.81741,-2.1315 1.10091,-3.03262 -3.45851,-1.81564 -2.18268,0.58258 -3.9685,0.67176 -3.9685,0.19817 0,-0.47359 0.9,-0.86107 2,-0.86107 1.1,0 2,-0.39752 2,-0.88337 0,-1.17495 -4.28064,-2.25808 -4.96422,-1.25609 -0.29468,0.43194 -1.43578,1.09112 -2.53578,1.46486 -1.85674,0.63083 -1.87465,0.5819 -0.25,-0.68319 2.92685,-2.27909 1.99798,-2.91951 -3.5,-2.4131 -2.8875,0.26596 -4.6875,0.28571 -4,0.0439 0.6875,-0.24182 1.25,-0.85217 1.25,-1.35633 0,-1.33666 -4.39469,-1.12198 -5.8,0.28333 -1.60089,1.60089 -1.55333,-0.42431 0.05,-2.12911 1.26767,-1.3479 0.5921,-1.29602 -6.75,0.51831 -1.56694,0.38721 -1.4742,0.18625 0.42829,-0.92809 2.30585,-1.35059 2.0693,-1.45837 -4.69088,-2.13727 -3.91554,-0.39322 -7.6653,-0.37742 -8.3328,0.0351 -0.72915,0.45064 -0.95499,0.33158 -0.56574,-0.29824 0.79858,-1.29213 -2.36664,-1.31515 -12.33887,-0.0897 -24.13202,2.96537 -43.80689,9.40793 -57.49835,18.8279 l -4.27879,2.94389 -1.02428,11.27862 -1.02429,11.27863 0.1982,-10.25 c 0.10901,-5.6375 -0.0768,-10.25 -0.41283,-10.25 -2.69167,0 -7.85701,9.6926 -8.10985,15.21788 -0.12575,2.74792 -0.24782,2.5497 -0.75,-1.21788 l -0.59981,-4.5 -2.94903,4.92747 c -2.25663,3.77057 -3.00827,6.35322 -3.20135,11 -0.20302,4.88597 -0.0772,5.48634 0.64403,3.07253 0.65314,-2.186 0.74896,-1.30417 0.35316,3.25 -0.36522,4.20228 -0.18338,6.25 0.555,6.25 0.60401,0 1.10508,-1.2375 1.1135,-2.75 0.0105,-1.88807 0.28046,-2.33172 0.86127,-1.41547 1.01511,1.6014 2.01109,-1.42173 2.25167,-6.83453 l 0.15556,-3.5 0.6081,4 c 0.33445,2.2 0.27059,4.15 -0.14191,4.33333 -0.4125,0.18334 -0.75,1.2729 -0.75,2.42126 0,1.14836 -0.67681,2.83579 -1.50401,3.74985 -1.58527,1.7517 -1.78489,1.69433 3.75401,1.07889 0.4125,-0.0458 0.75,-0.55989 0.75,-1.14235 0,-0.58246 -0.45,-0.7809 -1,-0.44098 -0.55,0.33992 -1,-0.0835 -1,-0.94098 0,-0.85746 0.45,-1.55902 1,-1.55902 0.55,0 1,-1.2 1,-2.66667 0,-1.46666 0.29366,-2.373 0.65258,-2.01408 0.35892,0.35892 0.61132,2.10363 0.5609,3.87714 -0.0665,2.33766 0.1624,2.82287 0.83211,1.76409 0.50808,-0.80331 0.93757,-2.36053 0.95441,-3.46053 0.0237,-1.5501 0.22969,-1.68561 0.91555,-0.60241 0.61887,0.97742 1.19802,-0.22516 1.92636,-4 l 1.04145,-5.39759 -0.2014,4.78164 c -0.17116,4.06346 -0.0122,4.52289 1.05832,3.05887 1.11783,-1.52872 1.25972,-1.54046 1.25972,-0.10422 0,0.8902 -1.125,2.50347 -2.5,3.58505 -1.375,1.08158 -2.5,2.32924 -2.5,2.77258 0,0.44334 0.54,0.26608 1.2,-0.39392 0.66,-0.66 1.968,-1.2 2.90668,-1.2 1.44363,0 1.81616,-1.50274 2.41708,-9.75 0.39073,-5.3625 1.1273,-10.425 1.63682,-11.25 0.65111,-1.05425 0.78299,-0.6085 0.44378,1.5 -1.02974,6.4007 -1.73378,16.5 -1.15025,16.5 0.33731,0 1.94813,-1.36552 3.57959,-3.03448 1.86493,-1.90779 2.9663,-2.49568 2.9663,-1.58333 0,0.79813 -0.55848,1.6373 -1.24107,1.86483 -0.89237,0.29746 -0.75189,0.90288 0.5,2.15477 0.95759,0.95759 1.7724,1.59642 1.81069,1.41964 0.0383,-0.17679 0.29742,-3.02143 0.57583,-6.32143 0.91526,-10.84833 2.23587,-13.75852 1.7017,-3.75 -0.42463,7.9562 -0.27363,9.25 1.07958,9.25 0.9066,0 1.57327,-0.84749 1.57327,-2 0,-1.1 -0.40787,-2 -0.90638,-2 -0.49851,0 -0.66636,-0.91785 -0.373,-2.03966 0.29336,-1.12182 0.81374,-1.75456 1.15638,-1.40609 0.34265,0.34846 1.1423,-1.54619 1.777,-4.21034 0.90716,-3.80776 1.16523,-4.20219 1.20645,-1.84391 0.0289,1.65 -0.3389,5.025 -0.81722,7.5 -0.47832,2.475 -0.7159,4.65532 -0.52796,4.84516 0.18795,0.18984 1.7239,0.0416 3.41322,-0.32945 2.69856,-0.59271 3.07151,-1.08996 3.07151,-4.09517 0,-2.2031 0.4449,-3.33156 1.25,-3.17054 0.77917,0.15583 1.50185,-1.44499 1.91864,-4.25 0.58625,-3.94552 0.64052,-3.73711 0.44043,1.69132 -0.12551,3.40523 0.1361,5.96617 0.58136,5.69099 0.44527,-0.27519 0.80957,0.24936 0.80957,1.16566 0,1.20279 0.48657,1.45962 1.75,0.92371 0.9625,-0.40827 2.7402,-0.6883 3.95044,-0.6223 1.21024,0.066 2.52156,-0.39957 2.91405,-1.03462 0.45042,-0.7288 0.19209,-0.95349 -0.70045,-0.60922 -1.17296,0.45243 -1.33382,-0.92513 -0.94352,-8.08006 l 0.47053,-8.62548 0.52947,7.5 c 0.3341,4.73252 0.80623,6.82408 1.27948,5.66821 0.4125,-1.00748 0.75,-2.89342 0.75,-4.19098 0,-1.29756 0.3375,-2.56855 0.75,-2.82443 0.4125,-0.25587 0.65727,2.16311 0.54392,5.37553 -0.18502,5.24406 -0.006,5.8257 1.75,5.69341 1.72466,-0.12992 1.97597,-0.97992 2.12419,-7.18454 l 0.16811,-7.0372 0.58189,6 c 0.32004,3.3 0.91939,5.8875 1.33189,5.75 0.4125,-0.1375 0.705,0.0875 0.65,0.5 -0.055,0.4125 -0.505,0.6375 -1,0.5 -0.495,-0.1375 -0.9,0.2 -0.9,0.75 0,0.55 1.85852,1 4.13005,1 l 4.13005,0 -0.50516,-4.48183 c -0.27784,-2.46501 -0.11137,-4.23845 0.36994,-3.94099 0.48132,0.29747 0.88201,-0.4982 0.89043,-1.76816 0.008,-1.26996 0.48573,-2.98402 1.06068,-3.80902 0.79673,-1.14323 0.92731,-0.78647 0.54902,1.5 -1.44379,8.72665 -1.67309,12.5 -0.75961,12.5 0.54337,0 1.19375,-0.7875 1.44527,-1.75 0.43555,-1.66667 0.46285,-1.66667 0.57333,0 0.0638,0.9625 0.9035,1.80182 1.866,1.86515 3.01477,0.19838 5.73011,-0.28939 6.25,-1.12272 0.50475,-0.80907 1.08058,-0.99243 3.11658,-0.99243 0.6546,0 0.91696,-1.04422 0.63411,-2.52387 -0.26536,-1.38812 -0.0928,-2.76468 0.38342,-3.05901 0.47624,-0.29434 0.91913,0.9539 0.9842,2.77386 l 0.11832,3.30902 0.76337,-3 c 0.41985,-1.65 0.81661,-2.4375 0.88169,-1.75 0.0651,0.6875 0.90581,1.25689 1.86831,1.26531 1.46777,0.0129 1.51276,0.16535 0.27896,0.94563 -1.87033,1.18283 -0.65643,2.49382 1.53167,1.65417 0.90578,-0.34758 1.41682,-1.23148 1.13564,-1.96422 -0.28117,-0.73274 -0.10975,-1.96645 0.38094,-2.74157 0.65028,-1.02723 0.89632,-0.66955 0.90748,1.31924 0.0143,2.54061 0.1862,2.6507 2.49609,1.59824 1.36443,-0.62167 2.75551,-1.99594 3.0913,-3.05392 0.82982,-2.61452 1.49289,-1.73734 0.77163,1.02079 -0.31734,1.21348 -1.17293,2.20633 -1.90132,2.20633 -0.7284,0 -1.58664,0.42439 -1.90721,0.94308 -0.33045,0.53467 0.94302,0.85947 2.94063,0.75 2.34343,-0.12841 3.54628,-0.69545 3.59152,-1.69308 0.0422,-0.93127 0.47946,-0.6469 1.15316,0.75 1.29561,2.68641 2.62547,2.92982 2.73176,0.5 0.15439,-3.52947 1.179,-11.78932 1.63036,-13.14313 1.05638,-3.16851 1.23126,-0.11588 0.3812,6.65409 -0.91383,7.27774 -0.51079,10.69512 1.14097,9.67428 0.49237,-0.3043 0.89522,-0.15276 0.89522,0.33676 0,0.48952 1.2375,1.52858 2.75,2.30902 1.5125,0.78044 3.25819,2.06932 3.87932,2.86418 0.89676,1.14759 1.27072,0.417 1.81603,-3.54783 0.37769,-2.74616 1.11339,-5.6465 1.63487,-6.44519 1.10191,-1.68765 0.27806,5.88726 -1.12419,10.33639 -0.69677,2.21076 -0.47246,3.195 1.08254,4.75 2.05578,2.05578 3.50846,2.47337 4.2142,1.21143 0.23069,-0.4125 0.28495,-0.19436 0.12057,0.48475 -0.16437,0.67911 0.57332,1.70152 1.63932,2.27202 1.64622,0.88103 2.03689,0.64398 2.59348,-1.57366 0.36042,-1.43602 0.40329,-5.05284 0.0952,-8.03737 -0.30803,-2.98453 -0.18029,-5.19171 0.28387,-4.90485 0.46416,0.28686 1.07183,-0.0437 1.35038,-0.73466 0.81706,-2.02664 0.6184,6.29991 -0.28019,11.74377 -0.57096,3.45898 -0.47553,5.22643 0.30961,5.73469 1.82365,1.18051 2.63005,0.88698 2.70523,-0.98469 0.0597,-1.48589 0.19171,-1.44816 0.87486,0.25 0.44252,1.1 0.665,2.24743 0.4944,2.54985 -0.1706,0.30242 0.56071,1.09373 1.62513,1.75847 1.69472,1.05837 1.94653,0.92785 2.02551,-1.04985 0.0722,-1.80805 0.27071,-1.63587 0.99538,0.86337 0.49786,1.71702 2.92618,4.86702 5.39628,7 2.47009,2.13299 4.49717,4.44066 4.50461,5.12816 0.007,0.6875 0.43054,1.25 0.94022,1.25 0.50967,0 1.11906,-0.5625 1.3542,-1.25 0.23513,-0.6875 0.26648,-0.26508 0.0696,0.93871 -0.3505,2.14364 1.06805,4.06039 1.90016,2.56752 0.23184,-0.41593 0.26881,-0.15312 0.0822,0.58401 -0.18664,0.73714 -0.0417,1.82181 0.32204,2.41039 0.36376,0.58858 1.60272,-1.55559 2.75324,-4.76483 1.15052,-3.20924 2.76686,-6.05459 3.59186,-6.32301 1.27108,-0.41355 1.29609,-0.24097 0.16391,1.13078 -0.73485,0.89035 -1.00282,2.15806 -0.59549,2.81713 0.41335,0.66881 0.31854,0.93747 -0.21455,0.608 -1.22862,-0.75932 -3.76956,7.75565 -2.95094,9.88893 0.51519,1.34257 0.88499,1.39831 2.17484,0.32783 0.85476,-0.70939 2.19943,-2.53772 2.98817,-4.06297 z m -2.3983,-1.92354 c 0.58498,-1.67807 1.25847,-2.85617 1.49665,-2.618 0.70272,0.70273 -0.80466,5.66905 -1.72068,5.66905 -0.46176,0 -0.36095,-1.37297 0.22403,-3.05105 z m -11.16764,-7.38993 c 0,-0.24254 0.45,-0.7191 1,-1.05902 0.55,-0.33992 1,-0.14148 1,0.44098 0,0.58246 -0.45,1.05902 -1,1.05902 -0.55,0 -1,-0.19844 -1,-0.44098 z m 3.63837,-1.05902 c 0.31659,-0.825 0.75246,-1.5 0.96862,-1.5 0.21615,0 0.39301,0.675 0.39301,1.5 0,0.825 -0.43588,1.5 -0.96862,1.5 -0.53273,0 -0.70959,-0.675 -0.39301,-1.5 z m 3.78501,-2.75 c 0.9025,-5.64898 2.12207,-6.67279 2.12207,-1.78145 0,2.44008 -0.32365,3.4654 -0.85947,2.72273 -0.53949,-0.74776 -0.67588,-0.3536 -0.36635,1.05872 0.27122,1.2375 0.0277,2.25 -0.54106,2.25 -0.65653,0 -0.78624,-1.55197 -0.35519,-4.25 z m -10.34443,-0.16667 c -0.0434,-1.05416 0.19293,-1.64479 0.52522,-1.3125 0.33229,0.33229 0.36781,1.19479 0.0789,1.91667 -0.31922,0.79773 -0.55618,0.56078 -0.60416,-0.60417 z m 4.499,-2.08333 c 1.29012,-5.37947 2.50981,-7.34409 1.86248,-3 -0.32784,2.2 -1.04289,4.45 -1.58901,5 -0.65783,0.6625 -0.75013,-0.0125 -0.27347,-2 z m 10.42205,-0.5 c 0,-1.1 0.40787,-2 0.90638,-2 0.49851,0 0.67103,0.9 0.38337,2 -0.28766,1.1 -0.69553,2 -0.90638,2 -0.21085,0 -0.38337,-0.9 -0.38337,-2 z m -6.44178,-2 c 1.21043,-8.30543 3.66135,-21.5364 4.06581,-21.94876 0.88564,-0.90295 -0.98971,11.64437 -2.7574,18.44876 -1.00018,3.85 -1.58896,5.425 -1.30841,3.5 z m -5.38825,0.5 c -0.0162,-1.1 0.35734,-2.9 0.83003,-4 1.09501,-2.54822 1.09501,0.0808 0,3.5 -0.64363,2.00973 -0.8064,2.10779 -0.83003,0.5 z m -7,-1.5 c 0.0162,-0.825 0.38968,-2.625 0.83003,-4 0.64363,-2.00973 0.8064,-2.10779 0.83003,-0.5 0.0162,1.1 -0.35734,2.9 -0.83003,4 -0.52653,1.22531 -0.84804,1.41898 -0.83003,0.5 z m 3.02498,-1.5 c -0.0204,-1.65 0.18706,-2.44606 0.46099,-1.76903 0.27392,0.67703 0.29059,2.02703 0.0371,3 -0.25354,0.97297 -0.47766,0.41903 -0.49804,-1.23097 z m 2.884,-2.91667 c -0.0434,-1.05416 0.19293,-1.64479 0.52522,-1.3125 0.33229,0.33229 0.36781,1.19479 0.0789,1.91667 -0.31922,0.79773 -0.55618,0.56078 -0.60416,-0.60417 z m -7.82677,-3.08333 c -0.0111,-2.2 0.18461,-3.21775 0.4349,-2.26166 0.25029,0.95609 0.25937,2.75609 0.0202,4 -0.23919,1.24391 -0.44398,0.46166 -0.45508,-1.73834 z m 5.93642,0 c 0.0264,-1.1 0.39155,-3.35 0.8114,-5 l 0.76337,-3 0.048,3 c 0.0264,1.65 -0.33871,3.9 -0.8114,5 -0.85943,2 -0.85943,2 -0.8114,0 z m 4.89035,0.0833 c -0.0434,-1.05416 0.19293,-1.64479 0.52522,-1.3125 0.33229,0.33229 0.36781,1.19479 0.0789,1.91667 -0.31922,0.79773 -0.55618,0.56078 -0.60416,-0.60417 z m -2,-1 c -0.0434,-1.05416 0.19293,-1.64479 0.52522,-1.3125 0.33229,0.33229 0.36781,1.19479 0.0789,1.91667 -0.31922,0.79773 -0.55618,0.56078 -0.60416,-0.60417 z m 15,0 c -0.0434,-1.05416 0.19293,-1.64479 0.52522,-1.3125 0.33229,0.33229 0.36781,1.19479 0.0789,1.91667 -0.31922,0.79773 -0.55618,0.56078 -0.60416,-0.60417 z m -26.06364,-1.66666 c 0.008,-1.32917 0.4578,-3.09167 0.99861,-3.91667 0.69179,-1.05532 0.79289,-0.46242 0.34104,2 -0.79139,4.31279 -1.35998,5.12629 -1.33965,1.91667 z m -11.88168,-3.91664 c 0.0566,-1.925 0.44652,-4.85 0.86637,-6.5 0.66427,-2.61053 0.77674,-2.35089 0.86637,2 0.0567,2.75 -0.33321,5.675 -0.86637,6.5 -0.72047,1.11485 -0.94293,0.60133 -0.86637,-2 z m 7.06132,0.5 c -0.0204,-1.65 0.18706,-2.44606 0.46099,-1.76903 0.27392,0.67703 0.29059,2.02703 0.0371,3 -0.25354,0.97297 -0.47766,0.41903 -0.49804,-1.23097 z m 19.49812,-2 c 0.35097,-2.75 0.95349,-7.025 1.33892,-9.5 0.64161,-4.12003 0.70838,-4.20447 0.79076,-1 0.0495,1.925 -0.55302,6.2 -1.33892,9.5 -1.3907,5.83965 -1.41184,5.86637 -0.79076,1 z m 16.43484,3 c -0.007,-1.1 0.35967,-3.8 0.81472,-6 l 0.82737,-4 0.0447,4 c 0.0246,2.2 -0.34203,4.9 -0.81472,6 -0.85943,2 -0.85943,2 -0.87209,0 z m -32.91514,-4.5 c -0.0207,-1.925 0.31289,-5.75 0.74122,-8.5 0.7587,-4.87108 0.78032,-4.89686 0.83827,-1 0.0327,2.2 -0.30083,6.025 -0.74122,8.5 -0.73738,4.1441 -0.80368,4.22319 -0.83827,1 z m 28.94512,1 c 0,-1.375 0.22698,-1.9375 0.50439,-1.25 0.27741,0.6875 0.27741,1.8125 0,2.5 -0.27741,0.6875 -0.50439,0.125 -0.50439,-1.25 z m -42.51285,-2 c 0.79139,-4.31279 1.35998,-5.12629 1.33965,-1.91667 -0.008,1.32917 -0.4578,3.09167 -0.99861,3.91667 -0.69179,1.05532 -0.79289,0.46242 -0.34104,-2 z m -119.39286,-2.5 c -0.0111,-2.2 0.18461,-3.21775 0.4349,-2.26166 0.25029,0.95609 0.25937,2.75609 0.0202,4 -0.23919,1.24391 -0.44398,0.46166 -0.45508,-1.73834 z m 33.38269,-0.75 c 0.2396,-1.7875 0.59976,-7.14702 0.80036,-11.91005 0.20059,-4.76303 0.80757,-9.45139 1.34884,-10.41858 0.92967,-1.66123 0.75761,13.04317 -0.24665,21.07863 -0.20622,1.65 -0.4115,3.3375 -0.45618,3.75 -0.0447,0.4125 -0.48641,0.75 -0.98163,0.75 -0.49521,0 -0.70434,-1.4625 -0.46474,-3.25 z m 2.02741,-13 c -0.27741,-0.6875 -0.50439,-0.125 -0.50439,1.25 0,1.375 0.22698,1.9375 0.50439,1.25 0.27741,-0.6875 0.27741,-1.8125 0,-2.5 z m -29.99561,14.58333 c -0.91806,-0.91805 -0.84451,-12.10594 0.0833,-12.67646 0.4125,-0.25364 0.86909,2.6448 1.01463,6.44098 0.26419,6.89032 0.15829,7.49173 -1.09796,6.23548 z m 12.40362,-2.41666 c 0.0386,-1.87917 0.46028,-4.31667 0.93695,-5.41667 0.55758,-1.2867 0.66059,-0.21675 0.28884,3 -0.68712,5.94562 -1.32423,7.20169 -1.22579,2.41667 z m 119.18189,-0.41667 c -0.0111,-2.2 0.18461,-3.21775 0.4349,-2.26166 0.25029,0.95609 0.25937,2.75609 0.0202,4 -0.23919,1.24391 -0.44398,0.46166 -0.45508,-1.73834 z m 7.82677,-0.75 c -0.0434,-2.6125 0.28069,-4.75 0.72025,-4.75 0.43956,0 0.63194,1.6875 0.42752,3.75 -0.57539,5.80545 -1.06087,6.22843 -1.14777,1 z m -102.41175,2.46055 c -0.22114,-0.3908 0.20146,-3.86055 0.9391,-7.71055 l 1.34117,-7 -0.28862,6.26489 c -0.29893,6.48857 0.88572,7.39748 1.60982,1.23511 l 0.41126,-3.5 0.16003,4.02776 c 0.11542,2.90478 -0.38792,4.49694 -1.80532,5.71055 -1.08095,0.92554 -2.1463,1.36305 -2.36744,0.97224 z m -33.5512,-5.96055 c -0.0638,-3.4375 0.22474,-6.25 0.64121,-6.25 0.41646,0 0.6195,2.1375 0.4512,4.75 -0.48954,7.59898 -0.96704,8.25464 -1.09241,1.5 z m 105.5859,-0.25 c 0.33496,-3.575 0.97953,-7.625 1.43238,-9 0.50201,-1.52427 0.59466,-0.0305 0.23738,3.82731 -0.32229,3.48002 -0.96686,7.53002 -1.43237,9 -0.53646,1.69402 -0.62339,0.29255 -0.23739,-3.82731 z m -101.54401,3 c 0,-1.375 0.22698,-1.9375 0.50439,-1.25 0.27741,0.6875 0.27741,1.8125 0,2.5 -0.27741,0.6875 -0.50439,0.125 -0.50439,-1.25 z m 7.92106,0.58333 c -0.0434,-1.05416 0.19292,-1.64479 0.52522,-1.3125 0.33229,0.33229 0.36781,1.19479 0.0789,1.91667 -0.31922,0.79773 -0.55618,0.56078 -0.60416,-0.60417 z m 40.92105,0.61054 c 0,-0.52194 0.675,-1.50918 1.5,-2.19387 0.825,-0.68469 1.5,-0.93265 1.5,-0.55102 0,0.38163 -0.675,1.36888 -1.5,2.19388 -0.825,0.825 -1.5,1.07295 -1.5,0.55101 z m 13.60056,-1.35658 c 0.39523,-0.63949 1.05072,-2.55199 1.45666,-4.25 l 0.73806,-3.08729 0.17264,3 c 0.1502,2.60987 0.28441,2.73991 1.03208,1 0.82509,-1.92009 0.86224,-1.91151 0.92971,0.21482 0.0387,1.21992 -0.79857,2.67981 -1.86397,3.25 -2.52842,1.35317 -3.35391,1.31046 -2.46518,-0.12753 z m 32.54001,-0.83729 c 0,-1.375 0.38674,-3.4 0.85943,-4.5 0.78339,-1.82305 0.85943,-1.77881 0.85943,0.5 0,1.375 -0.38674,3.4 -0.85943,4.5 -0.78339,1.82305 -0.85943,1.77881 -0.85943,-0.5 z m 19.04803,0.5 c 0.0264,-1.1 0.39155,-3.35 0.8114,-5 l 0.76337,-3 0.048,3 c 0.0264,1.65 -0.33871,3.9 -0.8114,5 -0.85943,2 -0.85943,2 -0.8114,0 z m -125.10965,-0.91667 c -0.0434,-1.05416 0.19292,-1.64479 0.52522,-1.3125 0.33229,0.33229 0.36781,1.19479 0.0789,1.91667 -0.31922,0.79773 -0.55618,0.56078 -0.60416,-0.60417 z m 67.40338,-1.62132 c 0.36339,-1.94589 1.24663,-7.57089 1.96276,-12.5 0.71612,-4.92911 1.35554,-7.38701 1.42092,-5.46201 0.0654,1.925 -0.3164,6.2 -0.8484,9.5 -0.53201,3.3 -1.11702,7.0009 -1.30001,8.22423 -0.183,1.22333 -0.68446,2.57333 -1.11435,3 -0.42989,0.42667 -0.4843,-0.81633 -0.12092,-2.76222 z m 2.67556,0.038 c 0,-1.375 0.22698,-1.9375 0.50439,-1.25 0.27741,0.6875 0.27741,1.8125 0,2.5 -0.27741,0.6875 -0.50439,0.125 -0.50439,-1.25 z m -16.84802,-4.5 c -0.006,-3.3 0.17648,-4.77056 0.40466,-3.26791 0.22817,1.50265 0.23276,4.20265 0.0102,6 -0.22256,1.79735 -0.40925,0.56791 -0.41486,-2.73209 z m 45.8601,3.5 c -0.0162,-1.375 0.35734,-3.4 0.83003,-4.5 0.85943,-2 0.85943,-2 0.83003,0 -0.0162,1.1 -0.38968,3.125 -0.83003,4.5 l -0.80064,2.5 -0.0294,-2.5 z m -8.01208,-2 c 0,-1.375 0.22698,-1.9375 0.50439,-1.25 0.27741,0.6875 0.27741,1.8125 0,2.5 -0.27741,0.6875 -0.50439,0.125 -0.50439,-1.25 z m -32.88553,-3 c 0,-2.475 0.19502,-3.4875 0.43337,-2.25 0.23836,1.2375 0.23836,3.2625 0,4.5 -0.23835,1.2375 -0.43337,0.225 -0.43337,-2.25 z m 2.8524,-1.95 c -0.0772,-3.99294 0.22986,-6.08811 0.80615,-5.5 0.54797,0.5592 0.59929,3.2125 0.12475,6.45 l -0.80615,5.5 -0.12475,-6.45 z m 27.89055,3.86667 c 0.008,-1.32917 0.4578,-3.09167 0.99861,-3.91667 0.69179,-1.05532 0.79289,-0.46242 0.34104,2 -0.79139,4.31279 -1.35998,5.12629 -1.33965,1.91667 z m 21,0.89235 c -0.008,-0.93004 0.43469,-1.9691 0.98469,-2.30902 1.2656,-0.78218 1.2656,0.54163 0,2.5 -0.8354,1.29269 -0.97149,1.26629 -0.98469,-0.19098 z m -89.68198,-1.17671 c 0,-0.89777 0.34094,-1.63231 0.75763,-1.63231 0.4167,0 0.54921,-2.1375 0.29448,-4.75 -0.25473,-2.6125 -0.0635,-6.775 0.42487,-9.25 0.77662,-3.93552 0.8876,-3.3372 0.88468,4.76971 -0.002,5.53515 -0.47839,9.91939 -1.18249,10.88231 -1.08258,1.48051 -1.17917,1.4789 -1.17917,-0.0197 z m 15.82456,-0.63232 c 0,-1.375 0.22698,-1.9375 0.50439,-1.25 0.27741,0.6875 0.27741,1.8125 0,2.5 -0.27741,0.6875 -0.50439,0.125 -0.50439,-1.25 z m -9.05821,-2.58333 c 0.0548,-2.15417 0.48328,-5.04167 0.95212,-6.41667 0.55223,-1.61956 0.64913,-0.38694 0.27512,3.5 -0.66876,6.95029 -1.37246,8.62271 -1.22724,2.91667 z m 58.54536,0.58333 c 0.79139,-4.31279 1.35998,-5.12629 1.33965,-1.91667 -0.008,1.32917 -0.4578,3.09167 -0.99861,3.91667 -0.69179,1.05532 -0.79289,0.46242 -0.34104,-2 z m -46.14504,1 c -0.33992,-0.55 -0.14148,-1 0.44098,-1 0.58246,0 1.05902,0.45 1.05902,1 0,0.55 -0.19844,1 -0.44098,1 -0.24254,0 -0.7191,-0.45 -1.05902,-1 z m 56.71799,-1.5 c -0.0102,-1.65 0.34166,-4.125 0.78201,-5.5 l 0.80064,-2.5 -0.0186,2.5 c -0.0103,1.375 -0.36216,3.85 -0.78201,5.5 l -0.76337,3 -0.0186,-3 z m -3.98599,-1.5 c 0,-1.925 0.2058,-2.7125 0.45733,-1.75 0.25152,0.9625 0.25152,2.5375 0,3.5 -0.25153,0.9625 -0.45733,0.175 -0.45733,-1.75 z m -46.95964,-2 c 0,-2.475 0.19502,-3.4875 0.43337,-2.25 0.23836,1.2375 0.23836,3.2625 0,4.5 -0.23835,1.2375 -0.43337,0.225 -0.43337,-2.25 z m 30.39752,0.5 c 0.75779,-4.94316 1.33512,-5.78476 1.31481,-1.91667 -0.008,1.60417 -0.44567,3.59167 -0.97166,4.41667 -0.65127,1.02149 -0.76073,0.22397 -0.34315,-2.5 z m 2.34543,1.41667 c 0.008,-1.32917 0.4578,-3.09167 0.99861,-3.91667 0.69179,-1.05532 0.79289,-0.46242 0.34104,2 -0.79139,4.31279 -1.35998,5.12629 -1.33965,1.91667 z m -47.78331,-1.91667 c 0,-1.925 0.2058,-2.7125 0.45733,-1.75 0.25152,0.9625 0.25152,2.5375 0,3.5 -0.25153,0.9625 -0.45733,0.175 -0.45733,-1.75 z m 33.78331,-3.08333 c 0.008,-3.52917 0.44162,-7.09104 0.96266,-7.91527 0.61698,-0.976 0.73777,1.11635 0.34638,6 -0.7556,9.42796 -1.32897,10.26686 -1.30904,1.91527 z m 20.17342,-2.91667 c 0.2359,-4.675 0.99335,-9.4 1.68321,-10.5 1.15335,-1.83903 1.20771,-1.77974 0.67549,0.73661 -0.31835,1.50513 -0.84957,6.00513 -1.18049,10 -0.84372,10.18532 -1.69548,10.01427 -1.17821,-0.23661 z m 40.11093,3 c 0,-3.025 0.18747,-4.2625 0.41659,-2.75 0.22913,1.5125 0.22913,3.9875 0,5.5 -0.22912,1.5125 -0.41659,0.275 -0.41659,-2.75 z m -106.10471,1.5 c -0.0204,-1.65 0.18706,-2.44606 0.46099,-1.76903 0.27392,0.67703 0.29059,2.02703 0.0371,3 -0.25354,0.97297 -0.47766,0.41903 -0.49804,-1.23097 z m 22.4892,1.75 c -0.23864,-0.4125 -0.0718,-1.65 0.3707,-2.75 0.7024,-1.746 0.81351,-1.65075 0.87486,0.75 0.0693,2.713 -0.3985,3.46421 -1.24556,2 z m 2.3948,-0.66667 c -0.0434,-1.05416 0.19292,-1.64479 0.52522,-1.3125 0.33229,0.33229 0.36781,1.19479 0.0789,1.91667 -0.31922,0.79773 -0.55618,0.56078 -0.60416,-0.60417 z m 114.42105,-1.58333 c -0.33992,-0.55 -0.14148,-1 0.44098,-1 0.58246,0 1.05902,0.45 1.05902,1 0,0.55 -0.19844,1 -0.44098,1 -0.24254,0 -0.7191,-0.45 -1.05902,-1 z m -106.87838,-2.75 c 0.94185,-3.92599 1.37838,-4.05794 1.37838,-0.41667 0,1.74167 -0.45857,3.16667 -1.01905,3.16667 -0.60496,0 -0.75097,-1.11746 -0.35933,-2.75 z m -19.50331,-2.83333 c 0.0651,-2.15417 0.47918,-5.26667 0.92022,-6.91667 0.50527,-1.89025 0.59744,-0.59554 0.24916,3.5 -0.61959,7.28593 -1.3508,9.42235 -1.16938,3.41667 z m 50.96064,2.16666 c -0.0434,-1.05416 0.19292,-1.64479 0.52522,-1.3125 0.33229,0.33229 0.36781,1.19479 0.0789,1.91667 -0.31922,0.79773 -0.55618,0.56078 -0.60416,-0.60417 z m 30.116,-1.08333 c -0.0204,-1.65 0.18706,-2.44606 0.46099,-1.76903 0.27392,0.67703 0.29059,2.02703 0.0371,3 -0.25354,0.97297 -0.47766,0.41903 -0.49804,-1.23097 z m -67.4977,-8 c 0.29795,-5.5 0.71295,-10.1875 0.92223,-10.41667 0.67869,-0.74316 0.22891,10.2753 -0.62932,15.41667 -0.59044,3.53718 -0.67613,2.07435 -0.29291,-5 z m 13.04344,-2.11514 c 0.28898,-2.68667 0.69054,-5.07236 0.89236,-5.30153 0.7972,-0.90521 0.28052,7.50479 -0.54073,8.80153 -0.5362,0.84666 -0.67285,-0.51354 -0.35163,-3.5 z m 42.27462,2.03181 c 0.008,-1.60417 0.47512,-3.59167 1.0371,-4.41667 0.73213,-1.07477 0.83192,-0.36606 0.35203,2.5 -0.83062,4.96072 -1.4093,5.75916 -1.38913,1.91667 z m -28.93636,-5.83334 c -0.0434,-1.05416 0.19292,-1.64479 0.52522,-1.3125 0.33229,0.33229 0.36781,1.19479 0.0789,1.91667 -0.31922,0.79773 -0.55618,0.56078 -0.60416,-0.60417 z m 20.42105,-10.58333 c 0.33992,-0.55 1.37898,-0.99311 2.30902,-0.98469 1.45727,0.0132 1.48367,0.14929 0.19098,0.98469 -1.95837,1.2656 -3.28218,1.2656 -2.5,0 z m -123.89583,87.27083 c -0.3323,-0.33229 -0.56864,0.25834 -0.52522,1.3125 0.048,1.16495 0.28494,1.4019 0.60416,0.60417 0.28887,-0.72188 0.25335,-1.58438 -0.0789,-1.91667 z m 62.39583,2.24259 c 0,-0.82095 -7.11836,-3.51342 -9.28879,-3.51342 -2.48251,0 -1.78257,0.90851 1.13243,1.46989 1.16284,0.22394 2.91123,0.87114 3.88531,1.43823 1.86708,1.08697 4.27105,1.42766 4.27105,0.6053 z m -63.368,-29.26342 c 0.97064,-10.0375 2.1341,-18.25 2.58545,-18.25 0.45136,0 0.60187,1.0125 0.33448,2.25 -0.2674,1.2375 -1.17592,9.225 -2.01894,17.75 -0.84302,8.525 -1.78538,17.4125 -2.09415,19.75 -0.4524,3.42496 -0.2583,4.25 0.99989,4.25 0.8587,0 1.56127,-0.675 1.56127,-1.5 0,-0.825 0.40787,-1.5 0.90638,-1.5 0.49851,0 0.66727,1.0125 0.37503,2.25 -0.50206,2.12592 -0.45246,2.14827 0.89942,0.40533 0.89381,-1.15236 1.30645,-3.49801 1.0995,-6.25 -0.19242,-2.55857 0.0986,-4.40533 0.69419,-4.40533 0.56401,0 1.054,1.4625 1.08887,3.25 0.0554,2.84192 0.17219,2.98033 0.92992,1.10233 0.97178,-2.40853 3.00669,-4.04051 3.00669,-2.41135 0,0.58246 0.3876,1.05902 0.86133,1.05902 0.47373,0 0.64627,-1.125 0.38342,-2.5 -0.29915,-1.56492 -0.0202,-2.5 0.74566,-2.5 0.70547,0 0.96626,0.67053 0.6159,1.58356 -0.33422,0.87096 -0.15736,1.43346 0.39301,1.25 0.55037,-0.18346 1.00068,-0.67106 1.00068,-1.08356 0,-6.80153 -0.0679,-7.19224 -1,-5.75 -0.75932,1.17497 -0.97269,0.92183 -0.98469,-1.16821 -0.02,-3.4841 0.9634,-5.96298 2.08947,-5.26703 0.49237,0.3043 0.90953,1.98922 0.92702,3.74426 0.0175,1.75504 0.61142,3.95361 1.31983,4.88571 1.18929,1.56481 1.49513,1.50268 3.98981,-0.81052 1.48599,-1.37788 2.38789,-3.01315 2.00422,-3.63394 -0.44853,-0.72574 -1.03704,-0.36794 -1.6484,1.00218 -0.52296,1.17198 -1.65604,2.40149 -2.51798,2.73225 -1.32713,0.50927 -1.30772,0.3147 0.12679,-1.27041 1.78366,-1.97093 2.34576,-7.21429 0.77339,-7.21429 -0.5063,0 -1.22413,1.38218 -1.59517,3.07151 -0.37103,1.68932 -0.88959,2.85652 -1.15235,2.59377 -0.26275,-0.26276 -0.0411,-2.05923 0.49265,-3.99216 0.73601,-2.66563 0.61282,-4.19777 -0.5101,-6.34377 -1.20124,-2.29569 -1.33032,-4.90414 -0.68436,-13.82935 0.43786,-6.05 0.95694,-9.74343 1.15351,-8.20761 0.33243,2.59738 0.70559,2.26953 5.3436,-4.69481 8.97556,-13.4775 19.95107,-21.94059 37.4909,-28.9088 6.57845,-2.61347 8.41148,-3.71311 7.06809,-4.24013 -0.99757,-0.39136 -2.93125,-0.20241 -4.29705,0.41989 -1.36581,0.6223 -3.83867,1.13146 -5.49525,1.13146 -1.65658,0 -2.76858,0.3938 -2.47111,0.87512 0.29746,0.48131 -1.54977,0.63947 -4.10497,0.35146 -3.73274,-0.42073 -4.53923,-0.24587 -4.10347,0.88971 0.42569,1.10933 -0.34571,1.336 -3.58601,1.05371 -3.92522,-0.34196 -4.02996,-0.28124 -2.12837,1.23393 1.89261,1.50801 1.77853,1.56102 -2.12441,0.9871 -2.56955,-0.37784 -4.38249,-0.18888 -4.80901,0.50125 -0.37654,0.60924 -0.0956,1.17842 0.6244,1.26482 0.71996,0.0864 -0.94098,0.42391 -3.69098,0.75 -2.81225,0.33348 -4.9126,1.07388 -4.80025,1.69215 0.10986,0.60459 -1.12163,1.13682 -2.73666,1.18274 -4.12413,0.11725 -5.84522,1.33779 -3.39671,2.40882 1.33656,0.58464 0.7757,0.70518 -1.81638,0.39037 -3.75687,-0.45627 -5.2902,0.86967 -2,1.72949 0.9625,0.25153 -0.0765,0.50953 -2.30887,0.57333 -4.05705,0.11595 -9.93714,3.01472 -6.25623,3.0842 0.9267,0.0175 2.90161,-0.43079 4.38869,-0.99618 1.48708,-0.56539 2.93547,-0.79629 3.21864,-0.51312 0.89073,0.89072 -6.17478,3.37205 -8.79249,3.08782 -1.37485,-0.14928 -1.71224,-0.0771 -0.74974,0.16048 1.96959,0.4861 2.44586,2.43197 0.5,2.0428 -0.6875,-0.1375 -1.1375,0.3125 -1,1 0.14392,0.7196 -0.75884,1.25 -2.12756,1.25 -2.48219,0 -5.08517,2.20394 -3.9471,3.34201 0.3619,0.36189 -0.74045,0.65799 -2.44966,0.65799 -1.7092,0 -3.42609,0.51524 -3.81529,1.14499 -0.48846,0.79035 0.11271,0.98817 1.94098,0.63867 1.45675,-0.27847 2.64863,-0.11872 2.64863,0.35501 0,0.9219 -0.61007,1.04992 -5.90676,1.23943 -1.92342,0.0688 -3.6127,0.72677 -3.87973,1.5111 -0.31574,0.92738 -0.0461,1.12534 0.81127,0.59549 0.86753,-0.53617 1.03904,-0.39697 0.52858,0.42898 -0.41562,0.67247 -1.38514,0.98112 -2.15451,0.68589 -1.79905,-0.69036 -4.54794,0.35019 -3.86108,1.46155 0.28945,0.46835 1.26069,0.56972 2.1583,0.22528 1.13959,-0.4373 1.39874,-0.24881 0.85888,0.6247 -0.47688,0.77161 -1.73776,1.00886 -3.29053,0.61914 -2.00492,-0.5032 -2.39624,-0.31613 -1.92229,0.91897 0.39032,1.01716 0.004,1.58038 -1.12352,1.63675 -0.94523,0.0473 -0.40717,0.47813 1.19571,0.95747 1.60287,0.47933 3.33527,0.61134 3.84977,0.29337 0.58045,-0.35874 0.58073,0.13176 7.4e-4,1.29253 -3.64823,7.3014 -4.027,21.1531 -0.7861,28.74805 1.56872,3.67623 1.7257,3.77578 3.02621,1.91904 0.75442,-1.07709 1.54332,-4.1719 1.75312,-6.87737 0.3658,-4.71732 0.38883,-4.66567 0.56169,1.25953 0.1221,4.1854 -0.27437,6.63319 -1.229,7.58782 -0.81105,0.81105 -1.07467,1.95061 -0.62105,2.68458 0.62893,1.01763 0.89774,0.99988 1.3303,-0.0878 0.29816,-0.74973 0.57818,-0.23815 0.62227,1.13685 0.0441,1.375 1.20462,3.80749 2.57895,5.40554 l 2.49878,2.90552 0.0703,-9.40554 c 0.11021,-14.74787 1.75648,-15.49919 1.98419,-0.90554 0.23126,14.82183 0.76705,12.31327 3.57752,-16.75 z m 2.44695,17.33333 c -0.0434,-1.05416 0.19292,-1.64479 0.52522,-1.3125 0.33229,0.33229 0.36781,1.19479 0.079,1.91667 -0.31923,0.79773 -0.55619,0.56078 -0.60417,-0.60417 z m 5.08915,-5.75154 c -0.0925,-2.01752 -0.42708,-4.49252 -0.74361,-5.5 -0.54189,-1.7248 -0.50922,-1.72857 0.55934,-0.0646 0.62417,0.97198 0.95879,3.44698 0.74361,5.5 l -0.39123,3.73281 -0.16811,-3.66821 z m -5.1681,-2.66512 c 0,-2.84167 0.39472,-5.16667 0.87716,-5.16667 0.8015,0 0.34101,8.9501 -0.51022,9.91667 -0.20182,0.22916 -0.36694,-1.90834 -0.36694,-4.75 z m -16.71399,-0.66667 c 0.007,-2.75 0.20172,-3.75631 0.43157,-2.23625 0.22986,1.52006 0.22371,3.77006 -0.0137,5 -0.23736,1.22994 -0.42542,-0.0138 -0.41792,-2.76375 z m 23.71399,2.55902 c 0,-1.06754 0.38499,-2.17893 0.85554,-2.46974 0.47055,-0.29082 0.64309,0.58263 0.38343,1.94098 -0.56402,2.95046 -1.23897,3.23851 -1.23897,0.52876 z m 1.25218,-8.55902 c -0.0111,-2.2 0.18461,-3.21775 0.4349,-2.26166 0.25029,0.95609 0.25937,2.75609 0.0202,4 -0.23919,1.24391 -0.44398,0.46166 -0.45508,-1.73834 z m -15.05723,-3 c -0.0204,-1.65 0.18706,-2.44606 0.46099,-1.76903 0.27392,0.67703 0.29059,2.02703 0.037,3 -0.25354,0.97297 -0.47766,0.41903 -0.49804,-1.23097 z m -10.19495,-3.27432 c 0,-2.2592 0.49848,-4.41573 1.10774,-4.79227 0.76908,-0.47531 0.96063,0.58894 0.62656,3.4811 -0.64635,5.59554 -1.7343,6.41806 -1.7343,1.31117 z m 6.07895,-1.64235 c -0.0434,-1.05416 0.19292,-1.64479 0.52522,-1.3125 0.33229,0.33229 0.36781,1.19479 0.079,1.91667 -0.31923,0.79773 -0.55619,0.56078 -0.60417,-0.60417 z m 16.24112,-4.58333 c 0,-3.575 0.1815,-5.0375 0.40333,-3.25 0.22182,1.7875 0.22182,4.7125 0,6.5 -0.22183,1.7875 -0.40333,0.325 -0.40333,-3.25 z m -11.04771,-2 c 0,-2.475 0.19502,-3.4875 0.43337,-2.25 0.23836,1.2375 0.23836,3.2625 0,4.5 -0.23835,1.2375 -0.43337,0.225 -0.43337,-2.25 z m -5.18676,1.5 c -0.0302,-1.1 0.38124,-2.675 0.9144,-3.5 0.86167,-1.33333 0.96327,-1.33333 0.9144,0 -0.0302,0.825 -0.44171,2.4 -0.9144,3.5 -0.85943,2 -0.85943,2 -0.9144,0 z m -5.06554,-11.02417 c 0.69572,-0.83829 1.47088,-1.31823 1.72258,-1.06653 0.69349,0.6935 -0.71555,2.5907 -1.9241,2.5907 -0.6631,0 -0.58723,-0.57378 0.20152,-1.52417 z m 3.47994,-3.47583 c 0.33992,-0.55 1.06803,-1 1.61803,-1 0.55,0 0.72189,0.45 0.38197,1 -0.33992,0.55 -1.06803,1 -1.61803,1 -0.55,0 -0.72189,-0.45 -0.38197,-1 z m 11,-8 c 0.33992,-0.55 1.06803,-1 1.61803,-1 0.55,0 0.72189,0.45 0.38197,1 -0.33992,0.55 -1.06803,1 -1.61803,1 -0.55,0 -0.72189,-0.45 -0.38197,-1 z m 50.5,58.52568 c 0,-0.76675 -5.78226,-3.53306 -7.20034,-3.44473 -0.71481,0.0445 0.50034,0.93272 2.70034,1.97377 4.48612,2.12287 4.5,2.1274 4.5,1.47096 z m -10.44113,-6.05748 c -1.06762,-0.80751 -2.41762,-1.45389 -3,-1.4364 -0.58238,0.0175 -0.18536,0.6925 0.88226,1.5 1.06762,0.80751 2.41762,1.45389 3,1.4364 0.58238,-0.0175 0.18536,-0.6925 -0.88226,-1.5 z m 15.53501,-6.32847 c 3.0025,-1.03302 8.71849,-2.46069 12.70219,-3.17262 6.55683,-1.17177 7.44154,-1.61551 9.33758,-4.68336 1.15197,-1.86392 1.84754,-3.63589 1.54572,-3.93771 -0.64202,-0.64203 -12.76226,1.29329 -20.67937,3.30201 -7.16659,1.81829 -21,7.3463 -21,8.39187 0,0.44832 1.41258,1.92064 3.13908,3.27182 3.13121,2.45054 3.14704,2.452 6.31739,0.58144 1.74807,-1.03139 5.63491,-2.72044 8.63741,-3.75345 z m -20.20353,1.45942 c -1.42407,-1.32047 -3.53891,-3.6082 -4.69964,-5.08383 -1.92314,-2.44488 -4.19071,-2.71657 -4.19071,-0.50211 0,1.13179 8.91215,7.98679 10.38358,7.98679 0.60279,0 -0.0692,-1.08038 -1.49323,-2.40085 z m 7.20437,-5.70734 c 8.6167,-3.66673 23.08721,-7.48612 32.03339,-8.45499 3.50454,-0.37954 7.04689,-1.25679 7.87189,-1.94944 0.825,-0.69266 3.975,-2.54818 7,-4.12338 l 5.5,-2.864 -5.24281,-0.30201 c -5.89535,-0.3396 -16.60032,1.35948 -17.05514,2.70697 -0.16387,0.4855 -1.09417,0.67451 -2.06732,0.42002 -5.17754,-1.35396 -39.13473,8.38006 -39.13473,11.21819 0,0.63421 3.25622,6.45683 3.6109,6.45683 0.0988,0 3.46654,-1.39869 7.48382,-3.10819 z m -15.77751,-6.14281 c -1.10158,-5.00462 -1.37804,-5.38024 -2.49513,-3.39004 -0.74922,1.33482 -0.68776,2.52349 0.21797,4.21587 1.51854,2.83742 2.96779,2.31184 2.27716,-0.82583 z m -3.41689,-16.55802 c 0.0679,-8.38263 0.43734,-12.10033 1.15823,-11.6548 0.62151,0.38412 0.78379,1.90514 0.39306,3.68413 -0.4607,2.09756 -0.32486,2.81939 0.44146,2.34578 0.60881,-0.37627 1.10693,-1.15978 1.10693,-1.74113 0,-1.95415 7.29245,-11.2733 13.67412,-17.4744 11.06837,-10.75518 32.40138,-19.70249 56.82588,-23.83341 10.7385,-1.81621 12.85499,-2.52887 7.41667,-2.49734 -8.11584,0.047 -25.9714,3.48635 -42.41667,8.17021 -15.20279,4.32998 -27.81056,13.4442 -34.33307,24.81954 -1.73149,3.01974 -3.15238,5.09784 -3.15755,4.618 -0.0176,-1.63567 -3.15075,1.72905 -4.94043,5.30554 -2.03818,4.07312 -3.43432,12.72305 -2.1788,13.49901 0.46199,0.28552 1.08524,2.34775 1.38501,4.58273 0.29978,2.23498 1.14017,4.78068 1.86754,5.65711 1.18197,1.42418 1.39345,1.34032 1.99022,-0.78922 0.36725,-1.3105 0.71258,-7.92179 0.7674,-14.69175 z m -3.82137,8.39235 c -0.0434,-1.05416 0.19292,-1.64479 0.52522,-1.3125 0.33229,0.33229 0.36781,1.19479 0.0789,1.91667 -0.31922,0.79773 -0.55618,0.56078 -0.60416,-0.60417 z m -41.27145,1.16667 c -0.25185,-3.48083 -0.66946,-4.25 -2.3075,-4.25 -3.037,0 -3.30937,4.21342 -0.30942,4.78648 l 2.30942,0.44116 -2.25,0.13618 c -3.21009,0.19429 -2.92164,3.13618 0.3075,3.13618 2.39039,0 2.5374,-0.2777 2.25,-4.25 z m 120.5652,-0.79046 c 3.27808,-1.88015 4.40598,-2.93624 3.1273,-2.92819 -2.40492,0.0151 -9.2235,3.0992 -12,5.42765 -1.94758,1.6333 -1.92471,1.66106 0.8727,1.05928 1.57998,-0.33988 5.17998,-1.94132 8,-3.55874 z m 42.6273,1.64745 c 0,-0.21616 -0.69837,-0.661 -1.55194,-0.98855 -0.88992,-0.34149 -1.29132,-0.17385 -0.94098,0.39301 0.58726,0.95021 2.49292,1.40545 2.49292,0.59554 z m 74,-1.87656 c 0,-2.43766 4.54676,-12.73043 5.62359,-12.73043 0.62357,0 1.69059,-1.34428 2.37115,-2.98729 0.68055,-1.64301 1.56533,-2.7846 1.96616,-2.53688 0.40083,0.24773 2.43017,-1.10799 4.50963,-3.01271 2.07947,-1.90471 4.15846,-3.46312 4.61998,-3.46312 0.46152,0 1.38035,-1.0113 2.04186,-2.24734 0.74126,-1.38505 1.36227,-1.76874 1.61852,-1 0.65338,1.96016 3.24911,1.45668 3.24911,-0.63022 0,-1.03265 0.7875,-2.47345 1.75,-3.20177 1.48877,-1.12655 1.56341,-1.11497 0.5,0.0776 -0.6875,0.77097 -1.25,1.98677 -1.25,2.70177 0,2.06019 2.13248,1.50941 2.71025,-0.7 0.28766,-1.1 0.8784,-2 1.31276,-2 0.43436,0 0.5544,0.9 0.26674,2 -0.71055,2.71716 1.1278,2.53782 2.56271,-0.25 1.15723,-2.24835 1.15767,-2.24838 0.60081,-0.0485 -0.46099,1.82115 0.16634,2.55116 3.63073,4.22497 2.30341,1.11288 4.65328,1.73587 5.22194,1.38442 0.61064,-0.3774 0.79754,-0.023 0.45652,0.86572 -0.31758,0.8276 -0.22857,2.06918 0.1978,2.75906 0.52107,0.84311 1.00726,0.32985 1.48297,-1.56552 0.43629,-1.73833 0.29286,-2.95815 -0.37398,-3.18043 -0.59494,-0.19831 -0.85886,-0.72115 -0.58649,-1.16185 0.27237,-0.44071 -0.22352,-1.39779 -1.10198,-2.12685 -1.35374,-1.1235 -1.81941,-1.02645 -3.05493,0.6367 -1.39372,1.87608 -1.43118,1.85247 -0.85314,-0.53775 0.71467,-2.9552 -0.97558,-4.24858 -9.29109,-7.10954 -6.88739,-2.36961 -18.0885,-2.48226 -24.64607,-0.24787 -5.73587,1.95441 -11.83853,7.71538 -13.49735,12.74166 -1.02232,3.09767 -1.64786,3.6327 -4.36575,3.73406 l -3.17245,0.11832 3,0.76337 3,0.76337 -2.87244,0.11832 c -2.38197,0.0981 -2.66831,0.36429 -1.67689,1.55887 0.65756,0.79231 1.79214,1.21163 2.52129,0.93183 0.72916,-0.27981 1.66579,0.0415 2.0814,0.71394 0.50467,0.81658 0.33906,0.96521 -0.49862,0.4475 -0.96942,-0.59913 -1.0125,-0.32342 -0.18969,1.21401 0.58552,1.09406 0.78042,2.27336 0.4331,2.62068 -0.34732,0.34731 0.56852,0.63148 2.03518,0.63148 2,0 2.66667,-0.5 2.66667,-2 0,-1.1 0.3949,-2 0.87756,-2 1.32519,0 3.33518,2.7508 2.421,3.3133 -0.43921,0.27024 -0.646,3.2371 -0.45954,6.59302 0.18646,3.35592 0.74896,5.84832 1.25,5.53866 0.50104,-0.30966 0.91098,-1.0812 0.91098,-1.71455 z m 0.56429,-11.02356 c 0.37553,-0.98622 0.93469,-1.54122 1.24258,-1.23333 0.30789,0.30789 6.4e-4,1.11479 -0.68278,1.79313 -0.98762,0.98026 -1.10248,0.8654 -0.5598,-0.5598 z m -9.06429,-1.70687 c 0.33992,-0.55 1.06803,-1 1.61803,-1 0.55,0 0.72189,0.45 0.38197,1 -0.33992,0.55 -1.06803,1 -1.61803,1 -0.55,0 -0.72189,-0.45 -0.38197,-1 z m 1.5,-3.5 c 0,-0.825 0.17686,-1.5 0.39301,-1.5 0.21616,0 0.65203,0.675 0.96862,1.5 0.31658,0.825 0.13972,1.5 -0.39301,1.5 -0.53274,0 -0.96862,-0.675 -0.96862,-1.5 z m 21.0856,-8.5 c -0.0302,-0.825 0.38124,-2.175 0.9144,-3 1.18132,-1.82797 1.18132,-0.24909 0,2.5 -0.56668,1.31874 -0.87815,1.48906 -0.9144,0.5 z m 26.9144,-1.5 c 0,-0.825 0.43588,-1.5 0.96862,-1.5 0.53273,0 0.70959,0.675 0.39301,1.5 -0.31659,0.825 -0.75246,1.5 -0.96862,1.5 -0.21615,0 -0.39301,-0.675 -0.39301,-1.5 z m -5,-2.38197 c 0,-0.55 0.45,-1.27811 1,-1.61803 0.55,-0.33992 1,-0.16803 1,0.38197 0,0.55 -0.45,1.27811 -1,1.61803 -0.55,0.33992 -1,0.16803 -1,-0.38197 z m -17,-1.05901 c 0,-0.51754 0.44485,-1.21592 0.98855,-1.55194 0.56686,-0.35034 0.7345,0.0511 0.39301,0.94098 -0.66479,1.73242 -1.38156,2.04939 -1.38156,0.61096 z m -184,29.94098 c 0,-0.55 -0.45,-1 -1,-1 -0.55,0 -1,0.45 -1,1 0,0.55 0.45,1 1,1 0.55,0 1,-0.45 1,-1 z m 205.23834,0.29274 c -1.24391,-0.23919 -3.04391,-0.23011 -4,0.0202 -0.95609,0.25029 0.0617,0.446 2.26166,0.4349 2.2,-0.0111 2.98225,-0.21589 1.73834,-0.45508 z m -121.23834,-4.39973 c 0,-0.60884 -0.675,-0.84797 -1.5,-0.53138 -0.825,0.31658 -1.5,0.11317 -1.5,-0.45203 0,-0.5652 -0.49804,-0.71983 -1.10676,-0.34362 -0.77153,0.47683 -0.69581,0.94441 0.25,1.54371 1.90346,1.20609 3.85676,1.09635 3.85676,-0.21668 z m -154.39399,-4.47473 c 0.75013,-2.15505 1.37065,-4.03078 1.37893,-4.16828 0.05,-0.83026 -4.98917,-0.0522 -5.55115,0.85713 -0.46046,0.74503 0.0109,0.88652 1.44098,0.43262 1.26089,-0.4002 2.12523,-0.24042 2.12523,0.39286 0,0.58707 -0.3375,1.0141 -0.75,0.94897 -1.81463,-0.28652 -3.25,0.19357 -3.25,1.08704 0,0.53273 0.7875,0.72909 1.75,0.43634 0.9625,-0.29275 0.5125,0.18575 -1,1.06332 -3.46172,2.00854 -3.51024,3.13104 -0.12893,2.98302 2.10945,-0.0923 2.88728,-0.87956 3.98494,-4.03302 z m 148.39399,3.58172 c 0,-0.55 -0.5625,-1.04695 -1.25,-1.10434 -6.17673,-0.51557 -8.75,-0.45529 -8.75,0.20495 0,0.42826 1.6875,0.95518 3.75,1.17092 2.0625,0.21575 4.3125,0.46791 5,0.56037 0.6875,0.0925 1.25,-0.2819 1.25,-0.8319 z m -59.39583,-2.72917 c -0.3323,-0.33229 -0.56864,0.25834 -0.52522,1.3125 0.048,1.16495 0.28494,1.4019 0.60416,0.60417 0.28887,-0.72188 0.25335,-1.58438 -0.0789,-1.91667 z m 193.23031,-1.76968 c -0.93033,-0.93033 -9.83448,-2.24803 -9.83448,-1.45538 0,0.43316 0.5625,1.01454 1.25,1.29195 1.64394,0.66334 9.2288,0.80774 8.58448,0.16343 z m -2.33448,-3.50115 c -0.33992,-0.55 -2.50398,-0.94676 -4.80902,-0.88169 -3.95864,0.11176 -4.02466,0.16064 -1.19098,0.88169 4.43688,1.12899 6.69776,1.12899 6,0 z m -1.5,-3.52475 c 0,-0.90944 -5.12409,-2.51659 -6.10023,-1.91331 -1.67139,1.03298 0.14931,2.43806 3.15925,2.43806 1.61754,0 2.94098,-0.23614 2.94098,-0.52475 z m -57.07903,-5.16193 c 1.33153,-0.54118 1.97213,-1.26136 1.42354,-1.6004 -1.33269,-0.82365 -5.34451,0.27434 -5.34451,1.46273 0,0.51831 -0.51953,0.6213 -1.15451,0.22886 -0.68085,-0.42079 -0.88436,-0.27642 -0.49603,0.35191 0.71595,1.15844 1.85364,1.06795 5.57151,-0.4431 z m 54.57903,0.68668 c -0.33992,-0.55 -2.05398,-0.96837 -3.80902,-0.92971 -2.68981,0.0592 -2.87686,0.20526 -1.19098,0.92971 2.79107,1.19936 5.74125,1.19936 5,0 z m -183.5,-36.60699 c 0,-0.21615 -0.92656,-0.39301 -2.05902,-0.39301 -1.13246,0 -1.79305,0.43035 -1.46797,0.95633 0.53361,0.8634 3.52699,0.38531 3.52699,-0.56332 z m 4.5,-0.39301 c 0.33992,-0.55 -0.0835,-1 -0.94098,-1 -0.85746,0 -1.55902,0.45 -1.55902,1 0,0.55 0.42344,1 0.94098,1 0.51754,0 1.2191,-0.45 1.55902,-1 z m 74.56389,-4.45155 c 12.60349,-2.6176 18.99473,-7.41575 18.91415,-14.19958 -0.0734,-6.18268 -8.92415,-16.52224 -15.3453,-17.92665 -1.72301,-0.37685 -6.16359,-2.22823 -9.86796,-4.11418 -3.70436,-1.88594 -8.42936,-3.63361 -10.5,-3.88372 -3.4897,-0.42151 -3.37725,-0.31061 1.53902,1.51786 16.10836,5.99105 26.1962,16.28637 26.1962,26.73497 0,3.21103 -0.36552,3.59456 -5.65525,5.93393 -3.11039,1.37556 -7.04789,2.71281 -8.75,2.97165 -2.7276,0.4148 -2.82782,0.35265 -0.84475,-0.52382 3.75947,-1.66162 2.55906,-1.78475 -4,-0.41029 -3.4375,0.72034 -7.28906,1.31908 -8.55902,1.33054 -1.26996,0.0115 -2.06639,0.41341 -1.76985,0.89322 0.63295,1.02415 -4.84982,2.05204 -11.92113,2.23493 -4.38952,0.11353 -4.63371,0.22355 -2,0.90105 4.22515,1.08689 24.72684,0.16775 32.56389,-1.45991 z m -15.31389,-1.21073 c 0.6875,-0.27741 1.8125,-0.27741 2.5,0 0.6875,0.27741 0.125,0.50439 -1.25,0.50439 -1.375,0 -1.9375,-0.22698 -1.25,-0.50439 z m 5.52083,-0.94189 c 0.33229,-0.33229 1.19479,-0.36781 1.91667,-0.0789 0.79773,0.31922 0.56078,0.55618 -0.60417,0.60416 -1.05416,0.0434 -1.64479,-0.19293 -1.3125,-0.52522 z m 18.65888,-10.14583 c -0.0623,-2.43684 -0.16815,-2.52225 -0.92971,-0.75 -1.17371,2.73138 -1.17371,3.5 0,3.5 0.55,0 0.96837,-1.2375 0.92971,-2.75 z m -6.51353,-15.34262 c -1.04159,-1.15095 -2.79884,-2.52988 -3.90499,-3.06431 -1.18041,-0.5703 -0.66217,0.29412 1.25459,2.09263 3.70403,3.47552 5.51828,4.14065 2.6504,0.97168 z m -96.20054,-3.79799 c -2.9064,-1.00393 -6.3939,-2.86768 -7.75,-4.14167 -2.64103,-2.48112 -3.12548,-2.06915 -1.3869,1.1794 1.37358,2.56656 6.41304,4.77273 10.92126,4.78109 3.34356,0.006 3.2638,-0.0751 -1.78436,-1.81882 z m 42.96985,-2.05156 c 10.40232,-2.7035 22.62909,-6.76967 16.81451,-5.59186 -11.09349,2.24709 -26.95404,3.64492 -38.13035,3.36051 -12.47618,-0.31748 -12.90584,-0.40252 -15.58521,-3.08465 -2.37644,-2.3789 -2.58544,-3.0302 -1.51988,-4.73643 1.68577,-2.69936 1.58055,-3.00877 -1.01456,-2.98344 -2.98924,0.0292 -9.88464,3.21965 -11.70071,5.41386 -1.29573,1.56554 -1.1889,1.96384 1,3.72845 3.3698,2.71659 10.14924,5.76736 15.22041,6.84922 7.22791,1.54197 22.62536,0.23856 34.91579,-2.95566 z m 2.67827,-5.7212 c 10.32203,-1.61423 15.3906,-3.33663 9.81879,-3.33663 -1.49459,0 -7.09709,-0.98348 -12.45,-2.18552 -13.76464,-3.09095 -26.28932,-3.0845 -32.10153,0.0165 -2.40294,1.28206 -3.97794,2.70656 -3.5,3.16554 2.01921,1.93914 11.45461,3.86901 19.23274,3.93379 4.60006,0.0383 13.15006,-0.67886 19,-1.59372 z m 15.63624,-5.86814 c -2.75,-0.76809 -8.15,-1.6326 -12,-1.92114 l -7,-0.52462 7.5,1.86182 c 4.125,1.024 9.525,1.88851 12,1.92114 l 4.5,0.0593 -5,-1.39653 z m 15.75,-51.02942 c 4.95764,-1.18243 2.88035,-2.5408 -3.42063,-2.2368 -6.19043,0.29867 -9.1199,2.23951 -4.637,3.0721 2.32803,0.43238 3.06128,0.35637 8.05763,-0.8353 z m -8.75,-4.43908 c 1.92824,-0.82859 1.92138,-0.86195 -0.19098,-0.92972 -1.20504,-0.0387 -2.4691,0.37972 -2.80902,0.92972 -0.731,1.18278 0.24752,1.18278 3,0 z m 27.15173,15.33367 c -1.01655,-1.35875 -1.61501,-2.70372 -1.32991,-2.98883 0.28511,-0.2851 1.29029,0.65972 2.23374,2.0996 2.22502,3.39582 1.50296,4.10621 -0.90383,0.88923 z"
       id="path4265"
       inkscape:connector-curvature="0" />
  </g>
</svg>
