<?xml version="1.0" encoding="UTF-8" standalone="no"?>
<!-- Created with Inkscape (http://www.inkscape.org/) -->

<svg
   xmlns:dc="http://purl.org/dc/elements/1.1/"
   xmlns:cc="http://creativecommons.org/ns#"
   xmlns:rdf="http://www.w3.org/1999/02/22-rdf-syntax-ns#"
   xmlns:svg="http://www.w3.org/2000/svg"
   xmlns="http://www.w3.org/2000/svg"
   xmlns:sodipodi="http://sodipodi.sourceforge.net/DTD/sodipodi-0.dtd"
   xmlns:inkscape="http://www.inkscape.org/namespaces/inkscape"
   width="649.99969"
   height="282.30408"
   id="svg2"
   version="1.1"
   inkscape:version="0.48.3.1 r9886"
   sodipodi:docname="introduction.svg">
  <defs
     id="defs4">
    <clipPath
       id="clipPath88"
       clipPathUnits="userSpaceOnUse">
      <path
         id="path90"
         d="m 7109.08,7345.89 397.07,0 0,-225.14 -397.07,0 0,225.14 z"
         inkscape:connector-curvature="0" />
    </clipPath>
    <clipPath
       id="clipPath84"
       clipPathUnits="userSpaceOnUse">
      <path
         id="path86"
         d="m 7276.78,7030.34 61.73,0 0,-3.66 -61.73,0 0,3.66 z"
         inkscape:connector-curvature="0" />
    </clipPath>
    <clipPath
       id="clipPath80"
       clipPathUnits="userSpaceOnUse">
      <path
         id="path82"
         d="m 7247.82,7059.68 119.65,0 0,-17.36 -119.65,0 0,17.36 z"
         inkscape:connector-curvature="0" />
    </clipPath>
    <clipPath
       id="clipPath76"
       clipPathUnits="userSpaceOnUse">
      <path
         id="path78"
         d="m 7095.21,7359.16 424.81,0 0,-252.31 -424.81,0 0,252.31 z"
         inkscape:connector-curvature="0" />
    </clipPath>
    <clipPath
       id="clipPath72"
       clipPathUnits="userSpaceOnUse">
      <path
         id="path74"
         d="m 7041.39,7038.43 531.74,0 0,-1.57 -531.74,0 0,1.57 z"
         inkscape:connector-curvature="0" />
    </clipPath>
    <clipPath
       id="clipPath68"
       clipPathUnits="userSpaceOnUse">
      <path
         id="path70"
         d="m 7573.13,7037.65 0.01,0 0,0 -0.01,0 z"
         inkscape:connector-curvature="0" />
    </clipPath>
    <clipPath
       id="clipPath64"
       clipPathUnits="userSpaceOnUse">
      <path
         id="path66"
         d="m 7041.54,7036.86 531.53,0 0,-19.61 -531.53,0 0,19.61 z"
         inkscape:connector-curvature="0" />
    </clipPath>
    <clipPath
       id="clipPath60"
       clipPathUnits="userSpaceOnUse">
      <path
         id="path62"
         d="m 7041.46,7100.04 531.6,0 0,-63.18 -531.6,0 0,63.18 z"
         inkscape:connector-curvature="0" />
    </clipPath>
    <clipPath
       id="clipPath56"
       clipPathUnits="userSpaceOnUse">
      <path
         id="path58"
         d="m 7041.39,7359.16 531.75,0 0,-341.91 -531.75,0 0,341.91 z"
         inkscape:connector-curvature="0" />
    </clipPath>
    <clipPath
       id="clipPath44"
       clipPathUnits="userSpaceOnUse">
      <path
         id="path46"
         d="m 0,14400 14400,0 L 14400,0 0,0 0,14400 z"
         inkscape:connector-curvature="0" />
    </clipPath>
    <inkscape:perspective
       id="perspective11913"
       inkscape:persp3d-origin="314.97101 : 85.946238 : 1"
       inkscape:vp_z="629.94202 : 128.91936 : 1"
       inkscape:vp_y="0 : 1000 : 0"
       inkscape:vp_x="0 : 128.91936 : 1"
       sodipodi:type="inkscape:persp3d" />
    <filter
       color-interpolation-filters="sRGB"
       inkscape:menu-tooltip="Increase or decrease lightness and contrast"
       inkscape:menu="Color"
       height="1"
       width="1"
       y="0"
       x="0"
       inkscape:label="Lightness-Contrast"
       id="filter3108">
      <feColorMatrix
         result="fbSourceGraphic"
         values="0"
         type="saturate"
         id="feColorMatrix3110" />
      <feColorMatrix
         id="feColorMatrix3112"
         values="0 0 0 -1 0 0 0 0 -1 0 0 0 0 -1 0 0 0 0 1 0"
         in="fbSourceGraphic"
         result="fbSourceGraphicAlpha" />
      <feFlood
         in="fbSourceGraphic"
         flood-color="rgb(128,128,128)"
         flood-opacity="0"
         result="result1"
         id="feFlood3114" />
      <feBlend
         result="result2"
         mode="normal"
         in2="fbSourceGraphic"
         id="feBlend3116" />
      <feComposite
         k4="0"
         k3="0"
         k1="0"
         result="result3"
         operator="arithmetic"
         k2="1"
         in2="fbSourceGraphic"
         id="feComposite3118" />
      <feComposite
         result="fbSourceGraphic"
         operator="in"
         in2="fbSourceGraphic"
         id="feComposite3120" />
      <feColorMatrix
         id="feColorMatrix3124"
         values="0 0 0 -1 0 0 0 0 -1 0 0 0 0 -1 0 0 0 0 1 0"
         in="fbSourceGraphic"
         result="fbSourceGraphicAlpha" />
      <feFlood
         in="fbSourceGraphic"
         flood-color="rgb(128,128,128)"
         flood-opacity="0"
         result="result1"
         id="feFlood3126" />
      <feBlend
         result="result2"
         mode="normal"
         in2="fbSourceGraphic"
         id="feBlend3128" />
      <feComposite
         k4="0"
         k3="0"
         k1="0"
         result="result4"
         operator="arithmetic"
         k2="1"
         in2="fbSourceGraphic"
         id="feComposite3130" />
      <feComposite
         operator="in"
         in2="fbSourceGraphic"
         id="feComposite3132" />
    </filter>
  </defs>
  <sodipodi:namedview
     id="base"
     pagecolor="#ffffff"
     bordercolor="#666666"
     borderopacity="1.0"
     inkscape:pageopacity="0.0"
     inkscape:pageshadow="2"
     inkscape:zoom="0.66537069"
     inkscape:cx="351.93185"
     inkscape:cy="82.486541"
     inkscape:document-units="px"
     inkscape:current-layer="layer1"
     showgrid="false"
     inkscape:window-width="1218"
     inkscape:window-height="776"
     inkscape:window-x="62"
     inkscape:window-y="24"
     inkscape:window-maximized="1"
     fit-margin-top="0"
     fit-margin-left="0"
     fit-margin-right="0"
     fit-margin-bottom="0" />
  <metadata
     id="metadata7">
    <rdf:RDF>
      <cc:Work
         rdf:about="">
        <dc:format>image/svg+xml</dc:format>
        <dc:type
           rdf:resource="http://purl.org/dc/dcmitype/StillImage" />
        <dc:title></dc:title>
      </cc:Work>
    </rdf:RDF>
  </metadata>
  <g
     inkscape:label="Layer 1"
     inkscape:groupmode="layer"
     id="layer1"
     transform="translate(0.19501084,-246.33213)">
    <path
       style="opacity:0.6;fill:#ffffff"
       d="m 507.08658,526.86888 c -3.12664,-1.90664 -7.93106,-7.52415 -10.20683,-11.93423 l -1.35569,-2.62714 -4.05494,3.2088 c -2.23021,1.76483 -7.20149,4.86224 -11.04728,6.88315 -6.68395,3.51232 -7.49222,3.69497 -18.32588,4.14116 -13.09366,0.53925 -15.08431,0.19083 -19.33261,-3.38389 -3.53726,-2.97641 -7.66646,-11.47435 -7.66646,-15.77764 0,-1.58065 -0.48397,-2.87389 -1.07549,-2.87389 -0.59152,0 -4.22054,3.22775 -8.06449,7.17281 -9.77997,10.03718 -11.94497,11.19508 -20.94055,11.19949 -6.04978,0.003 -7.93057,-0.386 -10.61568,-2.1955 -5.65778,-3.81277 -7.66148,-7.8163 -7.66148,-15.30814 l 0,-6.58253 -3.40756,2.13156 c -1.87415,1.17237 -4.81189,3.09977 -6.52829,4.28313 -3.08704,2.12833 -9.07912,5.16264 -22.72159,11.50591 -5.97143,2.77651 -8.09434,3.26772 -14.1225,3.26772 -5.77785,0 -7.7003,-0.40816 -10.35789,-2.19912 -4.45145,-2.99982 -7.66148,-8.04166 -7.66148,-12.0335 l 0,-3.30787 -2.97191,2.24196 c -1.63456,1.23308 -5.06962,3.54762 -7.63351,5.14342 -2.56387,1.59579 -7.40612,4.75114 -10.76055,7.01186 -3.35442,2.26073 -6.82955,4.1104 -7.72253,4.1104 -0.89297,0 -2.1892,0.68152 -2.8805,1.5145 -2.5066,3.02025 -6.58154,4.28842 -13.77976,4.28842 -5.83166,0 -7.75134,-0.40337 -10.35601,-2.17609 -5.70038,-3.87965 -7.19424,-6.83863 -7.72739,-15.30607 l -0.48358,-7.68025 -6.28649,3.83811 c -3.45758,2.11095 -10.42109,5.86089 -15.47447,8.33321 -5.05338,2.47231 -11.65966,5.75387 -14.68065,7.29238 -4.59554,2.34036 -6.66527,2.79725 -12.67177,2.79725 -8.139,0 -11.9926,-1.85632 -15.9047,-7.66148 -3.74238,-5.55333 -2.98402,-17.82413 1.69517,-27.42898 l 1.78207,-3.65798 -3.65658,2.89606 c -2.01112,1.59284 -4.23584,3.59403 -4.94383,4.44711 -2.53728,3.05724 -6.58526,4.32496 -13.81008,4.32496 -5.84444,0 -7.75773,-0.40372 -10.42191,-2.19911 -5.24009,-3.53129 -7.66149,-7.92497 -7.66149,-13.90194 l 0,-5.17633 -5.6599,0 c -6.52917,0 -10.74955,-2.26605 -14.4516,-7.75953 -1.98055,-2.93893 -2.22138,-4.27291 -1.91653,-10.61568 0.19177,-3.9899 0.71552,-8.04785 1.16387,-9.01768 0.55977,-1.21077 -4.30179,0.84476 -15.51526,6.56009 -8.98176,4.57788 -17.69692,9.28833 -19.367028,10.4677 -3.083498,2.17743 -4.963813,3.35714 -14.979217,9.39795 -3.086738,1.86177 -7.662125,4.64492 -10.167507,6.18478 -7.395815,4.5456 -15.508542,6.09429 -26.024997,4.96808 -6.974765,-0.74695 -11.29311,-3.15219 -14.678427,-8.17565 -1.795217,-2.66393 -2.199107,-4.57757 -2.199107,-10.41945 0,-6.59211 0.322095,-7.74343 4.086222,-14.60606 7.848726,-14.3096 21.489878,-33.49456 33.322026,-46.8642 6.033516,-6.81752 3.07865,-6.40705 -6.052656,0.84078 -2.170034,1.72243 -6.522228,4.30076 -9.671542,5.7296 -3.149304,1.42884 -10.627021,4.94225 -16.617154,7.80758 -9.985505,4.77649 -11.457199,5.20969 -17.698585,5.20969 -9.3295358,0 -13.8153864,-2.61976 -17.7205296,-10.34887 -2.4923237,-4.93284 -2.08308989,-14.80394 0.8540212,-20.60006 1.3298436,-2.6243 2.4178877,-5.36414 2.4178877,-6.08853 0,-0.72438 1.3867026,-3.45898 3.0815533,-6.07687 1.6948507,-2.61788 4.6134794,-7.15349 6.4858404,-10.07913 1.872361,-2.92564 5.95386,-8.47469 9.069999,-12.33121 l 5.665704,-7.01188 -3.304133,0 c -3.987907,0 -9.031268,-3.212 -12.029775,-7.66147 -1.77946,-2.64055 -2.196426,-4.57403 -2.185036,-10.13211 0.0198,-9.6669 3.280999,-18.30809 10.479197,-27.76673 1.941754,-2.55153 5.706557,-7.52261 8.366226,-11.04686 2.659678,-3.52425 8.099917,-9.12675 12.08943,-12.45001 3.989504,-3.32324 10.082577,-8.88972 13.540155,-12.36994 3.457568,-3.48021 7.237124,-6.82053 8.39901,-7.42292 1.161885,-0.60239 5.34091,-1.09526 9.28672,-1.09526 8.261484,0 12.120403,1.91336 16.051797,7.95893 l 2.305022,3.54459 5.646413,-2.8503 c 3.10554,-1.56766 6.32901,-2.8503 7.16326,-2.8503 0.83427,0 3.28897,-0.90407 5.45491,-2.00905 2.16594,-1.10498 6.46571,-2.81654 9.55504,-3.80346 3.08932,-0.98692 7.04108,-2.53084 8.78168,-3.43094 4.45783,-2.30524 7.95136,-3.31282 16.81789,-4.8505 11.90757,-2.06508 18.89708,-1.81417 22.80386,0.81861 4.65978,3.14022 7.66148,8.01851 7.66148,12.45122 0,2.04907 0.30303,3.72558 0.67339,3.72558 0.37036,0 2.22004,-1.03622 4.1104,-2.3027 5.93759,-3.97802 16.79712,-10.82463 21.41434,-13.50112 3.68614,-2.13675 5.61771,-2.5721 11.41209,-2.5721 7.28177,0 10.83984,1.1974 14.02875,4.72111 2.09076,2.31027 4.27739,2.05802 11.22604,-1.29505 4.61765,-2.22825 14.7201,-5.46423 22.72811,-7.2802 20.73365,-4.70176 30.23321,-3.71645 36.55035,3.79106 3.2895,3.90935 3.84016,6.11953 3.43063,13.76942 l -0.32767,6.12032 6.6161,-0.3246 c 8.40269,-0.41225 10.43249,0.12644 14.74542,3.91324 3.41339,2.99699 3.57124,3.03522 6.06244,1.46785 1.40681,-0.8851 4.08108,-2.32414 5.94285,-3.19787 10.57242,-4.96163 20.63759,-10.27875 22.70439,-11.99404 3.09348,-2.56737 11.79353,-4.85487 18.38599,-4.83423 8.00455,0.025 13.36868,2.1076 17.22094,6.68576 3.36561,3.9998 3.87734,6.22825 3.43621,14.96392 l -0.36146,7.15789 2.43198,-1.18098 c 1.3376,-0.64954 5.69614,-2.19492 9.68564,-3.43417 3.98952,-1.23926 11.00468,-3.49493 15.58926,-5.01262 10.88561,-3.60359 20.27994,-3.81324 25.10696,-0.56031 4.2274,2.84884 7.66148,7.99631 7.66148,11.48407 0,1.51713 0.25377,2.75844 0.56392,2.75844 0.7853,0 37.39796,-19.2695 49.72808,-26.17224 5.58531,-3.1268 12.54882,-6.36732 15.47446,-7.20114 2.92565,-0.83382 8.69305,-3.24075 12.81644,-5.34872 6.72483,-3.43789 8.22937,-3.83268 14.60607,-3.83268 8.06285,0 11.93367,1.87288 15.83461,7.66149 1.85396,2.75107 2.19912,4.53864 2.19912,11.38906 0,5.23332 -0.50277,9.09806 -1.41241,10.8571 -1.45057,2.8051 -7.54151,8.18211 -14.76563,13.03492 -6.67246,4.48224 -6.95402,5.89098 -0.52918,2.64774 15.66348,-7.9069 30.42705,-10.16451 37.09319,-5.67219 5.81816,3.92085 7.66149,7.76084 7.66149,15.96031 0,6.30659 -0.38165,7.90175 -2.97503,12.4345 -1.63627,2.85989 -6.18054,8.10301 -10.09837,11.65139 l -7.12335,6.45159 2.32397,2.76188 c 2.58383,3.0707 4.31903,8.32327 4.32723,13.09873 l 0.005,3.14325 5.38293,0 c 6.00968,0 7.77875,0.71161 13.73337,5.52425 5.56522,4.49791 6.99686,7.61806 6.99686,15.24912 0,5.19355 -0.55108,7.45379 -3.00033,12.30573 -2.91444,5.77347 -2.95598,6.03668 -1.45074,9.19319 1.83492,3.84787 2.10331,15.81072 0.42547,18.96378 -2.77307,5.21125 -9.20202,11.60201 -25.95617,25.80202 -1.94325,1.64702 -2.02085,1.85816 -0.3953,1.07566 8.473,-4.07874 21.12998,-5.30195 26.44127,-2.55537 3.12162,1.61425 7.37474,6.3453 8.28633,9.21748 0.53293,1.67914 1.45937,1.93953 6.90049,1.93953 6.92546,0 8.56683,0.61955 14.63536,5.52425 5.08725,4.11162 6.60306,6.94532 7.48315,13.98923 0.50393,4.0334 1.32364,6.08361 3.09303,7.73623 3.98893,3.72565 5.12506,6.96893 5.12506,14.63043 0,8.11682 -1.86113,11.97543 -7.66149,15.88428 -4.88514,3.29211 -15.67508,3.13668 -22.59423,-0.32546 -5.90113,-2.95274 -9.04137,-5.62534 -10.97345,-9.3393 -1.15328,-2.21688 -1.70728,-2.50722 -3.22957,-1.69251 -2.80183,1.49949 -15.16688,1.2078 -18.33909,-0.4326 -1.50603,-0.77881 -3.86367,-2.7535 -5.23921,-4.38824 l -2.50097,-2.97224 -4.14252,2.09583 c -4.17627,2.11291 -22.74237,16.32216 -34.88666,26.69992 -9.72342,8.30903 -15.14699,10.82908 -23.41647,10.8804 -4.96652,0.0308 -7.5599,-0.43962 -9.73482,-1.76592 z m 58.09251,-76.5243 c 0.96279,-1.06387 1.53292,-1.93431 1.26696,-1.93431 -0.26598,0 -1.27132,0.87044 -2.23411,1.93431 -0.96279,1.06387 -1.53293,1.9343 -1.26695,1.9343 0.26596,0 1.27131,-0.87043 2.2341,-1.9343 z"
       id="path12896"
       inkscape:connector-curvature="0"
       inkscape:export-xdpi="90"
       inkscape:export-ydpi="90" />
    <text
       xml:space="preserve"
       style="font-size:56.81460953px;font-style:normal;font-variant:normal;font-weight:bold;font-stretch:normal;line-height:125%;letter-spacing:0px;word-spacing:0px;fill:#000000;fill-opacity:1;stroke:none;font-family:Marydale;-inkscape-font-specification:Marydale Bold"
       x="205.78934"
       y="322.51291"
       id="text2985"
       sodipodi:linespacing="125%"><tspan
         sodipodi:role="line"
         id="tspan2987"
         x="205.78934"
         y="322.51291"
         style="font-weight:normal;-inkscape-font-specification:Marydale">Latte!</tspan></text>
    <text
       xml:space="preserve"
       style="font-size:35.50912857px;font-style:normal;font-weight:normal;line-height:125%;letter-spacing:0px;word-spacing:0px;fill:#000000;fill-opacity:1;stroke:none;font-family:Sans"
       x="257.03931"
       y="606.78516"
       id="text2993"
       sodipodi:linespacing="125%"><tspan
         sodipodi:role="line"
         id="tspan2995"
         x="257.03931"
         y="606.78516" /></text>
    <text
       xml:space="preserve"
       style="font-size:35.50912857px;font-style:normal;font-variant:normal;font-weight:bold;font-stretch:normal;line-height:125%;letter-spacing:0px;word-spacing:0px;fill:#000000;fill-opacity:1;stroke:none;font-family:Marydale;-inkscape-font-specification:Marydale Bold"
       x="217.651"
       y="405.23749"
       id="text2985-7"
       sodipodi:linespacing="125%"><tspan
         sodipodi:role="line"
         id="tspan2987-2"
         x="217.651"
         y="405.23749" /></text>
    <text
       xml:space="preserve"
       style="font-size:35.50912857px;font-style:normal;font-variant:normal;font-weight:bold;font-stretch:normal;line-height:125%;letter-spacing:0px;word-spacing:0px;fill:#000000;fill-opacity:1;stroke:none;font-family:Mary Dale;-inkscape-font-specification:Mary Dale Bold"
       x="219.76535"
       y="361.97629"
       id="text2985-8"
       sodipodi:linespacing="125%"><tspan
         sodipodi:role="line"
         id="tspan2987-5"
         x="219.76535"
         y="361.97629"
         style="font-style:normal;font-variant:normal;font-weight:normal;font-stretch:normal;font-family:Marydale;-inkscape-font-specification:Marydale">Just a simple django base </tspan><tspan
         sodipodi:role="line"
         x="219.76535"
         y="406.3627"
         id="tspan3178"
         style="font-style:normal;font-variant:normal;font-weight:normal;font-stretch:normal;font-family:Marydale;-inkscape-font-specification:Marydale"> project. So you don't have</tspan><tspan
         sodipodi:role="line"
         x="219.76535"
         y="450.74911"
         id="tspan3184"
         style="font-style:normal;font-variant:normal;font-weight:normal;font-stretch:normal;font-family:Marydale;-inkscape-font-specification:Marydale">to do the silly things :)</tspan></text>
    <g
       transform="matrix(3.7915448,0,0,3.7915448,-211.58158,-1299.103)"
       id="layer1-6"
       inkscape:label="Layer 1"
       style="fill:#000000">
      <g
         transform="matrix(0.12840663,0,0,0.12840663,64.885172,398.17039)"
         style="fill:#000000"
         id="g3194">
        <path
           inkscape:connector-curvature="0"
           style="fill:#000000"
           d="m 154.00863,455.26864 c -15.77376,-4.24238 -25.53356,-10.03636 -38.61049,-22.92139 -11.08172,-10.91909 -17.760679,-20.6156 -22.050059,-32.01226 -1.44649,-3.84326 -3.00136,-7.43774 -3.45527,-7.98774 -1.0454,-1.26672 -3.49698,-11.0461 -4.88843,-19.5 -3.15768,-19.1848 -3.34842,-48.68755 -0.21012,-32.5 2.12593,10.96569 3.12425,14.8932 7.24429,28.5 7.33845,24.23585 16.272289,41.74222 28.203849,55.26703 12.36159,14.01227 20.63244,19.63157 45.64633,31.0126 l 3.5,1.59246 -5,-0.002 c -2.75,-10e-4 -7.42104,-0.653 -10.3801,-1.44884 z"
           id="path3182" />
        <path
           inkscape:connector-curvature="0"
           style="fill:#000000"
           d="m 218.40933,454.87745 c 1.66134,-1.06487 5.52456,-2.58831 8.58495,-3.38544 5.65088,-1.47187 17.42135,-6.92766 18.05003,-8.36647 0.18943,-0.43354 3.26942,-3.0981 6.84442,-5.92125 18.56258,-14.6587 29.97389,-37.54254 29.99299,-60.14688 0.0117,-13.81714 -5.35973,-20.5553 -18.80041,-23.58414 -8.07182,-1.81897 -13.5129,-1.98045 -35.79852,-1.06242 -18.65053,0.76828 -52.64155,-0.75306 -70.89406,-3.17303 -6.05,-0.80212 -14.51508,-1.91063 -18.81128,-2.46334 -9.75016,-1.25439 -27.13279,-6.8807 -35.13036,-11.37081 -13.665179,-7.67209 -20.016639,-15.92541 -20.042809,-26.04434 -0.0343,-13.2687 9.40723,-22.48279 30.137549,-29.41149 9.02317,-3.01582 22.08392,-5.05518 36.93718,-5.76753 17.5016,-0.83937 18.06792,0.68109 1.32877,3.56744 -16.41028,2.82964 -28.33275,6.27694 -37.83791,10.94056 -8.32543,4.08481 -17.362179,12.14504 -18.439979,16.44735 -0.98243,3.9216 1.71736,9.06682 6.667799,12.70742 4.6679,3.43281 6.51555,3.74967 7.3131,1.25417 2.18926,-6.85008 7.30764,-10.90423 19.28557,-15.27564 9.6165,-3.50958 20.61236,-5.64311 33.74552,-6.54764 12.31286,-0.84804 13.98279,0.43124 4.57362,3.50369 -16.10202,5.25791 -29.16543,13.96983 -33.77087,22.52162 -1.65983,3.08211 -1.7367,3.75639 -0.51441,4.51181 2.71837,1.68004 18.61431,2.53605 46.05851,2.48027 56.79762,-0.11542 94.03357,-6.02716 105.84501,-16.80442 9.18029,-8.37648 5.71213,-18.04642 -9.58731,-26.73146 -2.33326,-1.32453 -4.24576,-2.6979 -4.25,-3.05193 -0.0154,-1.28536 8.66453,1.33893 15.86541,4.79676 9.93902,4.77266 15.55932,10.47322 17.01422,17.25717 0.61197,2.85352 1.11267,7.33005 1.11267,9.94786 0,2.61781 0.5625,5.49612 1.25,6.39624 1.13915,1.49146 1.73776,1.50349 6.75,0.13567 3.025,-0.82551 9.55,-1.55269 14.5,-1.61596 7.86721,-0.10056 9.79069,0.24008 15.28203,2.70639 13.59809,6.1073 22.25142,20.54963 20.9113,34.90076 -1.00961,10.81161 -3.04683,12.94879 -4.12412,4.32647 -0.87686,-7.01814 -5.51898,-14.98428 -10.7485,-18.44501 -3.35451,-2.2199 -5.53626,-2.81042 -11.49542,-3.11134 -6.33704,-0.32001 -8.08746,-0.0131 -12.64586,2.2171 -10.11819,4.95037 -16.17326,15.70716 -19.75831,35.10047 -1.19923,6.48724 -5.20761,17.17985 -10.05367,26.81882 -8.47733,16.86168 -23.13423,32.71896 -36.0704,39.02451 -9.04964,4.41111 -34.54028,12.69369 -38.99638,12.67094 l -3.30067,-0.0168 3.0206,-1.93611 z"
           id="path3180" />
        <path
           inkscape:connector-curvature="0"
           style="fill:#000000"
           d="m 297.88873,409.07692 c 0,-1.64871 12.37493,-12.70517 16.31048,-14.57271 4.72638,-2.24282 18.03058,-10.10991 21.76017,-12.86732 3.45204,-2.5522 7.8125,-8.89542 9.02777,-13.13281 2.07174,-7.22374 -3.92324,-15.77564 -12.01754,-17.14317 -5.57463,-0.94182 -5.1512,-2.51861 0.66912,-2.4917 16.75275,0.0775 26.89453,18.95368 17.44974,32.47804 -3.19292,4.57206 -10.6539,8.89624 -22.47246,13.02443 -7.25741,2.535 -21.7002,9.69795 -27.97728,13.87543 -1.5125,1.00659 -2.75,1.38 -2.75,0.82981 z"
           id="path3172" />
        <path
           inkscape:connector-curvature="0"
           style="fill:#000000"
           d="m 192.88873,304.44151 c 0,-0.22316 2.89244,-1.75928 6.42764,-3.4136 27.61458,-12.92242 45.12554,-38.1189 40.04571,-57.62167 -1.70768,-6.55623 -3.79103,-9.87471 -9.15742,-14.58646 -11.40365,-10.01254 -27.53543,-11.10387 -63.06532,-4.26643 -19.1276,3.68095 -38.35395,3.87845 -45.88305,0.47133 -2.82283,-1.27741 -6.39452,-3.63991 -7.93709,-5.25 -3.14782,-3.28562 -2.31459,-3.71406 2.52641,-1.29906 2.59584,1.29498 5.23776,1.52343 12.90364,1.11579 10.8409,-0.57647 18.69272,-2.78106 40.13948,-11.27013 7.425,-2.93897 17.29629,-6.32473 21.93621,-7.5239 38.21117,-9.87561 68.78096,3.52266 74.9492,32.84909 6.30036,29.95455 -16.35551,57.76327 -55.88541,68.59599 -8.31977,2.27993 -17,3.40277 -17,2.19905 z"
           id="path3164" />
        <path
           inkscape:connector-curvature="0"
           style="fill:#000000"
           d="m 190.56375,288.3201 c 0.45374,-1.63507 0.82498,-5.30265 0.82498,-8.15019 0,-6.5 -2.32698,-9.92485 -9.05197,-13.32266 l -4.94803,-2.5 -32.66713,0.32905 c -27.46312,0.27663 -33.67598,0.0734 -39,-1.2756 -14.173089,-3.59126 -23.015059,-10.01447 -28.028579,-20.36127 -2.91864,-6.02341 -3.24329,-7.59158 -3.24866,-15.69218 -0.005,-7.5765 0.40015,-9.86992 2.56175,-14.5 3.2535,-6.9689 7.14329,-11.57518 12.80874,-15.1681 6.41328,-4.06718 7.98508,-3.50781 3.30212,1.17515 -5.39929,5.39929 -7.23013,9.62053 -7.21886,16.64408 0.0117,7.27948 4.09075,15.06322 9.91306,18.91624 7.722429,5.11047 11.440569,5.66593 43.077559,6.43554 29.58272,0.71963 36.28513,1.47579 44.57389,5.02876 5.13648,2.20176 11.00969,7.27653 13.15513,11.36677 4.8306,9.20945 2.42529,25.63248 -4.69759,32.07441 l -2.1814,1.97284 0.82499,-2.97284 z"
           id="path3162" />
        <path
           inkscape:connector-curvature="0"
           style="fill:#000000"
           d="m 99.888731,192.84725 c 1.374999,-0.44035 3.399999,-0.80064 4.499999,-0.80064 1.58366,0 1.47958,0.16667 -0.5,0.80064 -1.375,0.44035 -3.4,0.80064 -4.499999,0.80064 -1.58367,0 -1.47958,-0.16667 0.5,-0.80064 z"
           id="path3144" />
      </g>
    </g>
  </g>
</svg>
