<?xml version="1.0" encoding="UTF-8" standalone="no"?>
<!-- Created with Inkscape (http://www.inkscape.org/) -->

<svg
   xmlns:dc="http://purl.org/dc/elements/1.1/"
   xmlns:cc="http://creativecommons.org/ns#"
   xmlns:rdf="http://www.w3.org/1999/02/22-rdf-syntax-ns#"
   xmlns:svg="http://www.w3.org/2000/svg"
   xmlns="http://www.w3.org/2000/svg"
   xmlns:sodipodi="http://sodipodi.sourceforge.net/DTD/sodipodi-0.dtd"
   xmlns:inkscape="http://www.inkscape.org/namespaces/inkscape"
   width="73.39286"
   height="100.00044"
   id="svg12916"
   version="1.1"
   inkscape:version="0.48.2 r9819"
   sodipodi:docname="logo.svg"
   inkscape:export-filename="/home/elleestcrimi/workspace/coffeum/static/img/logo.png"
   inkscape:export-xdpi="90"
   inkscape:export-ydpi="90">
  <defs
     id="defs12918" />
  <sodipodi:namedview
     id="base"
     pagecolor="#ffffff"
     bordercolor="#666666"
     borderopacity="1.0"
     inkscape:pageopacity="0.0"
     inkscape:pageshadow="2"
     inkscape:zoom="5.6"
     inkscape:cx="45.700025"
     inkscape:cy="52.686633"
     inkscape:document-units="px"
     inkscape:current-layer="layer1"
     showgrid="false"
     fit-margin-top="0"
     fit-margin-left="0"
     fit-margin-right="0"
     fit-margin-bottom="0"
     inkscape:window-width="1280"
     inkscape:window-height="775"
     inkscape:window-x="-1"
     inkscape:window-y="-3"
     inkscape:window-maximized="1" />
  <metadata
     id="metadata12921">
    <rdf:RDF>
      <cc:Work
         rdf:about="">
        <dc:format>image/svg+xml</dc:format>
        <dc:type
           rdf:resource="http://purl.org/dc/dcmitype/StillImage" />
        <dc:title />
      </cc:Work>
    </rdf:RDF>
  </metadata>
  <g
     inkscape:label="Layer 1"
     inkscape:groupmode="layer"
     id="layer1"
     transform="translate(-224.33763,-420.97293)">
    <path
       id="path13519"
       style="fill:#808080;fill-opacity:1"
       d="m 286.81941,504.33506 c 5.69859,-3.42612 8.59965,-8.61379 6.33977,-11.33679 -0.76751,-0.92478 -4.9562,-1.22671 -6.17386,-0.44501 -0.36409,0.23374 -1.34802,2.47103 -2.1865,4.97176 -0.83849,2.50072 -2.01369,5.55925 -2.61158,6.79672 -1.0137,2.09812 -1.0196,2.24995 -0.0875,2.24995 0.54974,0 2.6736,-1.00648 4.71968,-2.23663 z m -34.56393,15.87226 c -3.72234,-0.9025 -5.29021,-1.91281 -7.87974,-5.07756 -5.86535,-7.16828 -10.79255,-20.3963 -11.89455,-31.93321 l -0.39954,-4.1828 1.99698,1.35519 c 4.39523,2.98268 13.2113,4.46786 26.38178,4.44432 11.61217,-0.0208 19.14773,-1.15343 24.22898,-3.64191 l 3.40496,-1.66754 -0.33447,3.9896 -0.33448,3.9896 2.42474,0.009 c 3.10703,0.0109 4.95203,0.96444 6.6011,3.4115 2.51368,3.73005 1.21424,9.56004 -2.94475,13.21168 -2.57088,2.25726 -5.74894,3.94025 -10.77595,5.70656 -3.18682,1.11973 -4.11256,1.77985 -6.07368,4.33095 -1.27257,1.65542 -2.99721,3.51697 -3.83253,4.13677 -3.38458,2.51134 -14.02862,3.50404 -20.56885,1.91833 z"
       inkscape:connector-curvature="0" />
    <path
       style="fill:#cccccc;fill-opacity:1"
       d="m 248.42254,479.64922 c -6.17864,-0.84188 -10.66171,-2.10858 -13.49107,-3.81193 -1.30912,-0.78813 -1.98462,-1.77267 -2.43161,-3.54407 -0.8021,-3.17872 -1.51437,-4.08429 -5.00356,-6.36139 -2.96282,-1.93358 -3.54349,-2.98653 -2.95031,-5.34992 0.39017,-1.55456 1.71832,-2.01412 3.82264,-1.32268 1.7739,0.58287 2.46325,1.63777 4.35565,6.66541 0.80585,2.14096 2.02029,4.48354 2.69876,5.20573 2.16495,2.30448 5.56366,1.45646 6.54417,-1.63287 0.83321,-2.62519 -0.31055,-5.13427 -4.37086,-9.58848 -4.17083,-4.57544 -6.34741,-8.22991 -6.34741,-10.6573 0,-3.41453 3.88266,-5.57377 6.70144,-3.72684 1.8454,1.20915 2.31604,2.49787 3.42185,9.36988 1.49737,9.30529 3.74097,12.90586 9.86239,15.82734 5.83547,2.78501 13.11327,4.15688 22.53002,4.24692 4.45403,0.0426 9.00928,-0.11344 10.12279,-0.34672 l 2.02455,-0.42415 -1.59889,1.41571 c -4.71775,4.17723 -21.22657,6.0334 -35.89055,4.03536 z"
       id="path13517"
       inkscape:connector-curvature="0" />
    <path
       style="fill:#ececec;fill-opacity:1"
       d="m 265.84802,470.08455 c -4.86779,-0.71408 -10.21408,-2.19706 -12.8727,-3.57071 l -2.34848,-1.2134 4.93753,-0.72518 c 10.06147,-1.47776 16.83769,-5.15985 19.51015,-10.60152 1.49308,-3.04022 1.59218,-3.74411 1.75661,-12.4771 0.0959,-5.09032 0.4571,-9.98131 0.80278,-10.86889 1.38763,-3.56289 6.04863,-4.50704 8.77764,-1.77803 3.10316,3.10316 2.24616,6.88085 -3.16155,13.93631 -1.53627,2.00436 -3.09135,4.74677 -3.45574,6.09424 -0.99676,3.68585 0.18553,9.18634 3.27661,15.24418 1.40354,2.75063 2.55189,5.06601 2.55189,5.14528 0,0.0793 -1.15647,0.43535 -2.56993,0.79126 -2.91278,0.73345 -12.27812,0.74627 -17.20481,0.0235 z"
       id="path13515"
       inkscape:connector-curvature="0" />
    <path
       style="fill:#e6e6e6;fill-opacity:1"
       d="m 268.90505,453.48079 c -0.10807,-2.49435 -1.71361,-5.27639 -5.22068,-9.04623 -3.06913,-3.29908 -3.51319,-4.06541 -3.51319,-6.0628 0,-1.78105 0.33686,-2.55136 1.52413,-3.48526 1.82368,-1.43451 3.1472,-1.50507 5.49151,-0.29278 2.55692,1.32223 3.56895,4.22326 3.51797,10.08436 -0.0382,4.39025 -1.64947,12.27122 -1.79974,8.80271 z"
       id="path13513"
       inkscape:connector-curvature="0" />
    <path
       style="fill:#f9f9f9;fill-opacity:1"
       d="m 282.93072,451.05231 c 0.55684,-2.78418 2.0667,-5.63318 3.46493,-6.53807 3.7671,-2.43795 7.87019,-1.2425 7.89493,2.30021 0.0133,1.90787 -2.12178,3.06964 -5.64137,3.06964 -2.54445,0 -3.34009,0.26106 -4.58266,1.50362 l -1.50363,1.50363 0.3678,-1.83903 z"
       id="path13511"
       inkscape:connector-curvature="0" />
    <path
       style="fill:#cccccc;fill-opacity:1"
       d="m 270.78115,428.60928 c -1.00463,-0.86557 -2.51638,-2.05278 -3.35944,-2.63823 -1.10617,-0.76817 -1.4833,-1.47649 -1.35485,-2.54466 0.39297,-3.26787 4.58307,-3.27269 5.57708,-0.006 0.49659,1.63175 1.30381,6.82744 1.05338,6.78003 -0.0493,-0.009 -0.91154,-0.72516 -1.91617,-1.59072 z"
       id="path12959"
       inkscape:connector-curvature="0" />
  </g>
</svg>
